<?xml version="1.0" encoding="utf-8" standalone="no"?>
<!DOCTYPE svg PUBLIC "-//W3C//DTD SVG 1.1//EN"
  "http://www.w3.org/Graphics/SVG/1.1/DTD/svg11.dtd">
<!-- Created with matplotlib (https://matplotlib.org/) -->
<svg height="288pt" version="1.1" viewBox="0 0 432 288" width="432pt" xmlns="http://www.w3.org/2000/svg" xmlns:xlink="http://www.w3.org/1999/xlink">
 <defs>
  <style type="text/css">
*{stroke-linecap:butt;stroke-linejoin:round;}
  </style>
 </defs>
 <g id="figure_1">
  <g id="patch_1">
   <path d="M 0 288 
L 432 288 
L 432 0 
L 0 0 
z
" style="fill:#ffffff;"/>
  </g>
  <g id="axes_1">
   <g id="patch_2">
    <path d="M 54 252 
L 388.8 252 
L 388.8 34.56 
L 54 34.56 
z
" style="fill:#ffffff;"/>
   </g>
   <g id="matplotlib.axis_1">
    <g id="xtick_1">
     <g id="line2d_1">
      <defs>
       <path d="M 0 0 
L 0 3.5 
" id="md9813bbfac" style="stroke:#000000;stroke-width:0.8;"/>
      </defs>
      <g>
       <use style="stroke:#000000;stroke-width:0.8;" x="137.7" xlink:href="#md9813bbfac" y="252"/>
      </g>
     </g>
     <g id="text_1">
      <!-- bangumi -->
      <defs>
       <path d="M 44.140625 23.828125 
Q 44.140625 12.5 38.671875 6.828125 
Q 33.203125 1.171875 25.390625 1.171875 
Q 21.09375 1.171875 17.96875 2.734375 
Q 14.84375 4.296875 12.5 7.8125 
L 12.5 1.953125 
L 4.6875 1.953125 
L 4.6875 68.75 
L 12.5 68.75 
L 12.5 39.84375 
Q 14.84375 43.359375 17.96875 45.109375 
Q 21.09375 46.875 25.390625 46.875 
Q 33.203125 46.875 38.671875 41.015625 
Q 44.140625 35.15625 44.140625 23.828125 
z
M 35.546875 23.828125 
Q 35.546875 31.25 32.609375 35.546875 
Q 29.6875 39.84375 23.828125 39.84375 
Q 19.140625 39.84375 15.8125 35.546875 
Q 12.5 31.25 12.5 23.828125 
Q 12.5 16.40625 15.8125 12.296875 
Q 19.140625 8.203125 23.828125 8.203125 
Q 29.6875 8.203125 32.609375 12.296875 
Q 35.546875 16.40625 35.546875 23.828125 
z
" id="SimHei-98"/>
       <path d="M 44.921875 1.953125 
L 35.546875 1.953125 
Q 34.765625 2.734375 34.375 4.09375 
Q 33.984375 5.46875 33.984375 7.421875 
Q 31.25 4.296875 27.34375 2.734375 
Q 23.4375 1.171875 19.140625 1.171875 
Q 12.890625 1.171875 8.59375 4.296875 
Q 4.296875 7.421875 4.296875 13.28125 
Q 4.296875 19.140625 8.203125 22.65625 
Q 12.109375 26.171875 20.3125 27.34375 
Q 25.78125 28.125 29.875 29.296875 
Q 33.984375 30.46875 33.984375 32.421875 
Q 33.984375 34.765625 32.21875 37.109375 
Q 30.46875 39.453125 24.609375 39.453125 
Q 19.921875 39.453125 17.765625 37.6875 
Q 15.625 35.9375 14.84375 32.8125 
L 6.25 32.8125 
Q 7.03125 39.0625 11.90625 42.765625 
Q 16.796875 46.484375 24.609375 46.484375 
Q 33.203125 46.484375 37.5 42.578125 
Q 41.796875 38.671875 41.796875 31.640625 
L 41.796875 10.15625 
Q 41.796875 7.8125 42.578125 5.859375 
Q 43.359375 3.90625 44.921875 1.953125 
z
M 33.984375 16.40625 
L 33.984375 24.21875 
Q 31.640625 23.4375 29.484375 22.84375 
Q 27.34375 22.265625 22.265625 21.484375 
Q 16.40625 20.703125 14.640625 18.75 
Q 12.890625 16.796875 12.890625 14.0625 
Q 12.890625 11.71875 14.640625 9.953125 
Q 16.40625 8.203125 19.921875 8.203125 
Q 23.4375 8.203125 27.53125 10.15625 
Q 31.640625 12.109375 33.984375 16.40625 
z
" id="SimHei-97"/>
       <path d="M 43.75 1.953125 
L 35.9375 1.953125 
L 35.9375 30.078125 
Q 35.9375 34.765625 33.59375 37.5 
Q 31.25 40.234375 27.34375 40.234375 
Q 22.265625 40.234375 17.765625 34.953125 
Q 13.28125 29.6875 13.28125 21.875 
L 13.28125 1.953125 
L 5.46875 1.953125 
L 5.46875 45.703125 
L 13.28125 45.703125 
L 13.28125 37.5 
Q 16.40625 41.796875 20.109375 44.140625 
Q 23.828125 46.484375 29.6875 46.484375 
Q 36.71875 46.484375 40.234375 42.578125 
Q 43.75 38.671875 43.75 32.8125 
z
" id="SimHei-110"/>
       <path d="M 46.484375 39.0625 
Q 43.75 39.84375 41.203125 40.03125 
Q 38.671875 40.234375 35.9375 39.453125 
Q 37.109375 38.28125 37.890625 36.515625 
Q 38.671875 34.765625 38.671875 31.25 
Q 38.671875 24.609375 34.171875 20.3125 
Q 29.6875 16.015625 23.046875 16.015625 
Q 21.484375 16.015625 18.9375 16.59375 
Q 16.40625 17.1875 14.84375 17.96875 
Q 13.671875 17.1875 13.28125 16.40625 
Q 12.890625 15.625 12.890625 14.453125 
Q 12.890625 12.5 15.625 11.515625 
Q 18.359375 10.546875 25.390625 10.546875 
Q 36.71875 10.546875 40.8125 7.421875 
Q 44.921875 4.296875 44.921875 -0.390625 
Q 44.921875 -6.640625 38.859375 -9.5625 
Q 32.8125 -12.5 24.609375 -12.5 
Q 14.0625 -12.5 8.984375 -9.765625 
Q 3.90625 -7.03125 3.90625 -2.34375 
Q 3.90625 0 5.859375 2.34375 
Q 7.8125 4.6875 10.9375 6.25 
Q 8.59375 7.421875 7.21875 9.171875 
Q 5.859375 10.9375 5.859375 13.671875 
Q 5.859375 16.015625 7.609375 17.765625 
Q 9.375 19.53125 11.71875 20.703125 
Q 9.765625 22.65625 8.59375 25.390625 
Q 7.421875 28.125 7.421875 31.25 
Q 7.421875 37.890625 11.90625 42.1875 
Q 16.40625 46.484375 23.046875 46.484375 
Q 26.5625 46.484375 29.09375 45.5 
Q 31.640625 44.53125 33.59375 42.578125 
Q 36.71875 44.921875 39.84375 45.890625 
Q 42.96875 46.875 46.484375 46.484375 
z
M 30.859375 31.25 
Q 30.859375 35.15625 28.90625 37.5 
Q 26.953125 39.84375 23.046875 39.84375 
Q 19.140625 39.84375 17.1875 37.5 
Q 15.234375 35.15625 15.234375 31.25 
Q 15.234375 27.34375 17.1875 25 
Q 19.140625 22.65625 23.046875 22.65625 
Q 26.953125 22.65625 28.90625 25 
Q 30.859375 27.34375 30.859375 31.25 
z
M 37.5 -1.171875 
Q 37.5 0.390625 35.734375 1.953125 
Q 33.984375 3.515625 26.953125 3.515625 
Q 25.390625 3.515625 22.65625 3.703125 
Q 19.921875 3.90625 16.40625 4.296875 
Q 13.28125 3.125 12.109375 1.5625 
Q 10.9375 0 10.9375 -1.5625 
Q 10.9375 -3.90625 14.0625 -5.46875 
Q 17.1875 -7.03125 25 -7.03125 
Q 31.640625 -7.03125 34.5625 -5.265625 
Q 37.5 -3.515625 37.5 -1.171875 
z
" id="SimHei-103"/>
       <path d="M 43.75 1.953125 
L 35.9375 1.953125 
L 35.9375 10.15625 
Q 32.8125 5.859375 29.09375 3.515625 
Q 25.390625 1.171875 19.53125 1.171875 
Q 12.5 1.171875 8.984375 5.078125 
Q 5.46875 8.984375 5.46875 14.84375 
L 5.46875 45.703125 
L 13.28125 45.703125 
L 13.28125 17.578125 
Q 13.28125 12.890625 15.625 10.15625 
Q 17.96875 7.421875 21.875 7.421875 
Q 26.953125 7.421875 31.4375 12.6875 
Q 35.9375 17.96875 35.9375 25.78125 
L 35.9375 45.703125 
L 43.75 45.703125 
z
" id="SimHei-117"/>
       <path d="M 47.65625 1.953125 
L 39.84375 1.953125 
L 39.84375 33.59375 
Q 39.84375 35.9375 39.0625 37.5 
Q 38.28125 39.0625 35.9375 39.0625 
Q 33.203125 39.0625 30.859375 36.125 
Q 28.515625 33.203125 28.515625 28.515625 
L 28.515625 1.953125 
L 20.703125 1.953125 
L 20.703125 33.59375 
Q 20.703125 35.9375 19.921875 37.5 
Q 19.140625 39.0625 16.796875 39.0625 
Q 14.0625 39.0625 11.71875 36.125 
Q 9.375 33.203125 9.375 28.515625 
L 9.375 1.953125 
L 1.5625 1.953125 
L 1.5625 45.703125 
L 9.375 45.703125 
L 9.375 39.84375 
Q 11.328125 42.96875 14.0625 44.71875 
Q 16.796875 46.484375 19.921875 46.484375 
Q 23.046875 46.484375 25.1875 44.71875 
Q 27.34375 42.96875 28.125 39.84375 
Q 30.078125 42.96875 32.609375 44.71875 
Q 35.15625 46.484375 38.28125 46.484375 
Q 42.96875 46.484375 45.3125 43.9375 
Q 47.65625 41.40625 47.65625 36.71875 
z
" id="SimHei-109"/>
       <path d="M 28.125 58.203125 
L 20.3125 58.203125 
L 20.3125 68.359375 
L 28.125 68.359375 
z
M 28.125 1.953125 
L 20.3125 1.953125 
L 20.3125 45.703125 
L 28.125 45.703125 
z
" id="SimHei-105"/>
      </defs>
      <g transform="translate(120.2 265.875)scale(0.1 -0.1)">
       <use xlink:href="#SimHei-98"/>
       <use x="50" xlink:href="#SimHei-97"/>
       <use x="100" xlink:href="#SimHei-110"/>
       <use x="150" xlink:href="#SimHei-103"/>
       <use x="200" xlink:href="#SimHei-117"/>
       <use x="250" xlink:href="#SimHei-109"/>
       <use x="300" xlink:href="#SimHei-105"/>
      </g>
     </g>
    </g>
    <g id="xtick_2">
     <g id="line2d_2">
      <g>
       <use style="stroke:#000000;stroke-width:0.8;" x="305.1" xlink:href="#md9813bbfac" y="252"/>
      </g>
     </g>
     <g id="text_2">
      <!-- bilibili -->
      <defs>
       <path d="M 28.515625 1.953125 
L 20.703125 1.953125 
L 20.703125 68.75 
L 28.515625 68.75 
z
" id="SimHei-108"/>
      </defs>
      <g transform="translate(285.1 265.875)scale(0.1 -0.1)">
       <use xlink:href="#SimHei-98"/>
       <use x="50" xlink:href="#SimHei-105"/>
       <use x="100" xlink:href="#SimHei-108"/>
       <use x="150" xlink:href="#SimHei-105"/>
       <use x="200" xlink:href="#SimHei-98"/>
       <use x="250" xlink:href="#SimHei-105"/>
       <use x="300" xlink:href="#SimHei-108"/>
       <use x="350" xlink:href="#SimHei-105"/>
      </g>
     </g>
    </g>
   </g>
   <g id="matplotlib.axis_2">
    <g id="ytick_1">
     <g id="line2d_3">
      <defs>
       <path d="M 0 0 
L -3.5 0 
" id="m50557c9d9c" style="stroke:#000000;stroke-width:0.8;"/>
      </defs>
      <g>
       <use style="stroke:#000000;stroke-width:0.8;" x="54" xlink:href="#m50557c9d9c" y="221.256877"/>
      </g>
     </g>
     <g id="text_3">
      <!-- 2 -->
      <defs>
       <path d="M 4.6875 3.90625 
Q 5.078125 9.765625 10.15625 14.453125 
Q 15.234375 19.140625 23.046875 29.09375 
Q 30.859375 39.0625 33.203125 44.53125 
Q 35.546875 50 34.953125 53.90625 
Q 34.375 57.8125 31.25 60.34375 
Q 28.125 62.890625 24.015625 62.5 
Q 19.921875 62.109375 16.203125 59.375 
Q 12.5 56.640625 10.546875 51.171875 
L 3.125 52.34375 
Q 6.25 61.328125 11.125 65.421875 
Q 16.015625 69.53125 22.65625 69.921875 
Q 26.5625 70.3125 29.6875 69.71875 
Q 32.8125 69.140625 36.125 66.984375 
Q 39.453125 64.84375 41.59375 60.546875 
Q 43.75 56.25 43.15625 50.1875 
Q 42.578125 44.140625 37.109375 35.734375 
Q 31.640625 27.34375 16.015625 9.375 
L 44.140625 9.375 
L 44.140625 2.34375 
L 4.6875 2.34375 
z
" id="SimHei-50"/>
      </defs>
      <g transform="translate(42 224.694377)scale(0.1 -0.1)">
       <use xlink:href="#SimHei-50"/>
      </g>
     </g>
    </g>
    <g id="ytick_2">
     <g id="line2d_4">
      <g>
       <use style="stroke:#000000;stroke-width:0.8;" x="54" xlink:href="#m50557c9d9c" y="176.494032"/>
      </g>
     </g>
     <g id="text_4">
      <!-- 4 -->
      <defs>
       <path d="M 31.25 17.1875 
L 1.171875 17.1875 
L 1.171875 23.828125 
L 32.8125 69.53125 
L 38.671875 69.53125 
L 38.671875 23.828125 
L 48.046875 23.828125 
L 48.046875 17.1875 
L 38.671875 17.1875 
L 38.671875 2.34375 
L 31.25 2.34375 
z
M 31.25 23.828125 
L 31.25 54.6875 
L 9.375 23.828125 
z
" id="SimHei-52"/>
      </defs>
      <g transform="translate(42 179.931532)scale(0.1 -0.1)">
       <use xlink:href="#SimHei-52"/>
      </g>
     </g>
    </g>
    <g id="ytick_3">
     <g id="line2d_5">
      <g>
       <use style="stroke:#000000;stroke-width:0.8;" x="54" xlink:href="#m50557c9d9c" y="131.731186"/>
      </g>
     </g>
     <g id="text_5">
      <!-- 6 -->
      <defs>
       <path d="M 3.515625 19.53125 
Q 4.296875 30.859375 6.046875 34.765625 
Q 7.8125 38.671875 11.328125 44.53125 
L 27.34375 69.53125 
L 36.328125 69.53125 
L 19.921875 43.75 
Q 30.46875 46.484375 36.71875 42.96875 
Q 42.96875 39.453125 45.109375 34.953125 
Q 47.265625 30.46875 47.453125 25.1875 
Q 47.65625 19.921875 45.890625 14.84375 
Q 44.140625 9.765625 39.640625 5.65625 
Q 35.15625 1.5625 27.140625 1.171875 
Q 19.140625 0.78125 13.46875 4.09375 
Q 7.8125 7.421875 5.65625 13.46875 
Q 3.515625 19.53125 4.296875 30.859375 
z
M 12.5 16.015625 
Q 19.53125 8.59375 25.390625 8.203125 
Q 31.25 7.8125 35.15625 12.109375 
Q 39.0625 16.40625 39.0625 24.609375 
Q 39.0625 32.8125 34.171875 35.9375 
Q 29.296875 39.0625 23.234375 38.28125 
Q 17.1875 37.5 14.453125 32.421875 
Q 11.71875 27.34375 12.109375 21.671875 
Q 12.5 16.015625 19.53125 8.59375 
z
" id="SimHei-54"/>
      </defs>
      <g transform="translate(42 135.168686)scale(0.1 -0.1)">
       <use xlink:href="#SimHei-54"/>
      </g>
     </g>
    </g>
    <g id="ytick_4">
     <g id="line2d_6">
      <g>
       <use style="stroke:#000000;stroke-width:0.8;" x="54" xlink:href="#m50557c9d9c" y="86.96834"/>
      </g>
     </g>
     <g id="text_6">
      <!-- 8 -->
      <defs>
       <path d="M 2.734375 16.796875 
Q 2.734375 26.171875 5.078125 30.65625 
Q 7.421875 35.15625 12.890625 37.890625 
Q 8.203125 40.625 6.640625 43.9375 
Q 5.078125 47.265625 4.875 51.5625 
Q 4.6875 55.859375 6.046875 58.984375 
Q 7.421875 62.109375 10.15625 64.84375 
Q 12.890625 67.578125 16.203125 68.546875 
Q 19.53125 69.53125 23.4375 69.53125 
Q 27.34375 69.53125 30.46875 68.75 
Q 33.59375 67.96875 37.109375 65.421875 
Q 40.625 62.890625 42.1875 58.203125 
Q 43.75 53.515625 41.984375 47.265625 
Q 40.234375 41.015625 32.8125 37.5 
Q 39.453125 35.546875 42.1875 31.4375 
Q 44.921875 27.34375 44.921875 21.484375 
Q 44.921875 15.625 43.15625 12.109375 
Q 41.40625 8.59375 39.25 6.25 
Q 37.109375 3.90625 33.390625 2.53125 
Q 29.6875 1.171875 24.015625 1.171875 
Q 18.359375 1.171875 14.25 2.53125 
Q 10.15625 3.90625 7.421875 6.640625 
Q 4.6875 9.375 3.703125 13.078125 
Q 2.734375 16.796875 2.734375 26.171875 
z
M 10.9375 26.5625 
Q 10.546875 17.1875 12.296875 13.671875 
Q 14.0625 10.15625 18.75 9.171875 
Q 23.4375 8.203125 28.515625 9.375 
Q 33.59375 10.546875 35.546875 14.84375 
Q 37.5 19.140625 36.90625 23.4375 
Q 36.328125 27.734375 32.03125 30.65625 
Q 27.734375 33.59375 22.65625 33.203125 
Q 17.578125 32.8125 14.25 29.6875 
Q 10.9375 26.5625 10.546875 17.1875 
z
M 12.109375 56.25 
Q 12.109375 48.4375 14.84375 44.921875 
Q 17.578125 41.40625 23.4375 41.40625 
Q 29.296875 41.40625 32.21875 44.921875 
Q 35.15625 48.4375 34.953125 53.3125 
Q 34.765625 58.203125 31.4375 60.546875 
Q 28.125 62.890625 22.453125 62.5 
Q 16.796875 62.109375 14.453125 59.171875 
Q 12.109375 56.25 12.109375 48.4375 
z
" id="SimHei-56"/>
      </defs>
      <g transform="translate(42 90.40584)scale(0.1 -0.1)">
       <use xlink:href="#SimHei-56"/>
      </g>
     </g>
    </g>
    <g id="ytick_5">
     <g id="line2d_7">
      <g>
       <use style="stroke:#000000;stroke-width:0.8;" x="54" xlink:href="#m50557c9d9c" y="42.205494"/>
      </g>
     </g>
     <g id="text_7">
      <!-- 10 -->
      <defs>
       <path d="M 21.875 56.25 
Q 16.796875 51.171875 8.984375 46.484375 
L 8.984375 53.90625 
Q 18.75 60.546875 25 69.53125 
L 29.6875 69.53125 
L 29.6875 2.34375 
L 21.875 2.34375 
z
" id="SimHei-49"/>
       <path d="M 3.125 29.296875 
Q 3.90625 50 6.4375 56.046875 
Q 8.984375 62.109375 13.671875 66.015625 
Q 18.359375 69.921875 25.1875 69.921875 
Q 32.03125 69.921875 37.109375 64.25 
Q 42.1875 58.59375 43.75 50 
Q 45.3125 41.40625 44.71875 30.265625 
Q 44.140625 19.140625 40.8125 12.109375 
Q 37.5 5.078125 30.859375 2.34375 
Q 24.21875 -0.390625 17.578125 2.921875 
Q 10.9375 6.25 8.203125 11.71875 
Q 5.46875 17.1875 4.296875 23.234375 
Q 3.125 29.296875 3.90625 50 
z
M 12.890625 52.734375 
Q 10.546875 31.25 12.5 22.84375 
Q 14.453125 14.453125 18.9375 10.9375 
Q 23.4375 7.421875 28.125 9.5625 
Q 32.8125 11.71875 34.953125 18.15625 
Q 37.109375 24.609375 37.109375 32.21875 
Q 37.109375 39.84375 36.515625 46.09375 
Q 35.9375 52.34375 33 57.421875 
Q 30.078125 62.5 25.1875 62.6875 
Q 20.3125 62.890625 16.59375 57.8125 
Q 12.890625 52.734375 10.546875 31.25 
z
" id="SimHei-48"/>
      </defs>
      <g transform="translate(37 45.642994)scale(0.1 -0.1)">
       <use xlink:href="#SimHei-49"/>
       <use x="50" xlink:href="#SimHei-48"/>
      </g>
     </g>
    </g>
    <g id="text_8">
     <!-- 分数 -->
     <defs>
      <path d="M 15.625 -10.15625 
Q 12.890625 -5.859375 8.984375 -3.515625 
Q 15.234375 -1.171875 20.3125 2.140625 
Q 25.390625 5.46875 29.296875 10.34375 
Q 33.203125 15.234375 35.15625 21.09375 
Q 37.109375 26.953125 37.890625 35.546875 
Q 28.90625 35.546875 23.4375 35.15625 
L 23.4375 43.359375 
Q 29.6875 42.96875 39.453125 42.96875 
L 78.515625 42.96875 
Q 77.734375 37.109375 77.34375 32.8125 
L 74.21875 3.90625 
Q 73.4375 -3.125 67.96875 -5.46875 
Q 62.5 -7.8125 55.859375 -8.203125 
Q 55.46875 -4.296875 51.953125 0.78125 
Q 60.15625 0.390625 63.078125 1.359375 
Q 66.015625 2.34375 66.796875 8.203125 
L 69.53125 35.546875 
L 46.09375 35.546875 
Q 44.921875 25.390625 42.765625 18.546875 
Q 40.625 11.71875 36.71875 6.640625 
Q 32.8125 1.5625 27.34375 -2.734375 
Q 21.875 -7.03125 15.625 -10.15625 
z
M 61.71875 80.859375 
Q 64.453125 72.65625 72.84375 62.109375 
Q 81.25 51.5625 96.484375 43.75 
Q 93.359375 41.015625 90.234375 35.546875 
Q 83.203125 40.625 77.921875 45.109375 
Q 72.65625 49.609375 69.140625 53.515625 
Q 65.625 57.421875 61.328125 64.640625 
Q 57.03125 71.875 54.296875 78.125 
Q 58.59375 79.296875 61.71875 80.859375 
z
M 42.1875 75.390625 
Q 38.671875 69.140625 36.328125 64.453125 
Q 33.984375 59.765625 31.640625 56.046875 
Q 29.296875 52.34375 24.609375 46.09375 
Q 19.921875 39.84375 13.28125 33.203125 
Q 9.765625 36.71875 6.25 38.671875 
Q 14.0625 45.703125 18.546875 51.5625 
Q 23.046875 57.421875 27.140625 64.25 
Q 31.25 71.09375 34.375 79.296875 
Q 37.5 76.953125 42.1875 75.390625 
z
" id="SimHei-20998"/>
      <path d="M 70.703125 76.953125 
Q 69.921875 75 68.75 71.671875 
Q 67.578125 68.359375 65.234375 59.765625 
L 83.203125 59.765625 
Q 87.109375 59.765625 92.578125 60.15625 
L 92.578125 53.125 
Q 88.28125 53.515625 85.9375 53.515625 
Q 85.9375 47.265625 83.78125 33.78125 
Q 81.640625 20.3125 76.171875 10.546875 
Q 80.078125 5.859375 84.953125 2.140625 
Q 89.84375 -1.5625 94.140625 -3.125 
Q 89.453125 -6.640625 87.890625 -9.765625 
Q 83.203125 -7.03125 79.296875 -3.515625 
Q 75.390625 0 71.484375 5.078125 
Q 67.1875 0.390625 62.296875 -2.921875 
Q 57.421875 -6.25 50 -10.15625 
Q 48.046875 -6.640625 44.53125 -4.6875 
Q 50.390625 -2.34375 57.03125 1.953125 
Q 63.671875 6.25 67.1875 10.546875 
Q 64.453125 16.015625 61.90625 22.265625 
Q 59.375 28.515625 57.421875 38.671875 
Q 56.25 35.546875 53.515625 30.46875 
Q 50.78125 32.03125 46.875 33.59375 
Q 53.125 44.53125 57.03125 57.421875 
Q 60.9375 70.3125 62.109375 79.6875 
Q 66.796875 77.734375 70.703125 76.953125 
z
M 32.8125 35.15625 
Q 31.25 33.59375 29.296875 30.078125 
L 50.78125 30.078125 
Q 48.4375 20.3125 42.578125 10.546875 
Q 48.828125 8.203125 52.34375 6.25 
Q 50.390625 3.515625 48.828125 0.390625 
Q 45.3125 2.734375 38.28125 5.078125 
Q 30.46875 -3.515625 11.328125 -10.15625 
Q 9.375 -5.859375 6.25 -4.296875 
Q 24.609375 0 31.25 7.421875 
Q 20.3125 10.15625 13.28125 12.109375 
Q 15.625 15.625 19.53125 23.828125 
Q 15.625 23.828125 6.640625 23.4375 
L 6.640625 30.46875 
Q 14.0625 30.078125 21.875 30.078125 
Q 23.4375 33.59375 24.21875 37.890625 
Q 28.515625 36.328125 32.8125 35.15625 
z
M 27.734375 61.71875 
Q 27.734375 71.09375 27.34375 79.6875 
L 35.15625 79.6875 
Q 34.765625 71.484375 34.765625 61.71875 
Q 48.046875 61.71875 53.515625 62.109375 
L 53.515625 55.078125 
Q 48.046875 55.46875 34.765625 55.46875 
Q 34.765625 44.140625 35.15625 37.890625 
L 27.34375 37.890625 
Q 27.734375 43.359375 27.734375 51.5625 
Q 25.78125 48.4375 20.3125 43.546875 
Q 14.84375 38.671875 10.15625 35.9375 
Q 8.203125 39.453125 4.296875 41.015625 
Q 7.8125 42.1875 13.671875 46.484375 
Q 19.53125 50.78125 22.65625 55.46875 
Q 14.84375 55.46875 7.8125 55.078125 
L 7.8125 62.109375 
Q 14.453125 61.71875 27.734375 61.71875 
z
M 62.109375 49.609375 
Q 65.625 26.5625 71.875 17.578125 
Q 75.78125 26.5625 77.140625 35.734375 
Q 78.515625 44.921875 78.90625 53.515625 
L 63.671875 53.515625 
L 62.109375 49.609375 
z
M 22.65625 15.625 
Q 27.34375 14.453125 35.546875 12.5 
Q 38.671875 16.40625 41.40625 23.828125 
L 26.953125 23.828125 
Q 25 19.921875 22.65625 15.625 
z
M 51.953125 75.390625 
Q 50 72.265625 48.828125 69.53125 
Q 47.65625 66.796875 45.703125 62.890625 
Q 42.578125 64.453125 39.453125 65.234375 
Q 42.578125 70.3125 45.3125 78.125 
Q 49.21875 76.171875 51.953125 75.390625 
z
M 40.234375 52.734375 
Q 45.3125 47.65625 50 42.578125 
Q 47.65625 40.625 44.921875 37.890625 
Q 39.453125 44.53125 35.9375 48.4375 
Q 38.28125 50.390625 40.234375 52.734375 
z
M 14.453125 78.125 
Q 19.921875 72.65625 23.4375 67.1875 
L 17.578125 63.671875 
Q 14.84375 69.140625 9.375 73.828125 
Q 12.890625 76.171875 14.453125 78.125 
z
" id="SimHei-25968"/>
     </defs>
     <g transform="translate(31.75 153.28)rotate(-90)scale(0.1 -0.1)">
      <use xlink:href="#SimHei-20998"/>
      <use x="100" xlink:href="#SimHei-25968"/>
     </g>
    </g>
   </g>
   <g id="line2d_8">
    <path clip-path="url(#pb4468aef26)" d="M 112.59 128.88315 
L 162.81 128.88315 
L 162.81 104.050961 
L 112.59 104.050961 
L 112.59 128.88315 
" style="fill:none;stroke:#000000;stroke-linecap:square;"/>
   </g>
   <g id="line2d_9">
    <path clip-path="url(#pb4468aef26)" d="M 137.7 128.88315 
L 137.7 165.750949 
" style="fill:none;stroke:#000000;stroke-linecap:square;"/>
   </g>
   <g id="line2d_10">
    <path clip-path="url(#pb4468aef26)" d="M 137.7 104.050961 
L 137.7 67.250306 
" style="fill:none;stroke:#000000;stroke-linecap:square;"/>
   </g>
   <g id="line2d_11">
    <path clip-path="url(#pb4468aef26)" d="M 125.145 165.750949 
L 150.255 165.750949 
" style="fill:none;stroke:#000000;stroke-linecap:square;"/>
   </g>
   <g id="line2d_12">
    <path clip-path="url(#pb4468aef26)" d="M 125.145 67.250306 
L 150.255 67.250306 
" style="fill:none;stroke:#000000;stroke-linecap:square;"/>
   </g>
   <g id="line2d_13">
    <defs>
     <path d="M 0 1.5 
C 0.397805 1.5 0.77937 1.341951 1.06066 1.06066 
C 1.341951 0.77937 1.5 0.397805 1.5 0 
C 1.5 -0.397805 1.341951 -0.77937 1.06066 -1.06066 
C 0.77937 -1.341951 0.397805 -1.5 0 -1.5 
C -0.397805 -1.5 -0.77937 -1.341951 -1.06066 -1.06066 
C -1.341951 -0.77937 -1.5 -0.397805 -1.5 0 
C -1.5 0.397805 -1.341951 0.77937 -1.06066 1.06066 
C -0.77937 1.341951 -0.397805 1.5 0 1.5 
z
" id="md78d7ad6ab" style="stroke:#000000;"/>
    </defs>
    <g clip-path="url(#pb4468aef26)">
     <use style="fill-opacity:0;stroke:#000000;" x="137.7" xlink:href="#md78d7ad6ab" y="167.205741"/>
     <use style="fill-opacity:0;stroke:#000000;" x="137.7" xlink:href="#md78d7ad6ab" y="167.228123"/>
     <use style="fill-opacity:0;stroke:#000000;" x="137.7" xlink:href="#md78d7ad6ab" y="172.711571"/>
     <use style="fill-opacity:0;stroke:#000000;" x="137.7" xlink:href="#md78d7ad6ab" y="169.376739"/>
     <use style="fill-opacity:0;stroke:#000000;" x="137.7" xlink:href="#md78d7ad6ab" y="167.160978"/>
     <use style="fill-opacity:0;stroke:#000000;" x="137.7" xlink:href="#md78d7ad6ab" y="166.780494"/>
     <use style="fill-opacity:0;stroke:#000000;" x="137.7" xlink:href="#md78d7ad6ab" y="178.687411"/>
     <use style="fill-opacity:0;stroke:#000000;" x="137.7" xlink:href="#md78d7ad6ab" y="169.555791"/>
     <use style="fill-opacity:0;stroke:#000000;" x="137.7" xlink:href="#md78d7ad6ab" y="169.242451"/>
     <use style="fill-opacity:0;stroke:#000000;" x="137.7" xlink:href="#md78d7ad6ab" y="166.511917"/>
     <use style="fill-opacity:0;stroke:#000000;" x="137.7" xlink:href="#md78d7ad6ab" y="167.4967"/>
     <use style="fill-opacity:0;stroke:#000000;" x="137.7" xlink:href="#md78d7ad6ab" y="166.220958"/>
     <use style="fill-opacity:0;stroke:#000000;" x="137.7" xlink:href="#md78d7ad6ab" y="173.248725"/>
     <use style="fill-opacity:0;stroke:#000000;" x="137.7" xlink:href="#md78d7ad6ab" y="170.831532"/>
     <use style="fill-opacity:0;stroke:#000000;" x="137.7" xlink:href="#md78d7ad6ab" y="168.861966"/>
     <use style="fill-opacity:0;stroke:#000000;" x="137.7" xlink:href="#md78d7ad6ab" y="166.892401"/>
     <use style="fill-opacity:0;stroke:#000000;" x="137.7" xlink:href="#md78d7ad6ab" y="172.017747"/>
     <use style="fill-opacity:0;stroke:#000000;" x="137.7" xlink:href="#md78d7ad6ab" y="166.444773"/>
     <use style="fill-opacity:0;stroke:#000000;" x="137.7" xlink:href="#md78d7ad6ab" y="166.937164"/>
     <use style="fill-opacity:0;stroke:#000000;" x="137.7" xlink:href="#md78d7ad6ab" y="167.675751"/>
     <use style="fill-opacity:0;stroke:#000000;" x="137.7" xlink:href="#md78d7ad6ab" y="166.55668"/>
     <use style="fill-opacity:0;stroke:#000000;" x="137.7" xlink:href="#md78d7ad6ab" y="169.981038"/>
     <use style="fill-opacity:0;stroke:#000000;" x="137.7" xlink:href="#md78d7ad6ab" y="169.443883"/>
     <use style="fill-opacity:0;stroke:#000000;" x="137.7" xlink:href="#md78d7ad6ab" y="171.43583"/>
     <use style="fill-opacity:0;stroke:#000000;" x="137.7" xlink:href="#md78d7ad6ab" y="167.899565"/>
     <use style="fill-opacity:0;stroke:#000000;" x="137.7" xlink:href="#md78d7ad6ab" y="171.637263"/>
     <use style="fill-opacity:0;stroke:#000000;" x="137.7" xlink:href="#md78d7ad6ab" y="177.075949"/>
     <use style="fill-opacity:0;stroke:#000000;" x="137.7" xlink:href="#md78d7ad6ab" y="172.06251"/>
     <use style="fill-opacity:0;stroke:#000000;" x="137.7" xlink:href="#md78d7ad6ab" y="177.389289"/>
     <use style="fill-opacity:0;stroke:#000000;" x="137.7" xlink:href="#md78d7ad6ab" y="177.366907"/>
     <use style="fill-opacity:0;stroke:#000000;" x="137.7" xlink:href="#md78d7ad6ab" y="182.357964"/>
     <use style="fill-opacity:0;stroke:#000000;" x="137.7" xlink:href="#md78d7ad6ab" y="179.873626"/>
     <use style="fill-opacity:0;stroke:#000000;" x="137.7" xlink:href="#md78d7ad6ab" y="167.205741"/>
     <use style="fill-opacity:0;stroke:#000000;" x="137.7" xlink:href="#md78d7ad6ab" y="175.016858"/>
     <use style="fill-opacity:0;stroke:#000000;" x="137.7" xlink:href="#md78d7ad6ab" y="172.398231"/>
     <use style="fill-opacity:0;stroke:#000000;" x="137.7" xlink:href="#md78d7ad6ab" y="183.029407"/>
     <use style="fill-opacity:0;stroke:#000000;" x="137.7" xlink:href="#md78d7ad6ab" y="182.44749"/>
     <use style="fill-opacity:0;stroke:#000000;" x="137.7" xlink:href="#md78d7ad6ab" y="183.745613"/>
     <use style="fill-opacity:0;stroke:#000000;" x="137.7" xlink:href="#md78d7ad6ab" y="190.213844"/>
     <use style="fill-opacity:0;stroke:#000000;" x="137.7" xlink:href="#md78d7ad6ab" y="193.571057"/>
     <use style="fill-opacity:0;stroke:#000000;" x="137.7" xlink:href="#md78d7ad6ab" y="173.1592"/>
     <use style="fill-opacity:0;stroke:#000000;" x="137.7" xlink:href="#md78d7ad6ab" y="180.522688"/>
     <use style="fill-opacity:0;stroke:#000000;" x="137.7" xlink:href="#md78d7ad6ab" y="168.571008"/>
     <use style="fill-opacity:0;stroke:#000000;" x="137.7" xlink:href="#md78d7ad6ab" y="173.271107"/>
     <use style="fill-opacity:0;stroke:#000000;" x="137.7" xlink:href="#md78d7ad6ab" y="176.091166"/>
     <use style="fill-opacity:0;stroke:#000000;" x="137.7" xlink:href="#md78d7ad6ab" y="166.511917"/>
     <use style="fill-opacity:0;stroke:#000000;" x="137.7" xlink:href="#md78d7ad6ab" y="185.446601"/>
     <use style="fill-opacity:0;stroke:#000000;" x="137.7" xlink:href="#md78d7ad6ab" y="171.032964"/>
     <use style="fill-opacity:0;stroke:#000000;" x="137.7" xlink:href="#md78d7ad6ab" y="187.975702"/>
     <use style="fill-opacity:0;stroke:#000000;" x="137.7" xlink:href="#md78d7ad6ab" y="187.281877"/>
     <use style="fill-opacity:0;stroke:#000000;" x="137.7" xlink:href="#md78d7ad6ab" y="176.986423"/>
     <use style="fill-opacity:0;stroke:#000000;" x="137.7" xlink:href="#md78d7ad6ab" y="189.878123"/>
     <use style="fill-opacity:0;stroke:#000000;" x="137.7" xlink:href="#md78d7ad6ab" y="193.503913"/>
     <use style="fill-opacity:0;stroke:#000000;" x="137.7" xlink:href="#md78d7ad6ab" y="170.719625"/>
     <use style="fill-opacity:0;stroke:#000000;" x="137.7" xlink:href="#md78d7ad6ab" y="169.734842"/>
     <use style="fill-opacity:0;stroke:#000000;" x="137.7" xlink:href="#md78d7ad6ab" y="179.985534"/>
     <use style="fill-opacity:0;stroke:#000000;" x="137.7" xlink:href="#md78d7ad6ab" y="194.08583"/>
     <use style="fill-opacity:0;stroke:#000000;" x="137.7" xlink:href="#md78d7ad6ab" y="170.764387"/>
     <use style="fill-opacity:0;stroke:#000000;" x="137.7" xlink:href="#md78d7ad6ab" y="174.009694"/>
     <use style="fill-opacity:0;stroke:#000000;" x="137.7" xlink:href="#md78d7ad6ab" y="176.494032"/>
     <use style="fill-opacity:0;stroke:#000000;" x="137.7" xlink:href="#md78d7ad6ab" y="179.537905"/>
     <use style="fill-opacity:0;stroke:#000000;" x="137.7" xlink:href="#md78d7ad6ab" y="175.889733"/>
     <use style="fill-opacity:0;stroke:#000000;" x="137.7" xlink:href="#md78d7ad6ab" y="168.257668"/>
     <use style="fill-opacity:0;stroke:#000000;" x="137.7" xlink:href="#md78d7ad6ab" y="175.867352"/>
     <use style="fill-opacity:0;stroke:#000000;" x="137.7" xlink:href="#md78d7ad6ab" y="182.738449"/>
     <use style="fill-opacity:0;stroke:#000000;" x="137.7" xlink:href="#md78d7ad6ab" y="180.903172"/>
     <use style="fill-opacity:0;stroke:#000000;" x="137.7" xlink:href="#md78d7ad6ab" y="169.71246"/>
     <use style="fill-opacity:0;stroke:#000000;" x="137.7" xlink:href="#md78d7ad6ab" y="167.675751"/>
     <use style="fill-opacity:0;stroke:#000000;" x="137.7" xlink:href="#md78d7ad6ab" y="170.361522"/>
     <use style="fill-opacity:0;stroke:#000000;" x="137.7" xlink:href="#md78d7ad6ab" y="183.588943"/>
     <use style="fill-opacity:0;stroke:#000000;" x="137.7" xlink:href="#md78d7ad6ab" y="210.379506"/>
     <use style="fill-opacity:0;stroke:#000000;" x="137.7" xlink:href="#md78d7ad6ab" y="205.791314"/>
     <use style="fill-opacity:0;stroke:#000000;" x="137.7" xlink:href="#md78d7ad6ab" y="172.957767"/>
     <use style="fill-opacity:0;stroke:#000000;" x="137.7" xlink:href="#md78d7ad6ab" y="172.420613"/>
     <use style="fill-opacity:0;stroke:#000000;" x="137.7" xlink:href="#md78d7ad6ab" y="179.045514"/>
     <use style="fill-opacity:0;stroke:#000000;" x="137.7" xlink:href="#md78d7ad6ab" y="177.165474"/>
     <use style="fill-opacity:0;stroke:#000000;" x="137.7" xlink:href="#md78d7ad6ab" y="179.985534"/>
     <use style="fill-opacity:0;stroke:#000000;" x="137.7" xlink:href="#md78d7ad6ab" y="185.200405"/>
     <use style="fill-opacity:0;stroke:#000000;" x="137.7" xlink:href="#md78d7ad6ab" y="209.282816"/>
     <use style="fill-opacity:0;stroke:#000000;" x="137.7" xlink:href="#md78d7ad6ab" y="214.900553"/>
     <use style="fill-opacity:0;stroke:#000000;" x="137.7" xlink:href="#md78d7ad6ab" y="188.602381"/>
     <use style="fill-opacity:0;stroke:#000000;" x="137.7" xlink:href="#md78d7ad6ab" y="229.023231"/>
     <use style="fill-opacity:0;stroke:#000000;" x="137.7" xlink:href="#md78d7ad6ab" y="218.280148"/>
     <use style="fill-opacity:0;stroke:#000000;" x="137.7" xlink:href="#md78d7ad6ab" y="200.956927"/>
     <use style="fill-opacity:0;stroke:#000000;" x="137.7" xlink:href="#md78d7ad6ab" y="241.668735"/>
     <use style="fill-opacity:0;stroke:#000000;" x="137.7" xlink:href="#md78d7ad6ab" y="242.116364"/>
     <use style="fill-opacity:0;stroke:#000000;" x="137.7" xlink:href="#md78d7ad6ab" y="239.318686"/>
     <use style="fill-opacity:0;stroke:#000000;" x="137.7" xlink:href="#md78d7ad6ab" y="224.725998"/>
     <use style="fill-opacity:0;stroke:#000000;" x="137.7" xlink:href="#md78d7ad6ab" y="238.378666"/>
     <use style="fill-opacity:0;stroke:#000000;" x="137.7" xlink:href="#md78d7ad6ab" y="61.386374"/>
     <use style="fill-opacity:0;stroke:#000000;" x="137.7" xlink:href="#md78d7ad6ab" y="61.699713"/>
     <use style="fill-opacity:0;stroke:#000000;" x="137.7" xlink:href="#md78d7ad6ab" y="62.774022"/>
     <use style="fill-opacity:0;stroke:#000000;" x="137.7" xlink:href="#md78d7ad6ab" y="63.937856"/>
     <use style="fill-opacity:0;stroke:#000000;" x="137.7" xlink:href="#md78d7ad6ab" y="66.668389"/>
     <use style="fill-opacity:0;stroke:#000000;" x="137.7" xlink:href="#md78d7ad6ab" y="66.735534"/>
    </g>
   </g>
   <g id="line2d_14">
    <path clip-path="url(#pb4468aef26)" d="M 279.99 62.348775 
L 330.21 62.348775 
L 330.21 48.919921 
L 279.99 48.919921 
L 279.99 62.348775 
" style="fill:none;stroke:#000000;stroke-linecap:square;"/>
   </g>
   <g id="line2d_15">
    <path clip-path="url(#pb4468aef26)" d="M 305.1 62.348775 
L 305.1 82.492055 
" style="fill:none;stroke:#000000;stroke-linecap:square;"/>
   </g>
   <g id="line2d_16">
    <path clip-path="url(#pb4468aef26)" d="M 305.1 48.919921 
L 305.1 44.443636 
" style="fill:none;stroke:#000000;stroke-linecap:square;"/>
   </g>
   <g id="line2d_17">
    <path clip-path="url(#pb4468aef26)" d="M 292.545 82.492055 
L 317.655 82.492055 
" style="fill:none;stroke:#000000;stroke-linecap:square;"/>
   </g>
   <g id="line2d_18">
    <path clip-path="url(#pb4468aef26)" d="M 292.545 44.443636 
L 317.655 44.443636 
" style="fill:none;stroke:#000000;stroke-linecap:square;"/>
   </g>
   <g id="line2d_19">
    <g clip-path="url(#pb4468aef26)">
     <use style="fill-opacity:0;stroke:#000000;" x="305.1" xlink:href="#md78d7ad6ab" y="84.730198"/>
     <use style="fill-opacity:0;stroke:#000000;" x="305.1" xlink:href="#md78d7ad6ab" y="89.206482"/>
     <use style="fill-opacity:0;stroke:#000000;" x="305.1" xlink:href="#md78d7ad6ab" y="107.111621"/>
     <use style="fill-opacity:0;stroke:#000000;" x="305.1" xlink:href="#md78d7ad6ab" y="129.493043"/>
     <use style="fill-opacity:0;stroke:#000000;" x="305.1" xlink:href="#md78d7ad6ab" y="93.682767"/>
     <use style="fill-opacity:0;stroke:#000000;" x="305.1" xlink:href="#md78d7ad6ab" y="89.206482"/>
     <use style="fill-opacity:0;stroke:#000000;" x="305.1" xlink:href="#md78d7ad6ab" y="89.206482"/>
     <use style="fill-opacity:0;stroke:#000000;" x="305.1" xlink:href="#md78d7ad6ab" y="104.873478"/>
     <use style="fill-opacity:0;stroke:#000000;" x="305.1" xlink:href="#md78d7ad6ab" y="194.39917"/>
     <use style="fill-opacity:0;stroke:#000000;" x="305.1" xlink:href="#md78d7ad6ab" y="86.96834"/>
     <use style="fill-opacity:0;stroke:#000000;" x="305.1" xlink:href="#md78d7ad6ab" y="84.730198"/>
     <use style="fill-opacity:0;stroke:#000000;" x="305.1" xlink:href="#md78d7ad6ab" y="120.540474"/>
     <use style="fill-opacity:0;stroke:#000000;" x="305.1" xlink:href="#md78d7ad6ab" y="100.397194"/>
     <use style="fill-opacity:0;stroke:#000000;" x="305.1" xlink:href="#md78d7ad6ab" y="89.206482"/>
     <use style="fill-opacity:0;stroke:#000000;" x="305.1" xlink:href="#md78d7ad6ab" y="84.730198"/>
     <use style="fill-opacity:0;stroke:#000000;" x="305.1" xlink:href="#md78d7ad6ab" y="138.445613"/>
     <use style="fill-opacity:0;stroke:#000000;" x="305.1" xlink:href="#md78d7ad6ab" y="86.96834"/>
     <use style="fill-opacity:0;stroke:#000000;" x="305.1" xlink:href="#md78d7ad6ab" y="118.302332"/>
     <use style="fill-opacity:0;stroke:#000000;" x="305.1" xlink:href="#md78d7ad6ab" y="86.96834"/>
     <use style="fill-opacity:0;stroke:#000000;" x="305.1" xlink:href="#md78d7ad6ab" y="104.873478"/>
     <use style="fill-opacity:0;stroke:#000000;" x="305.1" xlink:href="#md78d7ad6ab" y="104.873478"/>
     <use style="fill-opacity:0;stroke:#000000;" x="305.1" xlink:href="#md78d7ad6ab" y="207.828024"/>
     <use style="fill-opacity:0;stroke:#000000;" x="305.1" xlink:href="#md78d7ad6ab" y="192.161028"/>
     <use style="fill-opacity:0;stroke:#000000;" x="305.1" xlink:href="#md78d7ad6ab" y="89.206482"/>
     <use style="fill-opacity:0;stroke:#000000;" x="305.1" xlink:href="#md78d7ad6ab" y="95.920909"/>
     <use style="fill-opacity:0;stroke:#000000;" x="305.1" xlink:href="#md78d7ad6ab" y="109.349763"/>
     <use style="fill-opacity:0;stroke:#000000;" x="305.1" xlink:href="#md78d7ad6ab" y="109.349763"/>
     <use style="fill-opacity:0;stroke:#000000;" x="305.1" xlink:href="#md78d7ad6ab" y="107.111621"/>
     <use style="fill-opacity:0;stroke:#000000;" x="305.1" xlink:href="#md78d7ad6ab" y="111.587905"/>
     <use style="fill-opacity:0;stroke:#000000;" x="305.1" xlink:href="#md78d7ad6ab" y="86.96834"/>
     <use style="fill-opacity:0;stroke:#000000;" x="305.1" xlink:href="#md78d7ad6ab" y="86.96834"/>
     <use style="fill-opacity:0;stroke:#000000;" x="305.1" xlink:href="#md78d7ad6ab" y="100.397194"/>
     <use style="fill-opacity:0;stroke:#000000;" x="305.1" xlink:href="#md78d7ad6ab" y="86.96834"/>
     <use style="fill-opacity:0;stroke:#000000;" x="305.1" xlink:href="#md78d7ad6ab" y="165.30332"/>
     <use style="fill-opacity:0;stroke:#000000;" x="305.1" xlink:href="#md78d7ad6ab" y="98.159051"/>
     <use style="fill-opacity:0;stroke:#000000;" x="305.1" xlink:href="#md78d7ad6ab" y="89.206482"/>
     <use style="fill-opacity:0;stroke:#000000;" x="305.1" xlink:href="#md78d7ad6ab" y="93.682767"/>
     <use style="fill-opacity:0;stroke:#000000;" x="305.1" xlink:href="#md78d7ad6ab" y="133.969328"/>
     <use style="fill-opacity:0;stroke:#000000;" x="305.1" xlink:href="#md78d7ad6ab" y="98.159051"/>
     <use style="fill-opacity:0;stroke:#000000;" x="305.1" xlink:href="#md78d7ad6ab" y="102.635336"/>
     <use style="fill-opacity:0;stroke:#000000;" x="305.1" xlink:href="#md78d7ad6ab" y="125.016759"/>
     <use style="fill-opacity:0;stroke:#000000;" x="305.1" xlink:href="#md78d7ad6ab" y="104.873478"/>
     <use style="fill-opacity:0;stroke:#000000;" x="305.1" xlink:href="#md78d7ad6ab" y="174.255889"/>
     <use style="fill-opacity:0;stroke:#000000;" x="305.1" xlink:href="#md78d7ad6ab" y="93.682767"/>
     <use style="fill-opacity:0;stroke:#000000;" x="305.1" xlink:href="#md78d7ad6ab" y="84.730198"/>
     <use style="fill-opacity:0;stroke:#000000;" x="305.1" xlink:href="#md78d7ad6ab" y="129.493043"/>
     <use style="fill-opacity:0;stroke:#000000;" x="305.1" xlink:href="#md78d7ad6ab" y="93.682767"/>
     <use style="fill-opacity:0;stroke:#000000;" x="305.1" xlink:href="#md78d7ad6ab" y="138.445613"/>
     <use style="fill-opacity:0;stroke:#000000;" x="305.1" xlink:href="#md78d7ad6ab" y="86.96834"/>
     <use style="fill-opacity:0;stroke:#000000;" x="305.1" xlink:href="#md78d7ad6ab" y="136.20747"/>
     <use style="fill-opacity:0;stroke:#000000;" x="305.1" xlink:href="#md78d7ad6ab" y="165.30332"/>
     <use style="fill-opacity:0;stroke:#000000;" x="305.1" xlink:href="#md78d7ad6ab" y="140.683755"/>
     <use style="fill-opacity:0;stroke:#000000;" x="305.1" xlink:href="#md78d7ad6ab" y="86.96834"/>
     <use style="fill-opacity:0;stroke:#000000;" x="305.1" xlink:href="#md78d7ad6ab" y="104.873478"/>
     <use style="fill-opacity:0;stroke:#000000;" x="305.1" xlink:href="#md78d7ad6ab" y="84.730198"/>
     <use style="fill-opacity:0;stroke:#000000;" x="305.1" xlink:href="#md78d7ad6ab" y="172.017747"/>
     <use style="fill-opacity:0;stroke:#000000;" x="305.1" xlink:href="#md78d7ad6ab" y="113.826047"/>
     <use style="fill-opacity:0;stroke:#000000;" x="305.1" xlink:href="#md78d7ad6ab" y="91.444625"/>
     <use style="fill-opacity:0;stroke:#000000;" x="305.1" xlink:href="#md78d7ad6ab" y="89.206482"/>
     <use style="fill-opacity:0;stroke:#000000;" x="305.1" xlink:href="#md78d7ad6ab" y="104.873478"/>
     <use style="fill-opacity:0;stroke:#000000;" x="305.1" xlink:href="#md78d7ad6ab" y="169.779605"/>
     <use style="fill-opacity:0;stroke:#000000;" x="305.1" xlink:href="#md78d7ad6ab" y="89.206482"/>
     <use style="fill-opacity:0;stroke:#000000;" x="305.1" xlink:href="#md78d7ad6ab" y="91.444625"/>
     <use style="fill-opacity:0;stroke:#000000;" x="305.1" xlink:href="#md78d7ad6ab" y="127.254901"/>
     <use style="fill-opacity:0;stroke:#000000;" x="305.1" xlink:href="#md78d7ad6ab" y="140.683755"/>
     <use style="fill-opacity:0;stroke:#000000;" x="305.1" xlink:href="#md78d7ad6ab" y="129.493043"/>
     <use style="fill-opacity:0;stroke:#000000;" x="305.1" xlink:href="#md78d7ad6ab" y="160.827036"/>
     <use style="fill-opacity:0;stroke:#000000;" x="305.1" xlink:href="#md78d7ad6ab" y="98.159051"/>
     <use style="fill-opacity:0;stroke:#000000;" x="305.1" xlink:href="#md78d7ad6ab" y="118.302332"/>
     <use style="fill-opacity:0;stroke:#000000;" x="305.1" xlink:href="#md78d7ad6ab" y="86.96834"/>
     <use style="fill-opacity:0;stroke:#000000;" x="305.1" xlink:href="#md78d7ad6ab" y="84.730198"/>
     <use style="fill-opacity:0;stroke:#000000;" x="305.1" xlink:href="#md78d7ad6ab" y="86.96834"/>
     <use style="fill-opacity:0;stroke:#000000;" x="305.1" xlink:href="#md78d7ad6ab" y="156.350751"/>
     <use style="fill-opacity:0;stroke:#000000;" x="305.1" xlink:href="#md78d7ad6ab" y="89.206482"/>
     <use style="fill-opacity:0;stroke:#000000;" x="305.1" xlink:href="#md78d7ad6ab" y="84.730198"/>
     <use style="fill-opacity:0;stroke:#000000;" x="305.1" xlink:href="#md78d7ad6ab" y="86.96834"/>
     <use style="fill-opacity:0;stroke:#000000;" x="305.1" xlink:href="#md78d7ad6ab" y="185.446601"/>
     <use style="fill-opacity:0;stroke:#000000;" x="305.1" xlink:href="#md78d7ad6ab" y="118.302332"/>
     <use style="fill-opacity:0;stroke:#000000;" x="305.1" xlink:href="#md78d7ad6ab" y="203.351739"/>
     <use style="fill-opacity:0;stroke:#000000;" x="305.1" xlink:href="#md78d7ad6ab" y="149.636324"/>
     <use style="fill-opacity:0;stroke:#000000;" x="305.1" xlink:href="#md78d7ad6ab" y="140.683755"/>
     <use style="fill-opacity:0;stroke:#000000;" x="305.1" xlink:href="#md78d7ad6ab" y="160.827036"/>
     <use style="fill-opacity:0;stroke:#000000;" x="305.1" xlink:href="#md78d7ad6ab" y="122.778617"/>
     <use style="fill-opacity:0;stroke:#000000;" x="305.1" xlink:href="#md78d7ad6ab" y="89.206482"/>
     <use style="fill-opacity:0;stroke:#000000;" x="305.1" xlink:href="#md78d7ad6ab" y="93.682767"/>
     <use style="fill-opacity:0;stroke:#000000;" x="305.1" xlink:href="#md78d7ad6ab" y="107.111621"/>
     <use style="fill-opacity:0;stroke:#000000;" x="305.1" xlink:href="#md78d7ad6ab" y="174.255889"/>
     <use style="fill-opacity:0;stroke:#000000;" x="305.1" xlink:href="#md78d7ad6ab" y="84.730198"/>
     <use style="fill-opacity:0;stroke:#000000;" x="305.1" xlink:href="#md78d7ad6ab" y="129.493043"/>
     <use style="fill-opacity:0;stroke:#000000;" x="305.1" xlink:href="#md78d7ad6ab" y="89.206482"/>
     <use style="fill-opacity:0;stroke:#000000;" x="305.1" xlink:href="#md78d7ad6ab" y="125.016759"/>
     <use style="fill-opacity:0;stroke:#000000;" x="305.1" xlink:href="#md78d7ad6ab" y="93.682767"/>
     <use style="fill-opacity:0;stroke:#000000;" x="305.1" xlink:href="#md78d7ad6ab" y="145.16004"/>
     <use style="fill-opacity:0;stroke:#000000;" x="305.1" xlink:href="#md78d7ad6ab" y="86.96834"/>
     <use style="fill-opacity:0;stroke:#000000;" x="305.1" xlink:href="#md78d7ad6ab" y="100.397194"/>
     <use style="fill-opacity:0;stroke:#000000;" x="305.1" xlink:href="#md78d7ad6ab" y="136.20747"/>
     <use style="fill-opacity:0;stroke:#000000;" x="305.1" xlink:href="#md78d7ad6ab" y="93.682767"/>
     <use style="fill-opacity:0;stroke:#000000;" x="305.1" xlink:href="#md78d7ad6ab" y="93.682767"/>
     <use style="fill-opacity:0;stroke:#000000;" x="305.1" xlink:href="#md78d7ad6ab" y="113.826047"/>
     <use style="fill-opacity:0;stroke:#000000;" x="305.1" xlink:href="#md78d7ad6ab" y="104.873478"/>
     <use style="fill-opacity:0;stroke:#000000;" x="305.1" xlink:href="#md78d7ad6ab" y="86.96834"/>
     <use style="fill-opacity:0;stroke:#000000;" x="305.1" xlink:href="#md78d7ad6ab" y="113.826047"/>
     <use style="fill-opacity:0;stroke:#000000;" x="305.1" xlink:href="#md78d7ad6ab" y="120.540474"/>
     <use style="fill-opacity:0;stroke:#000000;" x="305.1" xlink:href="#md78d7ad6ab" y="107.111621"/>
     <use style="fill-opacity:0;stroke:#000000;" x="305.1" xlink:href="#md78d7ad6ab" y="93.682767"/>
     <use style="fill-opacity:0;stroke:#000000;" x="305.1" xlink:href="#md78d7ad6ab" y="107.111621"/>
     <use style="fill-opacity:0;stroke:#000000;" x="305.1" xlink:href="#md78d7ad6ab" y="86.96834"/>
     <use style="fill-opacity:0;stroke:#000000;" x="305.1" xlink:href="#md78d7ad6ab" y="129.493043"/>
     <use style="fill-opacity:0;stroke:#000000;" x="305.1" xlink:href="#md78d7ad6ab" y="91.444625"/>
     <use style="fill-opacity:0;stroke:#000000;" x="305.1" xlink:href="#md78d7ad6ab" y="84.730198"/>
     <use style="fill-opacity:0;stroke:#000000;" x="305.1" xlink:href="#md78d7ad6ab" y="120.540474"/>
     <use style="fill-opacity:0;stroke:#000000;" x="305.1" xlink:href="#md78d7ad6ab" y="203.351739"/>
     <use style="fill-opacity:0;stroke:#000000;" x="305.1" xlink:href="#md78d7ad6ab" y="183.208458"/>
     <use style="fill-opacity:0;stroke:#000000;" x="305.1" xlink:href="#md78d7ad6ab" y="154.112609"/>
     <use style="fill-opacity:0;stroke:#000000;" x="305.1" xlink:href="#md78d7ad6ab" y="116.06419"/>
     <use style="fill-opacity:0;stroke:#000000;" x="305.1" xlink:href="#md78d7ad6ab" y="95.920909"/>
     <use style="fill-opacity:0;stroke:#000000;" x="305.1" xlink:href="#md78d7ad6ab" y="149.636324"/>
     <use style="fill-opacity:0;stroke:#000000;" x="305.1" xlink:href="#md78d7ad6ab" y="84.730198"/>
     <use style="fill-opacity:0;stroke:#000000;" x="305.1" xlink:href="#md78d7ad6ab" y="104.873478"/>
     <use style="fill-opacity:0;stroke:#000000;" x="305.1" xlink:href="#md78d7ad6ab" y="133.969328"/>
     <use style="fill-opacity:0;stroke:#000000;" x="305.1" xlink:href="#md78d7ad6ab" y="89.206482"/>
     <use style="fill-opacity:0;stroke:#000000;" x="305.1" xlink:href="#md78d7ad6ab" y="120.540474"/>
     <use style="fill-opacity:0;stroke:#000000;" x="305.1" xlink:href="#md78d7ad6ab" y="98.159051"/>
     <use style="fill-opacity:0;stroke:#000000;" x="305.1" xlink:href="#md78d7ad6ab" y="111.587905"/>
     <use style="fill-opacity:0;stroke:#000000;" x="305.1" xlink:href="#md78d7ad6ab" y="127.254901"/>
     <use style="fill-opacity:0;stroke:#000000;" x="305.1" xlink:href="#md78d7ad6ab" y="98.159051"/>
     <use style="fill-opacity:0;stroke:#000000;" x="305.1" xlink:href="#md78d7ad6ab" y="163.065178"/>
     <use style="fill-opacity:0;stroke:#000000;" x="305.1" xlink:href="#md78d7ad6ab" y="84.730198"/>
     <use style="fill-opacity:0;stroke:#000000;" x="305.1" xlink:href="#md78d7ad6ab" y="116.06419"/>
     <use style="fill-opacity:0;stroke:#000000;" x="305.1" xlink:href="#md78d7ad6ab" y="145.16004"/>
     <use style="fill-opacity:0;stroke:#000000;" x="305.1" xlink:href="#md78d7ad6ab" y="107.111621"/>
     <use style="fill-opacity:0;stroke:#000000;" x="305.1" xlink:href="#md78d7ad6ab" y="95.920909"/>
     <use style="fill-opacity:0;stroke:#000000;" x="305.1" xlink:href="#md78d7ad6ab" y="84.730198"/>
     <use style="fill-opacity:0;stroke:#000000;" x="305.1" xlink:href="#md78d7ad6ab" y="107.111621"/>
     <use style="fill-opacity:0;stroke:#000000;" x="305.1" xlink:href="#md78d7ad6ab" y="102.635336"/>
     <use style="fill-opacity:0;stroke:#000000;" x="305.1" xlink:href="#md78d7ad6ab" y="107.111621"/>
     <use style="fill-opacity:0;stroke:#000000;" x="305.1" xlink:href="#md78d7ad6ab" y="116.06419"/>
     <use style="fill-opacity:0;stroke:#000000;" x="305.1" xlink:href="#md78d7ad6ab" y="113.826047"/>
     <use style="fill-opacity:0;stroke:#000000;" x="305.1" xlink:href="#md78d7ad6ab" y="95.920909"/>
     <use style="fill-opacity:0;stroke:#000000;" x="305.1" xlink:href="#md78d7ad6ab" y="95.920909"/>
     <use style="fill-opacity:0;stroke:#000000;" x="305.1" xlink:href="#md78d7ad6ab" y="91.444625"/>
     <use style="fill-opacity:0;stroke:#000000;" x="305.1" xlink:href="#md78d7ad6ab" y="174.255889"/>
     <use style="fill-opacity:0;stroke:#000000;" x="305.1" xlink:href="#md78d7ad6ab" y="136.20747"/>
     <use style="fill-opacity:0;stroke:#000000;" x="305.1" xlink:href="#md78d7ad6ab" y="111.587905"/>
     <use style="fill-opacity:0;stroke:#000000;" x="305.1" xlink:href="#md78d7ad6ab" y="129.493043"/>
     <use style="fill-opacity:0;stroke:#000000;" x="305.1" xlink:href="#md78d7ad6ab" y="138.445613"/>
     <use style="fill-opacity:0;stroke:#000000;" x="305.1" xlink:href="#md78d7ad6ab" y="165.30332"/>
     <use style="fill-opacity:0;stroke:#000000;" x="305.1" xlink:href="#md78d7ad6ab" y="91.444625"/>
     <use style="fill-opacity:0;stroke:#000000;" x="305.1" xlink:href="#md78d7ad6ab" y="91.444625"/>
     <use style="fill-opacity:0;stroke:#000000;" x="305.1" xlink:href="#md78d7ad6ab" y="172.017747"/>
     <use style="fill-opacity:0;stroke:#000000;" x="305.1" xlink:href="#md78d7ad6ab" y="147.398182"/>
     <use style="fill-opacity:0;stroke:#000000;" x="305.1" xlink:href="#md78d7ad6ab" y="102.635336"/>
     <use style="fill-opacity:0;stroke:#000000;" x="305.1" xlink:href="#md78d7ad6ab" y="86.96834"/>
     <use style="fill-opacity:0;stroke:#000000;" x="305.1" xlink:href="#md78d7ad6ab" y="207.828024"/>
     <use style="fill-opacity:0;stroke:#000000;" x="305.1" xlink:href="#md78d7ad6ab" y="84.730198"/>
     <use style="fill-opacity:0;stroke:#000000;" x="305.1" xlink:href="#md78d7ad6ab" y="89.206482"/>
     <use style="fill-opacity:0;stroke:#000000;" x="305.1" xlink:href="#md78d7ad6ab" y="98.159051"/>
     <use style="fill-opacity:0;stroke:#000000;" x="305.1" xlink:href="#md78d7ad6ab" y="84.730198"/>
     <use style="fill-opacity:0;stroke:#000000;" x="305.1" xlink:href="#md78d7ad6ab" y="138.445613"/>
     <use style="fill-opacity:0;stroke:#000000;" x="305.1" xlink:href="#md78d7ad6ab" y="136.20747"/>
     <use style="fill-opacity:0;stroke:#000000;" x="305.1" xlink:href="#md78d7ad6ab" y="102.635336"/>
     <use style="fill-opacity:0;stroke:#000000;" x="305.1" xlink:href="#md78d7ad6ab" y="169.779605"/>
     <use style="fill-opacity:0;stroke:#000000;" x="305.1" xlink:href="#md78d7ad6ab" y="180.970316"/>
     <use style="fill-opacity:0;stroke:#000000;" x="305.1" xlink:href="#md78d7ad6ab" y="169.779605"/>
     <use style="fill-opacity:0;stroke:#000000;" x="305.1" xlink:href="#md78d7ad6ab" y="160.827036"/>
     <use style="fill-opacity:0;stroke:#000000;" x="305.1" xlink:href="#md78d7ad6ab" y="91.444625"/>
     <use style="fill-opacity:0;stroke:#000000;" x="305.1" xlink:href="#md78d7ad6ab" y="140.683755"/>
     <use style="fill-opacity:0;stroke:#000000;" x="305.1" xlink:href="#md78d7ad6ab" y="93.682767"/>
     <use style="fill-opacity:0;stroke:#000000;" x="305.1" xlink:href="#md78d7ad6ab" y="104.873478"/>
     <use style="fill-opacity:0;stroke:#000000;" x="305.1" xlink:href="#md78d7ad6ab" y="169.779605"/>
     <use style="fill-opacity:0;stroke:#000000;" x="305.1" xlink:href="#md78d7ad6ab" y="91.444625"/>
     <use style="fill-opacity:0;stroke:#000000;" x="305.1" xlink:href="#md78d7ad6ab" y="104.873478"/>
     <use style="fill-opacity:0;stroke:#000000;" x="305.1" xlink:href="#md78d7ad6ab" y="84.730198"/>
     <use style="fill-opacity:0;stroke:#000000;" x="305.1" xlink:href="#md78d7ad6ab" y="216.780593"/>
     <use style="fill-opacity:0;stroke:#000000;" x="305.1" xlink:href="#md78d7ad6ab" y="160.827036"/>
     <use style="fill-opacity:0;stroke:#000000;" x="305.1" xlink:href="#md78d7ad6ab" y="127.254901"/>
     <use style="fill-opacity:0;stroke:#000000;" x="305.1" xlink:href="#md78d7ad6ab" y="89.206482"/>
     <use style="fill-opacity:0;stroke:#000000;" x="305.1" xlink:href="#md78d7ad6ab" y="100.397194"/>
     <use style="fill-opacity:0;stroke:#000000;" x="305.1" xlink:href="#md78d7ad6ab" y="95.920909"/>
     <use style="fill-opacity:0;stroke:#000000;" x="305.1" xlink:href="#md78d7ad6ab" y="104.873478"/>
     <use style="fill-opacity:0;stroke:#000000;" x="305.1" xlink:href="#md78d7ad6ab" y="116.06419"/>
     <use style="fill-opacity:0;stroke:#000000;" x="305.1" xlink:href="#md78d7ad6ab" y="131.731186"/>
     <use style="fill-opacity:0;stroke:#000000;" x="305.1" xlink:href="#md78d7ad6ab" y="93.682767"/>
     <use style="fill-opacity:0;stroke:#000000;" x="305.1" xlink:href="#md78d7ad6ab" y="214.542451"/>
     <use style="fill-opacity:0;stroke:#000000;" x="305.1" xlink:href="#md78d7ad6ab" y="91.444625"/>
     <use style="fill-opacity:0;stroke:#000000;" x="305.1" xlink:href="#md78d7ad6ab" y="111.587905"/>
     <use style="fill-opacity:0;stroke:#000000;" x="305.1" xlink:href="#md78d7ad6ab" y="102.635336"/>
     <use style="fill-opacity:0;stroke:#000000;" x="305.1" xlink:href="#md78d7ad6ab" y="125.016759"/>
     <use style="fill-opacity:0;stroke:#000000;" x="305.1" xlink:href="#md78d7ad6ab" y="147.398182"/>
     <use style="fill-opacity:0;stroke:#000000;" x="305.1" xlink:href="#md78d7ad6ab" y="111.587905"/>
     <use style="fill-opacity:0;stroke:#000000;" x="305.1" xlink:href="#md78d7ad6ab" y="138.445613"/>
     <use style="fill-opacity:0;stroke:#000000;" x="305.1" xlink:href="#md78d7ad6ab" y="120.540474"/>
     <use style="fill-opacity:0;stroke:#000000;" x="305.1" xlink:href="#md78d7ad6ab" y="125.016759"/>
     <use style="fill-opacity:0;stroke:#000000;" x="305.1" xlink:href="#md78d7ad6ab" y="100.397194"/>
     <use style="fill-opacity:0;stroke:#000000;" x="305.1" xlink:href="#md78d7ad6ab" y="183.208458"/>
     <use style="fill-opacity:0;stroke:#000000;" x="305.1" xlink:href="#md78d7ad6ab" y="93.682767"/>
     <use style="fill-opacity:0;stroke:#000000;" x="305.1" xlink:href="#md78d7ad6ab" y="102.635336"/>
     <use style="fill-opacity:0;stroke:#000000;" x="305.1" xlink:href="#md78d7ad6ab" y="109.349763"/>
     <use style="fill-opacity:0;stroke:#000000;" x="305.1" xlink:href="#md78d7ad6ab" y="84.730198"/>
     <use style="fill-opacity:0;stroke:#000000;" x="305.1" xlink:href="#md78d7ad6ab" y="122.778617"/>
     <use style="fill-opacity:0;stroke:#000000;" x="305.1" xlink:href="#md78d7ad6ab" y="84.730198"/>
     <use style="fill-opacity:0;stroke:#000000;" x="305.1" xlink:href="#md78d7ad6ab" y="129.493043"/>
     <use style="fill-opacity:0;stroke:#000000;" x="305.1" xlink:href="#md78d7ad6ab" y="91.444625"/>
     <use style="fill-opacity:0;stroke:#000000;" x="305.1" xlink:href="#md78d7ad6ab" y="147.398182"/>
     <use style="fill-opacity:0;stroke:#000000;" x="305.1" xlink:href="#md78d7ad6ab" y="163.065178"/>
     <use style="fill-opacity:0;stroke:#000000;" x="305.1" xlink:href="#md78d7ad6ab" y="98.159051"/>
     <use style="fill-opacity:0;stroke:#000000;" x="305.1" xlink:href="#md78d7ad6ab" y="95.920909"/>
     <use style="fill-opacity:0;stroke:#000000;" x="305.1" xlink:href="#md78d7ad6ab" y="154.112609"/>
     <use style="fill-opacity:0;stroke:#000000;" x="305.1" xlink:href="#md78d7ad6ab" y="185.446601"/>
     <use style="fill-opacity:0;stroke:#000000;" x="305.1" xlink:href="#md78d7ad6ab" y="100.397194"/>
     <use style="fill-opacity:0;stroke:#000000;" x="305.1" xlink:href="#md78d7ad6ab" y="145.16004"/>
     <use style="fill-opacity:0;stroke:#000000;" x="305.1" xlink:href="#md78d7ad6ab" y="95.920909"/>
     <use style="fill-opacity:0;stroke:#000000;" x="305.1" xlink:href="#md78d7ad6ab" y="149.636324"/>
     <use style="fill-opacity:0;stroke:#000000;" x="305.1" xlink:href="#md78d7ad6ab" y="125.016759"/>
     <use style="fill-opacity:0;stroke:#000000;" x="305.1" xlink:href="#md78d7ad6ab" y="100.397194"/>
     <use style="fill-opacity:0;stroke:#000000;" x="305.1" xlink:href="#md78d7ad6ab" y="140.683755"/>
     <use style="fill-opacity:0;stroke:#000000;" x="305.1" xlink:href="#md78d7ad6ab" y="100.397194"/>
     <use style="fill-opacity:0;stroke:#000000;" x="305.1" xlink:href="#md78d7ad6ab" y="89.206482"/>
     <use style="fill-opacity:0;stroke:#000000;" x="305.1" xlink:href="#md78d7ad6ab" y="194.39917"/>
     <use style="fill-opacity:0;stroke:#000000;" x="305.1" xlink:href="#md78d7ad6ab" y="100.397194"/>
     <use style="fill-opacity:0;stroke:#000000;" x="305.1" xlink:href="#md78d7ad6ab" y="131.731186"/>
     <use style="fill-opacity:0;stroke:#000000;" x="305.1" xlink:href="#md78d7ad6ab" y="145.16004"/>
     <use style="fill-opacity:0;stroke:#000000;" x="305.1" xlink:href="#md78d7ad6ab" y="120.540474"/>
     <use style="fill-opacity:0;stroke:#000000;" x="305.1" xlink:href="#md78d7ad6ab" y="89.206482"/>
     <use style="fill-opacity:0;stroke:#000000;" x="305.1" xlink:href="#md78d7ad6ab" y="136.20747"/>
     <use style="fill-opacity:0;stroke:#000000;" x="305.1" xlink:href="#md78d7ad6ab" y="86.96834"/>
     <use style="fill-opacity:0;stroke:#000000;" x="305.1" xlink:href="#md78d7ad6ab" y="91.444625"/>
     <use style="fill-opacity:0;stroke:#000000;" x="305.1" xlink:href="#md78d7ad6ab" y="163.065178"/>
     <use style="fill-opacity:0;stroke:#000000;" x="305.1" xlink:href="#md78d7ad6ab" y="145.16004"/>
     <use style="fill-opacity:0;stroke:#000000;" x="305.1" xlink:href="#md78d7ad6ab" y="187.684743"/>
     <use style="fill-opacity:0;stroke:#000000;" x="305.1" xlink:href="#md78d7ad6ab" y="187.684743"/>
     <use style="fill-opacity:0;stroke:#000000;" x="305.1" xlink:href="#md78d7ad6ab" y="91.444625"/>
     <use style="fill-opacity:0;stroke:#000000;" x="305.1" xlink:href="#md78d7ad6ab" y="187.684743"/>
     <use style="fill-opacity:0;stroke:#000000;" x="305.1" xlink:href="#md78d7ad6ab" y="151.874466"/>
     <use style="fill-opacity:0;stroke:#000000;" x="305.1" xlink:href="#md78d7ad6ab" y="129.493043"/>
     <use style="fill-opacity:0;stroke:#000000;" x="305.1" xlink:href="#md78d7ad6ab" y="131.731186"/>
     <use style="fill-opacity:0;stroke:#000000;" x="305.1" xlink:href="#md78d7ad6ab" y="176.494032"/>
     <use style="fill-opacity:0;stroke:#000000;" x="305.1" xlink:href="#md78d7ad6ab" y="107.111621"/>
     <use style="fill-opacity:0;stroke:#000000;" x="305.1" xlink:href="#md78d7ad6ab" y="131.731186"/>
     <use style="fill-opacity:0;stroke:#000000;" x="305.1" xlink:href="#md78d7ad6ab" y="147.398182"/>
     <use style="fill-opacity:0;stroke:#000000;" x="305.1" xlink:href="#md78d7ad6ab" y="145.16004"/>
     <use style="fill-opacity:0;stroke:#000000;" x="305.1" xlink:href="#md78d7ad6ab" y="104.873478"/>
     <use style="fill-opacity:0;stroke:#000000;" x="305.1" xlink:href="#md78d7ad6ab" y="154.112609"/>
     <use style="fill-opacity:0;stroke:#000000;" x="305.1" xlink:href="#md78d7ad6ab" y="100.397194"/>
     <use style="fill-opacity:0;stroke:#000000;" x="305.1" xlink:href="#md78d7ad6ab" y="131.731186"/>
     <use style="fill-opacity:0;stroke:#000000;" x="305.1" xlink:href="#md78d7ad6ab" y="131.731186"/>
    </g>
   </g>
   <g id="line2d_20">
    <path clip-path="url(#pb4468aef26)" d="M 112.59 116.254432 
L 162.81 116.254432 
" style="fill:none;stroke:#ff7f0e;stroke-linecap:square;"/>
   </g>
   <g id="line2d_21">
    <path clip-path="url(#pb4468aef26)" d="M 112.59 117.544577 
L 162.81 117.544577 
" style="fill:none;stroke:#2ca02c;stroke-dasharray:3.7,1.6;stroke-dashoffset:0;"/>
   </g>
   <g id="line2d_22">
    <path clip-path="url(#pb4468aef26)" d="M 279.99 53.396206 
L 330.21 53.396206 
" style="fill:none;stroke:#ff7f0e;stroke-linecap:square;"/>
   </g>
   <g id="line2d_23">
    <path clip-path="url(#pb4468aef26)" d="M 279.99 61.768644 
L 330.21 61.768644 
" style="fill:none;stroke:#2ca02c;stroke-dasharray:3.7,1.6;stroke-dashoffset:0;"/>
   </g>
   <g id="patch_3">
    <path d="M 54 252 
L 54 34.56 
" style="fill:none;stroke:#000000;stroke-linecap:square;stroke-linejoin:miter;stroke-width:0.8;"/>
   </g>
   <g id="patch_4">
    <path d="M 388.8 252 
L 388.8 34.56 
" style="fill:none;stroke:#000000;stroke-linecap:square;stroke-linejoin:miter;stroke-width:0.8;"/>
   </g>
   <g id="patch_5">
    <path d="M 54 252 
L 388.8 252 
" style="fill:none;stroke:#000000;stroke-linecap:square;stroke-linejoin:miter;stroke-width:0.8;"/>
   </g>
   <g id="patch_6">
    <path d="M 54 34.56 
L 388.8 34.56 
" style="fill:none;stroke:#000000;stroke-linecap:square;stroke-linejoin:miter;stroke-width:0.8;"/>
   </g>
   <g id="text_9">
    <!-- bangumi与bilibili评分箱线图 -->
    <defs>
     <path d="M 83.59375 1.5625 
Q 82.421875 -4.6875 76.953125 -6.640625 
Q 71.484375 -8.59375 60.9375 -9.375 
Q 60.546875 -5.859375 57.03125 -0.390625 
Q 68.359375 -0.78125 71.484375 0 
Q 74.609375 0.78125 75.578125 3.515625 
Q 76.5625 6.25 79.6875 36.71875 
L 17.578125 36.71875 
Q 22.65625 67.96875 23.046875 81.25 
Q 28.125 80.46875 32.421875 80.078125 
Q 30.859375 75.390625 29.6875 66.796875 
L 76.5625 66.796875 
Q 84.375 66.796875 90.625 67.1875 
L 90.625 59.765625 
Q 84.375 60.15625 77.34375 60.15625 
L 28.90625 60.15625 
L 26.5625 42.96875 
L 88.671875 42.96875 
Q 87.890625 38.28125 87.109375 32.03125 
z
M 57.421875 21.09375 
Q 64.453125 21.09375 70.3125 21.484375 
L 70.3125 13.671875 
Q 64.453125 14.0625 60.15625 14.0625 
L 22.65625 14.0625 
Q 15.625 14.0625 7.8125 13.671875 
L 7.8125 21.484375 
Q 15.625 21.09375 22.65625 21.09375 
z
" id="SimHei-19982"/>
     <path d="M 92.1875 70.3125 
Q 84.375 70.703125 69.140625 70.703125 
L 69.140625 33.203125 
L 81.25 33.203125 
Q 89.84375 33.203125 96.484375 33.59375 
L 96.484375 26.171875 
Q 90.234375 26.5625 81.25 26.5625 
L 69.140625 26.5625 
L 69.140625 3.125 
Q 69.140625 -4.6875 69.53125 -10.546875 
L 60.9375 -10.546875 
Q 61.328125 -3.125 61.328125 3.125 
L 61.328125 26.5625 
L 48.046875 26.5625 
Q 41.015625 26.5625 34.765625 26.171875 
L 34.765625 33.59375 
Q 41.015625 33.203125 48.046875 33.203125 
L 61.328125 33.203125 
L 61.328125 70.703125 
Q 44.53125 70.703125 37.890625 70.3125 
L 37.890625 77.734375 
Q 44.53125 77.34375 51.5625 77.34375 
L 77.34375 77.34375 
Q 84.375 77.34375 92.1875 77.734375 
z
M 13.671875 3.515625 
Q 17.96875 6.25 17.96875 10.15625 
L 17.96875 44.921875 
Q 7.421875 44.921875 3.515625 44.53125 
L 3.515625 52.34375 
Q 7.421875 51.953125 12.890625 51.953125 
L 25.78125 51.953125 
Q 25.390625 44.140625 25.390625 36.328125 
L 25.390625 11.328125 
Q 29.6875 15.234375 35.546875 21.484375 
Q 37.109375 19.140625 39.84375 14.84375 
Q 32.8125 8.59375 28.3125 4.6875 
Q 23.828125 0.78125 19.53125 -3.90625 
Q 17.1875 0.390625 13.671875 3.515625 
z
M 75.390625 41.015625 
Q 81.25 53.515625 83.984375 63.28125 
Q 88.28125 62.109375 93.359375 60.15625 
Q 92.578125 59.375 89.0625 51.953125 
Q 85.546875 44.53125 82.8125 38.28125 
Q 78.90625 40.234375 75.390625 41.015625 
z
M 44.53125 62.5 
Q 51.171875 49.609375 53.90625 42.1875 
Q 49.21875 40.625 46.09375 38.671875 
Q 42.1875 51.5625 37.5 59.375 
Q 41.40625 60.546875 44.53125 62.5 
z
M 17.1875 81.640625 
Q 21.875 77.734375 30.859375 66.796875 
Q 27.34375 64.453125 24.609375 61.71875 
Q 20.3125 67.96875 11.71875 76.5625 
Q 14.0625 78.515625 17.1875 81.640625 
z
" id="SimHei-35780"/>
     <path d="M 89.84375 52.34375 
Q 89.453125 45.703125 89.453125 41.015625 
L 89.453125 11.71875 
Q 89.453125 3.125 89.84375 -8.984375 
L 82.03125 -8.984375 
L 82.03125 -1.171875 
L 55.078125 -1.171875 
L 55.078125 -8.984375 
L 47.65625 -8.984375 
Q 48.046875 1.953125 48.046875 9.375 
L 48.046875 40.234375 
Q 48.046875 45.3125 47.65625 52.34375 
L 89.84375 52.34375 
z
M 22.65625 41.015625 
Q 22.65625 48.828125 22.265625 55.078125 
L 30.46875 55.078125 
Q 30.078125 50 30.078125 41.015625 
Q 36.328125 41.015625 42.578125 41.40625 
L 42.578125 35.15625 
Q 37.109375 35.546875 30.078125 35.546875 
L 30.078125 26.171875 
Q 32.03125 27.34375 35.546875 30.46875 
Q 42.578125 22.265625 46.09375 17.1875 
Q 42.578125 15.625 39.84375 12.890625 
Q 37.109375 17.96875 30.078125 25.390625 
L 30.078125 8.203125 
Q 30.078125 0 30.46875 -9.765625 
L 22.265625 -9.765625 
Q 22.65625 0 22.65625 8.203125 
L 22.65625 22.65625 
Q 21.09375 18.75 18.546875 13.671875 
Q 16.015625 8.59375 9.375 0.390625 
Q 7.03125 4.6875 3.90625 7.03125 
Q 8.984375 12.109375 13.671875 19.53125 
Q 18.359375 26.953125 20.703125 35.546875 
Q 13.671875 35.546875 7.03125 35.15625 
L 7.03125 41.40625 
Q 13.671875 41.015625 22.65625 41.015625 
z
M 52.34375 67.1875 
Q 44.140625 67.578125 36.328125 67.578125 
Q 37.5 63.28125 39.84375 56.640625 
Q 35.546875 55.46875 32.03125 53.90625 
Q 30.859375 60.546875 28.90625 67.578125 
L 24.21875 67.578125 
Q 20.703125 62.5 17.578125 59.171875 
Q 14.453125 55.859375 10.9375 53.125 
Q 8.203125 56.25 3.90625 58.59375 
Q 12.5 64.453125 17.1875 71.28125 
Q 21.875 78.125 23.4375 82.421875 
Q 27.734375 80.859375 33.203125 79.296875 
Q 30.859375 76.953125 28.515625 73.4375 
L 40.625 73.4375 
Q 47.65625 73.4375 52.34375 73.828125 
z
M 83.984375 57.421875 
Q 80.078125 55.859375 76.5625 54.296875 
Q 75 59.765625 73.046875 66.796875 
L 65.234375 66.796875 
Q 58.984375 57.03125 56.25 53.90625 
Q 51.953125 56.25 48.828125 57.8125 
Q 53.90625 62.890625 57.8125 69.140625 
Q 61.71875 75.390625 64.453125 82.03125 
Q 68.75 80.859375 73.4375 79.296875 
Q 70.703125 76.5625 68.75 72.65625 
L 83.984375 72.65625 
Q 87.5 72.65625 94.921875 73.046875 
L 94.921875 66.40625 
Q 83.984375 66.796875 80.078125 66.796875 
Q 81.25 63.28125 83.984375 57.421875 
z
M 82.03125 4.6875 
L 82.03125 16.015625 
L 55.078125 16.015625 
L 55.078125 4.6875 
z
M 82.03125 37.109375 
L 82.03125 46.875 
L 55.078125 46.875 
L 55.078125 37.109375 
z
M 82.03125 21.875 
L 82.03125 31.25 
L 55.078125 31.25 
L 55.078125 21.875 
z
" id="SimHei-31665"/>
     <path d="M 53.90625 67.1875 
Q 53.90625 73.046875 52.734375 80.078125 
Q 57.8125 79.6875 63.28125 78.90625 
Q 62.109375 76.5625 61.71875 71.28125 
Q 61.328125 66.015625 61.71875 56.25 
L 75 58.59375 
Q 81.640625 60.15625 88.28125 62.109375 
L 89.84375 54.6875 
Q 83.203125 53.90625 76.171875 52.734375 
L 62.109375 50 
Q 62.109375 43.75 62.890625 39.0625 
L 78.125 41.796875 
Q 85.9375 43.359375 92.96875 45.703125 
L 94.140625 38.28125 
Q 87.109375 37.109375 79.296875 35.546875 
L 64.0625 32.8125 
Q 64.84375 25 67.96875 18.359375 
Q 71.484375 21.09375 74.796875 24.609375 
Q 78.125 28.125 80.859375 32.421875 
Q 86.71875 27.734375 89.84375 26.171875 
Q 84.765625 23.828125 81.828125 20.890625 
Q 78.90625 17.96875 72.265625 11.71875 
Q 76.953125 3.90625 80.65625 1.75 
Q 84.375 -0.390625 85.9375 1.5625 
Q 87.5 3.515625 88.671875 9.765625 
Q 92.1875 7.03125 96.875 5.46875 
Q 90.234375 -11.71875 82.421875 -8.390625 
Q 74.609375 -5.078125 66.015625 7.03125 
Q 60.546875 2.734375 55.265625 -0.96875 
Q 50 -4.6875 42.1875 -8.59375 
Q 40.234375 -4.6875 36.328125 -1.5625 
Q 44.140625 1.171875 49.609375 4.296875 
Q 55.078125 7.421875 62.109375 13.28125 
Q 58.59375 21.09375 57.03125 31.640625 
Q 45.3125 29.6875 40.625 28.125 
L 39.453125 35.546875 
Q 44.140625 35.546875 55.46875 37.890625 
Q 54.6875 44.140625 54.6875 48.4375 
Q 44.140625 46.09375 40.234375 44.921875 
L 38.671875 52.34375 
Q 42.578125 52.34375 53.90625 54.6875 
z
M 30.46875 76.171875 
Q 26.5625 72.65625 22.84375 66.203125 
Q 19.140625 59.765625 12.890625 50.390625 
Q 22.265625 50.78125 25.78125 50.78125 
Q 29.296875 56.640625 32.03125 63.671875 
Q 35.9375 60.9375 40.625 59.375 
Q 36.71875 55.46875 32.609375 48.828125 
Q 28.515625 42.1875 18.359375 26.171875 
Q 28.90625 26.953125 37.109375 27.734375 
Q 35.9375 23.828125 35.9375 21.09375 
Q 33.203125 21.09375 23.828125 20.109375 
Q 14.453125 19.140625 8.59375 17.578125 
Q 8.203125 21.484375 6.25 25.78125 
Q 10.9375 26.953125 14.84375 32.03125 
Q 18.75 37.109375 23.046875 44.921875 
Q 10.15625 44.140625 6.640625 41.796875 
Q 5.46875 46.09375 3.125 50.390625 
Q 8.203125 53.90625 12.890625 61.90625 
Q 17.578125 69.921875 21.484375 80.46875 
Q 25.390625 77.734375 30.46875 76.171875 
z
M 40.234375 13.671875 
Q 39.84375 9.375 40.234375 7.03125 
Q 30.46875 5.078125 22.65625 3.125 
Q 14.84375 1.171875 8.203125 -1.171875 
Q 7.03125 3.125 3.90625 7.421875 
Q 14.84375 8.59375 20.703125 9.5625 
Q 26.5625 10.546875 40.234375 13.671875 
z
M 75.78125 62.890625 
Q 73.046875 67.1875 68.359375 73.046875 
L 74.609375 76.171875 
Q 76.171875 74.21875 82.421875 66.796875 
Q 78.515625 65.234375 75.78125 62.890625 
z
" id="SimHei-32447"/>
     <path d="M 90.625 77.734375 
Q 90.234375 67.96875 90.234375 56.25 
L 90.234375 14.453125 
Q 90.234375 2.34375 90.625 -9.375 
L 82.8125 -9.375 
L 82.8125 -4.296875 
L 17.578125 -4.296875 
L 17.578125 -10.15625 
L 9.765625 -10.15625 
Q 10.15625 1.953125 10.15625 14.84375 
L 10.15625 56.25 
Q 10.15625 67.578125 9.765625 77.734375 
L 90.625 77.734375 
z
M 82.8125 2.34375 
L 82.8125 71.484375 
L 17.578125 71.484375 
L 17.578125 2.34375 
z
M 50.390625 66.40625 
Q 48.046875 64.0625 46.09375 61.328125 
L 72.265625 61.328125 
Q 70.703125 57.8125 67.1875 52.734375 
Q 63.671875 47.65625 56.25 40.625 
Q 67.96875 34.765625 79.296875 33.59375 
Q 76.5625 30.078125 74.609375 26.171875 
Q 60.15625 30.46875 50.390625 36.71875 
Q 39.0625 29.296875 26.171875 25.78125 
Q 25 29.296875 21.875 32.421875 
Q 34.375 34.375 44.921875 40.625 
Q 39.453125 45.703125 37.109375 49.21875 
Q 33.59375 45.3125 29.6875 41.40625 
Q 26.953125 44.53125 23.828125 46.09375 
Q 30.46875 51.5625 35.15625 58.390625 
Q 39.84375 65.234375 41.796875 69.921875 
Q 45.703125 67.96875 50.390625 66.40625 
z
M 38.28125 19.921875 
Q 55.46875 14.84375 64.0625 11.328125 
Q 62.109375 8.203125 60.15625 4.6875 
Q 44.140625 11.328125 35.546875 13.28125 
Q 37.109375 16.40625 38.28125 19.921875 
z
M 45.703125 32.03125 
Q 58.984375 26.5625 63.671875 25 
Q 61.71875 21.875 60.15625 17.96875 
Q 46.875 24.21875 42.1875 25.78125 
Q 44.140625 28.515625 45.703125 32.03125 
z
M 41.015625 53.90625 
Q 46.875 47.265625 51.171875 44.53125 
Q 56.25 48.4375 60.546875 55.078125 
L 41.796875 55.078125 
L 41.015625 53.90625 
z
" id="SimHei-22270"/>
    </defs>
    <g transform="translate(153.9 28.56)scale(0.1 -0.1)">
     <use xlink:href="#SimHei-98"/>
     <use x="50" xlink:href="#SimHei-97"/>
     <use x="100" xlink:href="#SimHei-110"/>
     <use x="150" xlink:href="#SimHei-103"/>
     <use x="200" xlink:href="#SimHei-117"/>
     <use x="250" xlink:href="#SimHei-109"/>
     <use x="300" xlink:href="#SimHei-105"/>
     <use x="350" xlink:href="#SimHei-19982"/>
     <use x="450" xlink:href="#SimHei-98"/>
     <use x="500" xlink:href="#SimHei-105"/>
     <use x="550" xlink:href="#SimHei-108"/>
     <use x="600" xlink:href="#SimHei-105"/>
     <use x="650" xlink:href="#SimHei-98"/>
     <use x="700" xlink:href="#SimHei-105"/>
     <use x="750" xlink:href="#SimHei-108"/>
     <use x="800" xlink:href="#SimHei-105"/>
     <use x="850" xlink:href="#SimHei-35780"/>
     <use x="950" xlink:href="#SimHei-20998"/>
     <use x="1050" xlink:href="#SimHei-31665"/>
     <use x="1150" xlink:href="#SimHei-32447"/>
     <use x="1250" xlink:href="#SimHei-22270"/>
    </g>
   </g>
  </g>
 </g>
 <defs>
  <clipPath id="pb4468aef26">
   <rect height="217.44" width="334.8" x="54" y="34.56"/>
  </clipPath>
 </defs>
</svg>
