<?xml version="1.0" encoding="utf-8" standalone="no"?>
<!DOCTYPE svg PUBLIC "-//W3C//DTD SVG 1.1//EN"
  "http://www.w3.org/Graphics/SVG/1.1/DTD/svg11.dtd">
<!-- Created with matplotlib (https://matplotlib.org/) -->
<svg height="360pt" version="1.1" viewBox="0 0 432 360" width="432pt" xmlns="http://www.w3.org/2000/svg" xmlns:xlink="http://www.w3.org/1999/xlink">
 <defs>
  <style type="text/css">
*{stroke-linecap:butt;stroke-linejoin:round;}
  </style>
 </defs>
 <g id="figure_1">
  <g id="patch_1">
   <path d="M 0 360 
L 432 360 
L 432 0 
L 0 0 
z
" style="fill:#ffffff;"/>
  </g>
  <g id="axes_1">
   <g id="patch_2">
    <path d="M 232.690472 49.125462 
C 219.445432 47.974908 206.102005 48.855685 193.123118 51.737238 
C 180.144232 54.61879 167.681737 59.467403 156.168 66.114862 
L 221.4 179.1 
L 232.690472 49.125462 
z
" style="fill:#1f77b4;stroke:#008000;stroke-linejoin:miter;stroke-width:1.5;"/>
   </g>
   <g id="patch_3">
    <path d="M 301.223282 75.905529 
C 291.373217 68.286278 280.482794 62.116431 268.883913 57.584021 
C 257.285033 53.051611 245.096734 50.203154 232.690472 49.125462 
L 221.4 179.1 
L 301.223282 75.905529 
z
" style="fill:#ff7f0e;stroke:#008000;stroke-linejoin:miter;stroke-width:1.5;"/>
   </g>
   <g id="patch_4">
    <path d="M 343.84111 134.055247 
C 339.630925 122.611077 333.83698 111.813482 326.628649 101.978105 
C 319.420318 92.142727 310.868532 83.36635 301.223282 75.905529 
L 221.4 179.1 
L 343.84111 134.055247 
z
" style="fill:#2ca02c;stroke:#008000;stroke-linejoin:miter;stroke-width:1.5;"/>
   </g>
   <g id="patch_5">
    <path d="M 349.378332 204.445645 
C 351.697012 192.737884 352.398183 180.767126 351.462202 168.868728 
C 350.526221 156.97033 347.961911 145.256449 343.84111 134.055247 
L 221.4 179.1 
L 349.378332 204.445645 
z
" style="fill:#d62728;stroke:#008000;stroke-linejoin:miter;stroke-width:1.5;"/>
   </g>
   <g id="patch_6">
    <path d="M 321.00921 263.354736 
C 328.132122 254.933753 334.158503 245.6434 338.944003 235.706207 
C 343.729503 225.769013 347.235607 215.264959 349.378332 204.445645 
L 221.4 179.1 
L 321.00921 263.354736 
z
" style="fill:#9467bd;stroke:#008000;stroke-linejoin:miter;stroke-width:1.5;"/>
   </g>
   <g id="patch_7">
    <path d="M 272.995283 298.928136 
C 282.234891 294.949769 290.983433 289.916059 299.066379 283.927424 
C 307.149325 277.93879 314.512566 271.03532 321.00921 263.354736 
L 221.4 179.1 
L 272.995283 298.928136 
z
" style="fill:#8c564b;stroke:#008000;stroke-linejoin:miter;stroke-width:1.5;"/>
   </g>
   <g id="patch_8">
    <path d="M 223.815382 309.541639 
C 232.25875 309.385294 240.667027 308.40952 248.921802 306.628058 
C 257.176577 304.846597 265.238917 302.267851 272.995283 298.928136 
L 221.4 179.1 
L 223.815382 309.541639 
z
" style="fill:#e377c2;stroke:#008000;stroke-linejoin:miter;stroke-width:1.5;"/>
   </g>
   <g id="patch_9">
    <path d="M 180.460062 302.974036 
C 187.436453 305.279709 194.595169 306.991917 201.859818 308.09239 
C 209.124467 309.192862 216.469114 309.67767 223.815382 309.541639 
L 221.4 179.1 
L 180.460062 302.974036 
z
" style="fill:#7f7f7f;stroke:#008000;stroke-linejoin:miter;stroke-width:1.5;"/>
   </g>
   <g id="patch_10">
    <path d="M 143.578445 283.812277 
C 149.164956 287.964139 155.074778 291.662282 161.251298 294.871279 
C 167.427819 298.080276 173.851251 300.789847 180.460062 302.974036 
L 221.4 179.1 
L 143.578445 283.812277 
z
" style="fill:#bcbd22;stroke:#008000;stroke-linejoin:miter;stroke-width:1.5;"/>
   </g>
   <g id="patch_11">
    <path d="M 117.092573 257.463358 
C 120.847136 262.460959 124.956018 267.182271 129.387458 271.590796 
C 133.818898 275.999322 138.561447 280.083673 143.578445 283.812277 
L 221.4 179.1 
L 117.092573 257.463358 
z
" style="fill:#17becf;stroke:#008000;stroke-linejoin:miter;stroke-width:1.5;"/>
   </g>
   <g id="patch_12">
    <path d="M 99.84889 226.493912 
C 102.002496 232.017263 104.530076 237.387405 107.414052 242.566991 
C 110.298028 247.746576 113.531698 252.72357 117.092573 257.463358 
L 221.4 179.1 
L 99.84889 226.493912 
z
" style="fill:#1f77b4;stroke:#008000;stroke-linejoin:miter;stroke-width:1.5;"/>
   </g>
   <g id="patch_13">
    <path d="M 91.656768 192.794858 
C 92.265532 198.562202 93.258174 204.282543 94.628086 209.917806 
C 95.997999 215.553069 97.742136 221.090724 99.84889 226.493912 
L 221.4 179.1 
L 91.656768 192.794858 
z
" style="fill:#ff7f0e;stroke:#008000;stroke-linejoin:miter;stroke-width:1.5;"/>
   </g>
   <g id="patch_14">
    <path d="M 92.632635 158.12809 
C 91.700392 163.852055 91.150848 169.631816 90.98766 175.428903 
C 90.824473 181.225991 91.048005 187.027514 91.656768 192.794858 
L 221.4 179.1 
L 92.632635 158.12809 
z
" style="fill:#2ca02c;stroke:#008000;stroke-linejoin:miter;stroke-width:1.5;"/>
   </g>
   <g id="patch_15">
    <path d="M 101.763738 127.06136 
C 99.604834 132.024655 97.756887 137.117491 96.230611 142.310336 
C 94.704335 147.503181 93.502687 152.785977 92.632635 158.12809 
L 221.4 179.1 
L 101.763738 127.06136 
z
" style="fill:#d62728;stroke:#008000;stroke-linejoin:miter;stroke-width:1.5;"/>
   </g>
   <g id="patch_16">
    <path d="M 116.400273 101.666721 
C 113.493951 105.607702 110.811808 109.709185 108.366581 113.951696 
C 105.921353 118.194208 103.716917 122.571023 101.763738 127.06136 
L 221.4 179.1 
L 116.400273 101.666721 
z
" style="fill:#9467bd;stroke:#008000;stroke-linejoin:miter;stroke-width:1.5;"/>
   </g>
   <g id="patch_17">
    <path d="M 134.591909 81.707954 
C 131.225191 84.708798 128.01634 87.882199 124.978281 91.215374 
C 121.940223 94.548549 119.077042 98.037016 116.400273 101.666721 
L 221.4 179.1 
L 134.591909 81.707954 
z
" style="fill:#8c564b;stroke:#008000;stroke-linejoin:miter;stroke-width:1.5;"/>
   </g>
   <g id="patch_18">
    <path d="M 156.167997 66.114863 
C 152.318067 68.337621 148.584262 70.755705 144.981196 73.35965 
C 141.378129 75.963594 137.91051 78.749998 134.591909 81.707954 
L 221.4 179.1 
L 156.167997 66.114863 
z
" style="fill:#e377c2;stroke:#008000;stroke-linejoin:miter;stroke-width:1.5;"/>
   </g>
   <g id="matplotlib.axis_1"/>
   <g id="matplotlib.axis_2"/>
   <g id="text_1">
    <!-- サンライズ -->
    <defs>
     <path d="M 30.859375 70.703125 
L 39.0625 70.703125 
L 39.0625 53.125 
L 58.203125 53.125 
L 58.203125 70.703125 
L 66.40625 70.703125 
L 66.40625 53.125 
L 85.546875 53.125 
L 85.546875 44.921875 
L 66.40625 44.921875 
Q 66.796875 32.421875 62.890625 20.3125 
Q 58.203125 7.8125 39.0625 -0.390625 
L 33.59375 6.640625 
Q 42.96875 10.9375 50.78125 17.96875 
Q 58.984375 29.296875 58.203125 44.921875 
L 39.0625 44.921875 
L 39.0625 23.4375 
L 30.859375 23.4375 
L 30.859375 44.921875 
L 12.5 44.921875 
L 12.5 53.125 
L 30.46875 53.125 
z
" id="SimHei-12469"/>
     <path d="M 23.4375 67.578125 
Q 32.03125 63.671875 40.234375 57.421875 
L 41.015625 56.640625 
L 36.328125 49.21875 
Q 30.46875 54.296875 21.875 58.984375 
L 18.75 60.15625 
z
M 73.4375 59.375 
L 80.46875 53.90625 
Q 75.78125 43.359375 67.96875 32.421875 
Q 55.46875 15.234375 22.265625 6.25 
L 19.140625 14.84375 
Q 38.671875 18.75 53.90625 30.078125 
Q 63.671875 38.28125 73.4375 59.375 
z
" id="SimHei-12531"/>
     <path d="M 25.390625 68.359375 
L 73.828125 68.359375 
L 73.828125 59.765625 
L 25.390625 59.765625 
z
M 19.53125 48.4375 
L 80.078125 48.4375 
Q 78.125 17.578125 55.078125 6.640625 
Q 46.875 2.34375 37.5 0 
L 33.203125 8.203125 
Q 48.828125 10.546875 62.109375 22.65625 
Q 66.015625 27.734375 69.140625 36.71875 
L 69.921875 39.84375 
L 19.53125 39.84375 
z
" id="SimHei-12521"/>
     <path d="M 71.09375 73.4375 
L 79.296875 68.359375 
Q 76.171875 62.890625 62.890625 48.828125 
L 62.890625 -1.171875 
L 54.296875 -1.171875 
L 54.296875 41.796875 
Q 44.921875 33.59375 30.46875 25 
L 26.171875 22.65625 
L 19.921875 30.078125 
Q 50.78125 44.921875 69.921875 71.484375 
z
" id="SimHei-12452"/>
     <path d="M 88.671875 80.46875 
Q 91.796875 76.171875 94.140625 71.09375 
L 94.921875 69.53125 
L 88.671875 67.96875 
Q 86.328125 73.4375 82.421875 78.515625 
z
M 75 76.171875 
Q 78.125 71.875 80.46875 67.1875 
L 80.859375 65.234375 
L 75 63.671875 
Q 72.65625 69.53125 68.75 74.21875 
z
M 21.09375 63.671875 
L 64.84375 63.28125 
L 70.703125 58.59375 
Q 66.40625 48.4375 56.25 33.59375 
Q 61.71875 29.6875 80.46875 9.375 
L 81.640625 7.03125 
L 75 0.390625 
Q 65.234375 15.234375 51.171875 27.34375 
Q 47.265625 21.875 31.640625 8.59375 
L 21.875 2.34375 
L 20.703125 1.953125 
L 15.234375 9.765625 
Q 41.796875 23.046875 57.03125 51.5625 
L 58.984375 55.078125 
L 21.09375 55.078125 
z
" id="SimHei-12474"/>
    </defs>
    <g transform="translate(140.29543 41.832993)scale(0.1 -0.1)">
     <use xlink:href="#SimHei-12469"/>
     <use x="100" xlink:href="#SimHei-12531"/>
     <use x="200" xlink:href="#SimHei-12521"/>
     <use x="300" xlink:href="#SimHei-12452"/>
     <use x="400" xlink:href="#SimHei-12474"/>
    </g>
   </g>
   <g id="text_2">
    <!-- 9.7% -->
    <defs>
     <path d="M 12.5 1.171875 
Q 21.09375 15.625 26.5625 27.34375 
Q 16.796875 25.78125 10.34375 29.875 
Q 3.90625 33.984375 2.53125 41.015625 
Q 1.171875 48.046875 2.734375 53.703125 
Q 4.296875 59.375 7.609375 63.078125 
Q 10.9375 66.796875 15.625 68.359375 
Q 20.3125 69.921875 24.015625 69.921875 
Q 27.734375 69.921875 31.640625 68.359375 
Q 35.546875 66.796875 38.671875 63.671875 
Q 41.796875 60.546875 42.96875 57.21875 
Q 44.140625 53.90625 44.140625 48.625 
Q 44.140625 43.359375 40.234375 35.15625 
Q 36.328125 26.953125 21.09375 1.171875 
z
M 9.765625 50 
Q 10.9375 39.84375 14.640625 36.515625 
Q 18.359375 33.203125 22.65625 33.59375 
Q 26.953125 33.984375 29.484375 35.9375 
Q 32.03125 37.890625 34.375 42.578125 
Q 35.9375 48.4375 35.15625 52.53125 
Q 34.375 56.640625 31.046875 59.375 
Q 27.734375 62.109375 23.828125 62.109375 
Q 21.484375 62.5 17.765625 60.9375 
Q 14.0625 59.375 11.90625 54.6875 
Q 9.765625 50 10.9375 39.84375 
z
" id="SimHei-57"/>
     <path d="M 16.796875 1.953125 
L 7.8125 1.953125 
L 7.8125 10.546875 
L 16.796875 10.546875 
z
" id="SimHei-46"/>
     <path d="M 13.28125 2.34375 
Q 20.3125 32.03125 37.890625 61.328125 
L 4.296875 61.328125 
L 4.296875 68.359375 
L 46.09375 68.359375 
L 46.09375 61.71875 
Q 27.734375 32.03125 21.875 2.34375 
L 13.28125 2.34375 
z
" id="SimHei-55"/>
     <path d="M 21.875 51.953125 
Q 21.875 40.625 18.546875 37.5 
Q 15.234375 34.375 12.109375 34.375 
Q 8.984375 34.375 5.65625 37.5 
Q 2.34375 40.625 2.34375 51.953125 
Q 2.34375 63.28125 5.65625 66.40625 
Q 8.984375 69.53125 12.109375 69.53125 
Q 15.234375 69.53125 18.546875 66.40625 
Q 21.875 63.28125 21.875 51.953125 
z
M 41.015625 68.359375 
L 10.9375 1.171875 
L 7.8125 2.34375 
L 37.890625 69.53125 
z
M 46.484375 18.75 
Q 46.484375 7.421875 43.15625 4.296875 
Q 39.84375 1.171875 36.71875 1.171875 
Q 33.59375 1.171875 30.265625 4.296875 
Q 26.953125 7.421875 26.953125 18.75 
Q 26.953125 30.078125 30.265625 33.203125 
Q 33.59375 36.328125 36.71875 36.328125 
Q 39.84375 36.328125 43.15625 33.203125 
Q 46.484375 30.078125 46.484375 18.75 
z
M 15.625 51.953125 
Q 15.625 58.984375 14.84375 61.328125 
Q 14.0625 63.671875 12.109375 63.671875 
Q 10.15625 63.671875 9.375 61.328125 
Q 8.59375 58.984375 8.59375 51.953125 
Q 8.59375 44.921875 9.375 42.578125 
Q 10.15625 40.234375 12.109375 40.234375 
Q 14.0625 40.234375 14.84375 42.578125 
Q 15.625 44.921875 15.625 51.953125 
z
M 40.234375 18.75 
Q 40.234375 25.78125 39.453125 28.125 
Q 38.671875 30.46875 36.71875 30.46875 
Q 34.765625 30.46875 33.984375 28.125 
Q 33.203125 25.78125 33.203125 18.75 
Q 33.203125 11.71875 33.984375 9.375 
Q 34.765625 7.03125 36.71875 7.03125 
Q 38.671875 7.03125 39.453125 9.375 
Q 40.234375 11.71875 40.234375 18.75 
z
" id="SimHei-37"/>
    </defs>
    <g transform="translate(197.261559 118.231119)scale(0.1 -0.1)">
     <use xlink:href="#SimHei-57"/>
     <use x="50" xlink:href="#SimHei-46"/>
     <use x="100" xlink:href="#SimHei-55"/>
     <use x="150" xlink:href="#SimHei-37"/>
    </g>
   </g>
   <g id="text_3">
    <!-- J.C.STAFF -->
    <defs>
     <path d="M 43.75 24.21875 
Q 43.75 12.109375 38.46875 6.640625 
Q 33.203125 1.171875 24.21875 1.171875 
Q 16.015625 1.171875 10.546875 6.4375 
Q 5.078125 11.71875 5.078125 23.4375 
L 5.078125 27.734375 
L 14.0625 27.734375 
L 14.0625 22.265625 
Q 14.0625 15.234375 16.984375 12.296875 
Q 19.921875 9.375 23.828125 9.375 
Q 29.296875 9.375 32.03125 12.5 
Q 34.765625 15.625 34.765625 23.828125 
L 34.765625 68.75 
L 43.75 68.75 
z
" id="SimHei-74"/>
     <path d="M 46.484375 28.515625 
Q 46.09375 13.671875 40.234375 7.421875 
Q 34.375 1.171875 26.171875 1.171875 
Q 16.796875 1.171875 10.15625 8.78125 
Q 3.515625 16.40625 3.515625 33.203125 
Q 3.515625 51.5625 9.953125 60.546875 
Q 16.40625 69.53125 26.5625 69.53125 
Q 35.15625 69.53125 40.8125 63.078125 
Q 46.484375 56.640625 46.09375 44.921875 
L 37.5 44.921875 
Q 37.5 53.515625 34.765625 57.8125 
Q 32.03125 62.109375 26.5625 62.109375 
Q 20.3125 62.109375 16.59375 55.65625 
Q 12.890625 49.21875 12.890625 33.984375 
Q 12.890625 19.921875 16.59375 14.25 
Q 20.3125 8.59375 26.171875 8.59375 
Q 30.46875 8.59375 33.984375 12.6875 
Q 37.5 16.796875 37.5 28.515625 
z
" id="SimHei-67"/>
     <path d="M 45.3125 20.703125 
Q 45.3125 11.71875 39.640625 6.4375 
Q 33.984375 1.171875 24.21875 1.171875 
Q 14.453125 1.171875 8.984375 6.640625 
Q 3.515625 12.109375 3.515625 20.3125 
L 3.515625 23.046875 
L 12.5 23.046875 
L 12.5 20.703125 
Q 12.5 14.84375 16.015625 11.71875 
Q 19.53125 8.59375 24.21875 8.59375 
Q 30.46875 8.59375 33.390625 11.90625 
Q 36.328125 15.234375 36.328125 19.921875 
Q 36.328125 23.828125 32.8125 27.140625 
Q 29.296875 30.46875 22.65625 33.203125 
Q 13.28125 36.71875 9.171875 41.015625 
Q 5.078125 45.3125 5.078125 51.171875 
Q 5.078125 59.375 10.734375 64.453125 
Q 16.40625 69.53125 24.21875 69.53125 
Q 34.375 69.53125 38.859375 63.46875 
Q 43.359375 57.421875 43.359375 50.390625 
L 34.375 50.390625 
Q 34.765625 54.6875 32.03125 58.203125 
Q 29.296875 61.71875 24.21875 61.71875 
Q 19.53125 61.71875 16.796875 59.171875 
Q 14.0625 56.640625 14.0625 52.34375 
Q 14.0625 48.828125 16.203125 46.28125 
Q 18.359375 43.75 27.34375 40.234375 
Q 35.9375 36.71875 40.625 31.828125 
Q 45.3125 26.953125 45.3125 20.703125 
z
" id="SimHei-83"/>
     <path d="M 44.53125 61.328125 
L 28.90625 61.328125 
L 28.90625 1.953125 
L 19.921875 1.953125 
L 19.921875 61.328125 
L 4.296875 61.328125 
L 4.296875 68.75 
L 44.53125 68.75 
z
" id="SimHei-84"/>
     <path d="M 48.046875 1.953125 
L 38.671875 1.953125 
L 33.203125 22.65625 
L 16.015625 22.65625 
L 10.546875 1.953125 
L 1.171875 1.953125 
L 20.703125 69.53125 
L 28.515625 69.53125 
z
M 31.25 30.078125 
L 25 53.90625 
L 24.21875 53.90625 
L 17.96875 30.078125 
z
" id="SimHei-65"/>
     <path d="M 45.703125 61.328125 
L 13.671875 61.328125 
L 13.671875 39.453125 
L 37.890625 39.453125 
L 37.890625 32.03125 
L 13.671875 32.03125 
L 13.671875 1.953125 
L 4.6875 1.953125 
L 4.6875 68.75 
L 45.703125 68.75 
z
" id="SimHei-70"/>
    </defs>
    <g transform="translate(273.632305 48.244923)scale(0.1 -0.1)">
     <use xlink:href="#SimHei-74"/>
     <use x="50" xlink:href="#SimHei-46"/>
     <use x="100" xlink:href="#SimHei-67"/>
     <use x="150" xlink:href="#SimHei-46"/>
     <use x="200" xlink:href="#SimHei-83"/>
     <use x="250" xlink:href="#SimHei-84"/>
     <use x="300" xlink:href="#SimHei-65"/>
     <use x="350" xlink:href="#SimHei-70"/>
     <use x="400" xlink:href="#SimHei-70"/>
    </g>
   </g>
   <g id="text_4">
    <!-- 9.1% -->
    <defs>
     <path d="M 21.875 56.25 
Q 16.796875 51.171875 8.984375 46.484375 
L 8.984375 53.90625 
Q 18.75 60.546875 25 69.53125 
L 29.6875 69.53125 
L 29.6875 2.34375 
L 21.875 2.34375 
z
" id="SimHei-49"/>
    </defs>
    <g transform="translate(235.141957 121.15451)scale(0.1 -0.1)">
     <use xlink:href="#SimHei-57"/>
     <use x="50" xlink:href="#SimHei-46"/>
     <use x="100" xlink:href="#SimHei-49"/>
     <use x="150" xlink:href="#SimHei-37"/>
    </g>
   </g>
   <g id="text_5">
    <!-- 東映アニメーション -->
    <defs>
     <path d="M 16.015625 23.4375 
Q 16.40625 28.90625 16.796875 33.203125 
L 16.796875 42.578125 
Q 16.796875 50.78125 16.40625 56.25 
L 45.3125 56.25 
L 45.3125 64.84375 
L 24.609375 64.84375 
Q 16.40625 64.84375 8.203125 64.453125 
L 8.203125 71.875 
Q 16.40625 71.484375 24.21875 71.484375 
L 45.3125 71.484375 
Q 45.3125 73.828125 44.921875 81.25 
L 53.515625 81.25 
Q 53.125 73.828125 53.125 71.484375 
L 75.390625 71.484375 
Q 82.03125 71.484375 92.1875 71.875 
L 92.1875 64.453125 
Q 82.421875 64.84375 75.390625 64.84375 
L 53.125 64.84375 
L 53.125 56.25 
L 83.203125 56.25 
Q 82.8125 50.390625 82.8125 43.75 
L 82.8125 33.59375 
Q 82.8125 28.515625 83.203125 23.4375 
L 61.71875 23.4375 
Q 63.671875 19.921875 66.796875 16.40625 
Q 69.921875 12.890625 73.625 10.15625 
Q 77.34375 7.421875 83.203125 5.265625 
Q 89.0625 3.125 94.921875 1.953125 
Q 92.96875 0 91.796875 -2.34375 
Q 90.625 -4.6875 89.84375 -7.421875 
Q 80.46875 -3.90625 74.796875 -0.78125 
Q 69.140625 2.34375 64.84375 6.25 
Q 60.546875 10.15625 58 14.640625 
Q 55.46875 19.140625 53.515625 23.828125 
L 53.125 23.828125 
L 53.125 3.90625 
Q 53.125 -3.515625 53.515625 -9.765625 
L 44.921875 -9.765625 
Q 45.3125 -3.515625 45.3125 3.90625 
L 45.3125 23.828125 
L 44.53125 23.828125 
Q 40.625 14.0625 36.328125 9.5625 
Q 32.03125 5.078125 25.78125 0.78125 
Q 19.53125 -3.515625 9.765625 -7.421875 
Q 8.203125 -3.125 4.6875 0 
Q 9.375 1.171875 14.84375 3.90625 
Q 20.3125 6.640625 24.40625 9.765625 
Q 28.515625 12.890625 31.4375 16.40625 
Q 34.375 19.921875 35.9375 23.4375 
L 16.015625 23.4375 
z
M 74.609375 29.296875 
L 74.609375 36.71875 
L 53.125 36.71875 
L 53.125 29.296875 
z
M 74.609375 42.578125 
L 74.609375 50 
L 53.125 50 
L 53.125 42.578125 
z
M 45.3125 29.296875 
L 45.3125 36.71875 
L 25 36.71875 
L 25 29.296875 
z
M 45.3125 42.578125 
L 45.3125 50 
L 25 50 
L 25 42.578125 
z
" id="SimHei-26481"/>
     <path d="M 35.9375 33.59375 
Q 39.0625 33.203125 41.40625 33.203125 
Q 41.40625 57.421875 41.015625 64.84375 
L 60.9375 64.84375 
Q 60.9375 76.953125 60.546875 80.859375 
L 70.3125 80.078125 
Q 68.359375 78.125 68.15625 74.40625 
Q 67.96875 70.703125 67.96875 64.84375 
L 88.671875 64.84375 
Q 88.28125 55.46875 88.28125 33.203125 
Q 92.1875 33.203125 96.484375 33.59375 
L 96.484375 26.5625 
Q 89.0625 26.953125 69.921875 26.953125 
Q 73.046875 17.1875 80.265625 8.984375 
Q 87.5 0.78125 96.875 -3.515625 
Q 91.796875 -5.46875 89.453125 -10.15625 
Q 83.203125 -6.640625 75.78125 1.953125 
Q 68.359375 10.546875 64.84375 23.046875 
Q 60.9375 9.765625 53.703125 1.5625 
Q 46.484375 -6.640625 39.0625 -10.546875 
Q 35.15625 -6.25 32.03125 -4.6875 
Q 42.578125 0 49.796875 9.171875 
Q 57.03125 18.359375 58.984375 26.953125 
Q 39.453125 26.953125 35.9375 26.5625 
z
M 34.375 71.09375 
Q 33.984375 62.890625 33.984375 53.90625 
L 33.984375 25.390625 
Q 33.984375 16.40625 34.375 6.640625 
L 26.171875 6.640625 
L 26.171875 12.5 
L 13.28125 12.5 
L 13.28125 3.125 
L 5.46875 3.125 
Q 5.859375 12.890625 5.859375 22.65625 
L 5.859375 53.90625 
Q 5.859375 62.890625 5.46875 71.09375 
L 34.375 71.09375 
z
M 80.46875 33.203125 
L 80.46875 58.203125 
L 67.96875 58.203125 
Q 67.96875 46.09375 67.1875 33.203125 
z
M 49.21875 58.203125 
L 49.21875 33.203125 
L 60.15625 33.203125 
Q 60.9375 45.703125 60.9375 58.203125 
z
M 26.171875 18.75 
L 26.171875 39.0625 
L 13.28125 39.0625 
L 13.28125 18.75 
z
M 26.171875 45.3125 
L 26.171875 64.84375 
L 13.28125 64.84375 
L 13.28125 45.3125 
z
" id="SimHei-26144"/>
     <path d="M 17.96875 66.40625 
L 78.90625 66.40625 
L 83.984375 60.15625 
L 52.734375 33.59375 
Q 51.171875 15.625 31.640625 1.953125 
L 29.6875 0.78125 
L 23.046875 7.03125 
Q 44.140625 17.1875 44.921875 36.71875 
L 45.3125 48.4375 
L 53.515625 48.4375 
L 53.90625 44.53125 
L 71.09375 57.8125 
L 17.96875 57.8125 
z
" id="SimHei-12450"/>
     <path d="M 25.390625 58.203125 
L 73.828125 58.203125 
L 73.828125 50 
L 25.390625 50 
z
M 16.015625 20.703125 
L 83.203125 20.703125 
L 83.203125 12.109375 
L 16.015625 12.109375 
z
" id="SimHei-12491"/>
     <path d="M 69.53125 70.703125 
L 78.125 67.1875 
Q 73.828125 53.90625 66.796875 39.453125 
L 65.625 37.109375 
L 78.90625 25.78125 
L 72.265625 18.75 
L 61.328125 29.296875 
Q 51.171875 14.0625 26.5625 -0.390625 
L 21.484375 6.640625 
Q 32.8125 12.5 46.484375 25 
Q 51.5625 29.296875 55.078125 35.15625 
Q 47.65625 41.015625 35.9375 48.828125 
L 41.015625 55.078125 
L 58.984375 42.578125 
Q 62.890625 48.4375 69.53125 70.3125 
z
" id="SimHei-12513"/>
     <path d="M 87.109375 41.40625 
L 87.109375 32.03125 
L 17.1875 32.03125 
Q 15.234375 30.46875 14.25 30.65625 
Q 13.28125 30.859375 13.28125 36.328125 
L 13.28125 41.40625 
z
" id="SimHei-12540"/>
     <path d="M 32.8125 71.875 
L 45.3125 66.015625 
L 50 62.5 
L 45.3125 55.078125 
Q 38.671875 60.15625 30.078125 64.0625 
L 28.125 64.84375 
z
M 76.5625 50.78125 
L 82.421875 44.140625 
Q 61.71875 12.5 26.171875 4.296875 
L 25.78125 4.296875 
L 22.65625 14.453125 
Q 56.25 20.703125 73.828125 46.875 
z
M 25.390625 50 
Q 32.421875 47.265625 40.234375 41.796875 
L 41.40625 40.625 
L 36.71875 33.59375 
Q 29.296875 38.671875 20.3125 42.578125 
z
" id="SimHei-12471"/>
     <path d="M 31.640625 41.796875 
L 68.75 41.796875 
L 68.75 -0.78125 
L 31.640625 -0.78125 
L 31.640625 5.078125 
L 62.890625 5.078125 
L 62.890625 17.578125 
L 32.03125 17.578125 
L 32.03125 23.4375 
L 62.890625 23.4375 
L 62.890625 35.9375 
L 31.640625 35.9375 
z
" id="SimHei-12519"/>
    </defs>
    <g transform="translate(337.151514 97.605759)scale(0.1 -0.1)">
     <use xlink:href="#SimHei-26481"/>
     <use x="100" xlink:href="#SimHei-26144"/>
     <use x="200" xlink:href="#SimHei-12450"/>
     <use x="300" xlink:href="#SimHei-12491"/>
     <use x="400" xlink:href="#SimHei-12513"/>
     <use x="500" xlink:href="#SimHei-12540"/>
     <use x="600" xlink:href="#SimHei-12471"/>
     <use x="700" xlink:href="#SimHei-12519"/>
     <use x="800" xlink:href="#SimHei-12531"/>
    </g>
   </g>
   <g id="text_6">
    <!-- 8.9% -->
    <defs>
     <path d="M 2.734375 16.796875 
Q 2.734375 26.171875 5.078125 30.65625 
Q 7.421875 35.15625 12.890625 37.890625 
Q 8.203125 40.625 6.640625 43.9375 
Q 5.078125 47.265625 4.875 51.5625 
Q 4.6875 55.859375 6.046875 58.984375 
Q 7.421875 62.109375 10.15625 64.84375 
Q 12.890625 67.578125 16.203125 68.546875 
Q 19.53125 69.53125 23.4375 69.53125 
Q 27.34375 69.53125 30.46875 68.75 
Q 33.59375 67.96875 37.109375 65.421875 
Q 40.625 62.890625 42.1875 58.203125 
Q 43.75 53.515625 41.984375 47.265625 
Q 40.234375 41.015625 32.8125 37.5 
Q 39.453125 35.546875 42.1875 31.4375 
Q 44.921875 27.34375 44.921875 21.484375 
Q 44.921875 15.625 43.15625 12.109375 
Q 41.40625 8.59375 39.25 6.25 
Q 37.109375 3.90625 33.390625 2.53125 
Q 29.6875 1.171875 24.015625 1.171875 
Q 18.359375 1.171875 14.25 2.53125 
Q 10.15625 3.90625 7.421875 6.640625 
Q 4.6875 9.375 3.703125 13.078125 
Q 2.734375 16.796875 2.734375 26.171875 
z
M 10.9375 26.5625 
Q 10.546875 17.1875 12.296875 13.671875 
Q 14.0625 10.15625 18.75 9.171875 
Q 23.4375 8.203125 28.515625 9.375 
Q 33.59375 10.546875 35.546875 14.84375 
Q 37.5 19.140625 36.90625 23.4375 
Q 36.328125 27.734375 32.03125 30.65625 
Q 27.734375 33.59375 22.65625 33.203125 
Q 17.578125 32.8125 14.25 29.6875 
Q 10.9375 26.5625 10.546875 17.1875 
z
M 12.109375 56.25 
Q 12.109375 48.4375 14.84375 44.921875 
Q 17.578125 41.40625 23.4375 41.40625 
Q 29.296875 41.40625 32.21875 44.921875 
Q 35.15625 48.4375 34.953125 53.3125 
Q 34.765625 58.203125 31.4375 60.546875 
Q 28.125 62.890625 22.453125 62.5 
Q 16.796875 62.109375 14.453125 59.171875 
Q 12.109375 56.25 12.109375 48.4375 
z
" id="SimHei-56"/>
    </defs>
    <g transform="translate(264.014324 143.351552)scale(0.1 -0.1)">
     <use xlink:href="#SimHei-56"/>
     <use x="50" xlink:href="#SimHei-46"/>
     <use x="100" xlink:href="#SimHei-57"/>
     <use x="150" xlink:href="#SimHei-37"/>
    </g>
   </g>
   <g id="text_7">
    <!-- MADHOUSE -->
    <defs>
     <path d="M 45.703125 1.953125 
L 37.890625 1.953125 
L 37.890625 49.609375 
L 37.109375 49.609375 
L 27.734375 1.953125 
L 21.484375 1.953125 
L 12.109375 49.609375 
L 11.328125 49.609375 
L 11.328125 1.953125 
L 3.515625 1.953125 
L 3.515625 68.75 
L 15.625 68.75 
L 24.21875 24.609375 
L 25 24.609375 
L 33.59375 68.75 
L 45.703125 68.75 
z
" id="SimHei-77"/>
     <path d="M 45.703125 35.15625 
Q 45.703125 17.1875 38.078125 9.5625 
Q 30.46875 1.953125 17.578125 1.953125 
L 4.296875 1.953125 
L 4.296875 68.75 
L 17.578125 68.75 
Q 32.03125 68.75 38.859375 60.9375 
Q 45.703125 53.125 45.703125 35.15625 
z
M 36.328125 35.15625 
Q 36.328125 49.609375 31.640625 55.46875 
Q 26.953125 61.328125 17.578125 61.328125 
L 13.28125 61.328125 
L 13.28125 9.375 
L 17.578125 9.375 
Q 26.953125 9.375 31.640625 15.03125 
Q 36.328125 20.703125 36.328125 35.15625 
z
" id="SimHei-68"/>
     <path d="M 44.53125 1.953125 
L 35.546875 1.953125 
L 35.546875 33.203125 
L 13.28125 33.203125 
L 13.28125 1.953125 
L 4.296875 1.953125 
L 4.296875 68.75 
L 13.28125 68.75 
L 13.28125 40.625 
L 35.546875 40.625 
L 35.546875 68.75 
L 44.53125 68.75 
z
" id="SimHei-72"/>
     <path d="M 46.09375 35.546875 
Q 46.09375 17.1875 40.421875 9.171875 
Q 34.765625 1.171875 24.609375 1.171875 
Q 14.453125 1.171875 8.59375 9.171875 
Q 2.734375 17.1875 2.734375 35.546875 
Q 2.734375 53.90625 8.59375 61.71875 
Q 14.453125 69.53125 24.609375 69.53125 
Q 34.765625 69.53125 40.421875 61.71875 
Q 46.09375 53.90625 46.09375 35.546875 
z
M 36.71875 35.546875 
Q 36.71875 51.953125 33.203125 57.03125 
Q 29.6875 62.109375 24.609375 62.109375 
Q 19.53125 62.109375 15.8125 57.03125 
Q 12.109375 51.953125 12.109375 35.546875 
Q 12.109375 19.140625 15.8125 13.859375 
Q 19.53125 8.59375 24.609375 8.59375 
Q 29.6875 8.59375 33.203125 13.859375 
Q 36.71875 19.140625 36.71875 35.546875 
z
" id="SimHei-79"/>
     <path d="M 44.921875 21.484375 
Q 44.921875 12.109375 40.03125 6.640625 
Q 35.15625 1.171875 24.609375 1.171875 
Q 14.0625 1.171875 9.171875 6.640625 
Q 4.296875 12.109375 4.296875 21.484375 
L 4.296875 68.75 
L 13.28125 68.75 
L 13.28125 21.484375 
Q 13.28125 14.84375 16.40625 11.71875 
Q 19.53125 8.59375 24.609375 8.59375 
Q 29.6875 8.59375 32.8125 11.71875 
Q 35.9375 14.84375 35.9375 21.484375 
L 35.9375 68.75 
L 44.921875 68.75 
z
" id="SimHei-85"/>
     <path d="M 45.3125 1.953125 
L 5.46875 1.953125 
L 5.46875 68.75 
L 43.359375 68.75 
L 43.359375 61.328125 
L 14.453125 61.328125 
L 14.453125 40.625 
L 41.015625 40.625 
L 41.015625 33.203125 
L 14.453125 33.203125 
L 14.453125 9.375 
L 45.3125 9.375 
z
" id="SimHei-69"/>
    </defs>
    <g transform="translate(364.468422 170.658101)scale(0.1 -0.1)">
     <use xlink:href="#SimHei-77"/>
     <use x="50" xlink:href="#SimHei-65"/>
     <use x="100" xlink:href="#SimHei-68"/>
     <use x="150" xlink:href="#SimHei-72"/>
     <use x="200" xlink:href="#SimHei-79"/>
     <use x="250" xlink:href="#SimHei-85"/>
     <use x="300" xlink:href="#SimHei-83"/>
     <use x="350" xlink:href="#SimHei-69"/>
    </g>
   </g>
   <g id="text_8">
    <!-- 8.7% -->
    <g transform="translate(276.431101 176.796864)scale(0.1 -0.1)">
     <use xlink:href="#SimHei-56"/>
     <use x="50" xlink:href="#SimHei-46"/>
     <use x="100" xlink:href="#SimHei-55"/>
     <use x="150" xlink:href="#SimHei-37"/>
    </g>
   </g>
   <g id="text_9">
    <!-- Production I.G -->
    <defs>
     <path d="M 46.09375 48.4375 
Q 46.09375 39.0625 40.625 33.59375 
Q 35.15625 28.125 25.390625 28.125 
L 14.0625 28.125 
L 14.0625 1.953125 
L 5.078125 1.953125 
L 5.078125 68.75 
L 25.390625 68.75 
Q 35.15625 68.75 40.625 63.28125 
Q 46.09375 57.8125 46.09375 48.4375 
z
M 37.109375 48.4375 
Q 37.109375 55.859375 33.59375 58.59375 
Q 30.078125 61.328125 23.046875 61.328125 
L 14.0625 61.328125 
L 14.0625 35.546875 
L 23.046875 35.546875 
Q 30.078125 35.546875 33.59375 38.28125 
Q 37.109375 41.015625 37.109375 48.4375 
z
" id="SimHei-80"/>
     <path d="M 39.0625 37.890625 
Q 31.640625 39.0625 26.5625 35.734375 
Q 21.484375 32.421875 17.96875 24.21875 
L 17.96875 1.953125 
L 10.15625 1.953125 
L 10.15625 45.703125 
L 17.96875 45.703125 
L 17.96875 34.375 
Q 21.484375 40.625 26.75 43.546875 
Q 32.03125 46.484375 39.0625 46.484375 
z
" id="SimHei-114"/>
     <path d="M 45.703125 23.828125 
Q 45.703125 13.671875 39.453125 7.421875 
Q 33.203125 1.171875 24.609375 1.171875 
Q 16.015625 1.171875 9.765625 7.421875 
Q 3.515625 13.671875 3.515625 23.828125 
Q 3.515625 33.984375 9.765625 40.234375 
Q 16.015625 46.484375 24.609375 46.484375 
Q 33.203125 46.484375 39.453125 40.234375 
Q 45.703125 33.984375 45.703125 23.828125 
z
M 37.109375 23.828125 
Q 37.109375 31.640625 33.203125 35.546875 
Q 29.296875 39.453125 24.609375 39.453125 
Q 19.921875 39.453125 16.015625 35.546875 
Q 12.109375 31.640625 12.109375 23.828125 
Q 12.109375 16.015625 16.015625 12.109375 
Q 19.921875 8.203125 24.609375 8.203125 
Q 29.296875 8.203125 33.203125 12.109375 
Q 37.109375 16.015625 37.109375 23.828125 
z
" id="SimHei-111"/>
     <path d="M 42.96875 1.953125 
L 35.15625 1.953125 
L 35.15625 7.8125 
Q 32.8125 4.296875 29.6875 2.734375 
Q 26.5625 1.171875 22.265625 1.171875 
Q 14.453125 1.171875 8.984375 6.828125 
Q 3.515625 12.5 3.515625 23.828125 
Q 3.515625 35.15625 8.984375 41.015625 
Q 14.453125 46.875 22.265625 46.875 
Q 26.5625 46.875 29.6875 45.109375 
Q 32.8125 43.359375 35.15625 39.84375 
L 35.15625 68.75 
L 42.96875 68.75 
z
M 35.15625 23.828125 
Q 35.15625 31.25 31.828125 35.546875 
Q 28.515625 39.84375 23.828125 39.84375 
Q 17.96875 39.84375 15.03125 35.546875 
Q 12.109375 31.25 12.109375 23.828125 
Q 12.109375 16.40625 15.03125 12.296875 
Q 17.96875 8.203125 23.828125 8.203125 
Q 28.515625 8.203125 31.828125 12.296875 
Q 35.15625 16.40625 35.15625 23.828125 
z
" id="SimHei-100"/>
     <path d="M 43.75 1.953125 
L 35.9375 1.953125 
L 35.9375 10.15625 
Q 32.8125 5.859375 29.09375 3.515625 
Q 25.390625 1.171875 19.53125 1.171875 
Q 12.5 1.171875 8.984375 5.078125 
Q 5.46875 8.984375 5.46875 14.84375 
L 5.46875 45.703125 
L 13.28125 45.703125 
L 13.28125 17.578125 
Q 13.28125 12.890625 15.625 10.15625 
Q 17.96875 7.421875 21.875 7.421875 
Q 26.953125 7.421875 31.4375 12.6875 
Q 35.9375 17.96875 35.9375 25.78125 
L 35.9375 45.703125 
L 43.75 45.703125 
z
" id="SimHei-117"/>
     <path d="M 44.53125 19.53125 
Q 44.53125 11.328125 38.859375 6.25 
Q 33.203125 1.171875 24.609375 1.171875 
Q 16.015625 1.171875 9.765625 7.21875 
Q 3.515625 13.28125 3.515625 23.828125 
Q 3.515625 34.375 9.765625 40.421875 
Q 16.015625 46.484375 24.609375 46.484375 
Q 33.203125 46.484375 38.28125 41.984375 
Q 43.359375 37.5 43.359375 31.25 
L 34.765625 31.25 
Q 34.375 35.9375 31.4375 37.6875 
Q 28.515625 39.453125 24.609375 39.453125 
Q 19.921875 39.453125 16.015625 35.734375 
Q 12.109375 32.03125 12.109375 23.828125 
Q 12.109375 15.625 16.015625 11.90625 
Q 19.921875 8.203125 24.609375 8.203125 
Q 29.6875 8.203125 32.8125 10.9375 
Q 35.9375 13.671875 35.9375 19.53125 
z
" id="SimHei-99"/>
     <path d="M 42.96875 3.125 
Q 41.015625 2.34375 38.46875 1.75 
Q 35.9375 1.171875 31.640625 1.171875 
Q 24.609375 1.171875 20.3125 5.078125 
Q 16.015625 8.984375 16.015625 16.015625 
L 16.015625 39.453125 
L 2.734375 39.453125 
L 2.734375 45.703125 
L 16.015625 45.703125 
L 16.015625 60.9375 
L 23.828125 60.9375 
L 23.828125 45.703125 
L 39.84375 45.703125 
L 39.84375 39.453125 
L 23.828125 39.453125 
L 23.828125 15.625 
Q 23.828125 12.5 25.390625 10.34375 
Q 26.953125 8.203125 31.25 8.203125 
Q 35.546875 8.203125 38.28125 8.984375 
Q 41.015625 9.765625 42.96875 10.9375 
z
" id="SimHei-116"/>
     <path d="M 28.125 58.203125 
L 20.3125 58.203125 
L 20.3125 68.359375 
L 28.125 68.359375 
z
M 28.125 1.953125 
L 20.3125 1.953125 
L 20.3125 45.703125 
L 28.125 45.703125 
z
" id="SimHei-105"/>
     <path d="M 43.75 1.953125 
L 35.9375 1.953125 
L 35.9375 30.078125 
Q 35.9375 34.765625 33.59375 37.5 
Q 31.25 40.234375 27.34375 40.234375 
Q 22.265625 40.234375 17.765625 34.953125 
Q 13.28125 29.6875 13.28125 21.875 
L 13.28125 1.953125 
L 5.46875 1.953125 
L 5.46875 45.703125 
L 13.28125 45.703125 
L 13.28125 37.5 
Q 16.40625 41.796875 20.109375 44.140625 
Q 23.828125 46.484375 29.6875 46.484375 
Q 36.71875 46.484375 40.234375 42.578125 
Q 43.75 38.671875 43.75 32.8125 
z
" id="SimHei-110"/>
     <path id="SimHei-32"/>
     <path d="M 28.90625 1.953125 
L 19.921875 1.953125 
L 19.921875 68.75 
L 28.90625 68.75 
z
" id="SimHei-73"/>
     <path d="M 44.53125 1.171875 
L 37.890625 1.171875 
L 36.71875 6.640625 
Q 35.15625 4.296875 31.828125 2.734375 
Q 28.515625 1.171875 24.609375 1.171875 
Q 16.40625 1.171875 9.953125 8.78125 
Q 3.515625 16.40625 3.515625 33.203125 
Q 3.515625 51.5625 9.375 60.546875 
Q 15.234375 69.53125 25.390625 69.53125 
Q 34.375 69.53125 39.453125 62.890625 
Q 44.53125 56.25 44.53125 45.703125 
L 35.9375 45.703125 
Q 35.9375 53.90625 33.203125 58 
Q 30.46875 62.109375 25.390625 62.109375 
Q 19.140625 62.109375 16.015625 55.65625 
Q 12.890625 49.21875 12.890625 33.984375 
Q 12.890625 19.53125 16.796875 14.0625 
Q 20.703125 8.59375 25.78125 8.59375 
Q 30.859375 8.59375 33.78125 12.296875 
Q 36.71875 16.015625 36.71875 23.828125 
L 36.71875 28.125 
L 24.609375 28.125 
L 24.609375 35.546875 
L 44.53125 35.546875 
z
" id="SimHei-71"/>
    </defs>
    <g transform="translate(350.698403 244.179328)scale(0.1 -0.1)">
     <use xlink:href="#SimHei-80"/>
     <use x="50" xlink:href="#SimHei-114"/>
     <use x="100" xlink:href="#SimHei-111"/>
     <use x="150" xlink:href="#SimHei-100"/>
     <use x="200" xlink:href="#SimHei-117"/>
     <use x="250" xlink:href="#SimHei-99"/>
     <use x="300" xlink:href="#SimHei-116"/>
     <use x="350" xlink:href="#SimHei-105"/>
     <use x="400" xlink:href="#SimHei-111"/>
     <use x="450" xlink:href="#SimHei-110"/>
     <use x="500" xlink:href="#SimHei-32"/>
     <use x="550" xlink:href="#SimHei-73"/>
     <use x="600" xlink:href="#SimHei-46"/>
     <use x="650" xlink:href="#SimHei-71"/>
    </g>
   </g>
   <g id="text_10">
    <!-- 8.1% -->
    <g transform="translate(270.172002 210.215603)scale(0.1 -0.1)">
     <use xlink:href="#SimHei-56"/>
     <use x="50" xlink:href="#SimHei-46"/>
     <use x="100" xlink:href="#SimHei-49"/>
     <use x="150" xlink:href="#SimHei-37"/>
    </g>
   </g>
   <g id="text_11">
    <!-- スタジオディーン -->
    <defs>
     <path d="M 23.828125 63.671875 
L 67.96875 63.28125 
L 73.4375 58.59375 
Q 68.75 47.65625 59.375 34.375 
L 58.59375 33.59375 
Q 64.0625 30.078125 82.8125 9.375 
L 83.984375 7.03125 
L 77.34375 0.390625 
Q 67.578125 15.234375 53.515625 27.34375 
Q 45.3125 17.578125 29.6875 5.46875 
L 23.046875 1.953125 
L 17.578125 9.765625 
Q 44.140625 22.65625 60.15625 52.34375 
L 61.71875 55.078125 
L 23.828125 55.078125 
z
" id="SimHei-12473"/>
     <path d="M 46.09375 75.390625 
L 54.296875 73.046875 
L 49.21875 62.5 
L 74.609375 62.5 
L 80.46875 56.640625 
Q 75.78125 40.234375 65.234375 25.390625 
Q 69.140625 20.703125 72.65625 15.625 
Q 69.140625 14.0625 65.625 10.9375 
Q 62.5 16.015625 59.375 19.140625 
Q 50.390625 9.765625 25.390625 -2.34375 
L 20.703125 4.6875 
Q 35.546875 9.765625 51.5625 22.65625 
L 53.515625 25 
Q 47.265625 31.25 39.0625 37.109375 
L 44.140625 42.1875 
Q 51.171875 37.5 58.59375 30.859375 
Q 65.625 40.234375 70.3125 53.90625 
L 44.140625 53.90625 
Q 38.28125 44.53125 25.390625 31.640625 
L 24.21875 30.859375 
L 18.359375 37.109375 
Q 36.328125 53.515625 46.09375 75.390625 
z
" id="SimHei-12479"/>
     <path d="M 78.125 77.734375 
Q 81.25 73.4375 83.59375 68.75 
L 83.984375 66.796875 
L 78.125 65.234375 
Q 75.78125 70.703125 71.875 75.78125 
z
M 32.421875 71.484375 
L 44.921875 65.625 
L 49.609375 62.109375 
L 44.921875 54.6875 
Q 38.28125 59.765625 29.6875 63.671875 
L 27.734375 64.453125 
z
M 67.96875 69.53125 
Q 71.09375 65.625 73.4375 59.375 
L 73.828125 58.59375 
L 67.578125 56.640625 
Q 65.625 62.5 62.109375 67.578125 
z
M 76.171875 50.390625 
L 82.03125 43.75 
Q 61.328125 12.5 25.78125 4.296875 
L 25.390625 4.296875 
L 22.265625 14.0625 
Q 55.859375 20.3125 73.4375 46.484375 
z
M 24.609375 50 
Q 32.8125 46.484375 41.015625 40.234375 
L 36.328125 33.203125 
Q 29.6875 38.28125 19.53125 42.578125 
z
" id="SimHei-12472"/>
     <path d="M 53.90625 73.4375 
L 62.5 73.4375 
L 62.5 57.421875 
L 83.984375 57.421875 
L 83.984375 49.21875 
L 62.5 49.21875 
L 62.5 7.8125 
Q 62.109375 -0.78125 47.265625 0 
L 43.75 8.203125 
L 52.34375 8.203125 
Q 54.296875 7.8125 53.90625 16.015625 
L 53.90625 40.234375 
Q 41.796875 22.65625 21.484375 11.71875 
L 19.53125 10.9375 
L 14.84375 17.96875 
Q 32.421875 26.5625 45.3125 42.1875 
L 49.21875 48.828125 
L 49.21875 49.21875 
L 18.359375 49.21875 
L 18.359375 57.421875 
L 53.90625 57.421875 
z
" id="SimHei-12458"/>
     <path d="M 91.796875 81.25 
Q 94.53125 77.34375 97.265625 71.09375 
L 97.265625 70.3125 
L 91.40625 68.75 
Q 89.0625 74.21875 85.546875 79.296875 
z
M 80.46875 75.78125 
Q 83.59375 71.875 86.328125 66.015625 
L 86.328125 64.84375 
L 80.46875 63.28125 
Q 78.125 69.140625 74.609375 73.828125 
z
M 24.609375 67.578125 
L 71.09375 67.578125 
L 71.09375 58.984375 
L 24.609375 58.984375 
z
M 15.625 45.3125 
L 80.859375 45.3125 
L 80.859375 37.109375 
L 54.296875 37.109375 
Q 53.90625 13.671875 36.328125 3.90625 
L 26.5625 -1.171875 
L 20.703125 6.640625 
Q 33.984375 10.15625 41.40625 20.3125 
Q 45.3125 27.34375 45.703125 37.109375 
L 15.625 37.109375 
z
" id="SimHei-12487"/>
     <path d="M 65.625 50.390625 
L 71.875 46.484375 
Q 69.53125 42.578125 59.765625 31.640625 
L 59.765625 -5.859375 
L 53.515625 -5.859375 
L 53.515625 26.953125 
Q 45.3125 19.53125 33.59375 12.890625 
L 32.03125 12.5 
L 27.734375 17.96875 
Q 48.046875 27.734375 62.890625 45.703125 
z
" id="SimHei-12451"/>
    </defs>
    <g transform="translate(306.833017 297.515636)scale(0.1 -0.1)">
     <use xlink:href="#SimHei-12473"/>
     <use x="100" xlink:href="#SimHei-12479"/>
     <use x="200" xlink:href="#SimHei-12472"/>
     <use x="300" xlink:href="#SimHei-12458"/>
     <use x="400" xlink:href="#SimHei-12487"/>
     <use x="500" xlink:href="#SimHei-12451"/>
     <use x="600" xlink:href="#SimHei-12540"/>
     <use x="700" xlink:href="#SimHei-12531"/>
    </g>
   </g>
   <g id="text_12">
    <!-- 7.4% -->
    <defs>
     <path d="M 31.25 17.1875 
L 1.171875 17.1875 
L 1.171875 23.828125 
L 32.8125 69.53125 
L 38.671875 69.53125 
L 38.671875 23.828125 
L 48.046875 23.828125 
L 48.046875 17.1875 
L 38.671875 17.1875 
L 38.671875 2.34375 
L 31.25 2.34375 
z
M 31.25 23.828125 
L 31.25 54.6875 
L 9.375 23.828125 
z
" id="SimHei-52"/>
    </defs>
    <g transform="translate(250.233189 234.326212)scale(0.1 -0.1)">
     <use xlink:href="#SimHei-55"/>
     <use x="50" xlink:href="#SimHei-46"/>
     <use x="100" xlink:href="#SimHei-52"/>
     <use x="150" xlink:href="#SimHei-37"/>
    </g>
   </g>
   <g id="text_13">
    <!-- A-1 Pictures -->
    <defs>
     <path d="M 46.484375 33.203125 
L 1.953125 33.203125 
L 1.953125 39.453125 
L 46.484375 39.453125 
z
" id="SimHei-45"/>
     <path d="M 44.53125 16.796875 
Q 43.75 9.765625 38.28125 5.46875 
Q 32.8125 1.171875 25.390625 1.171875 
Q 16.015625 1.171875 9.953125 7.21875 
Q 3.90625 13.28125 3.90625 23.828125 
Q 3.90625 34.375 9.953125 40.421875 
Q 16.015625 46.484375 25.390625 46.484375 
Q 33.59375 46.484375 38.859375 41.203125 
Q 44.140625 35.9375 44.140625 23.828125 
L 12.5 23.828125 
Q 12.5 15.234375 16.203125 11.71875 
Q 19.921875 8.203125 25.390625 8.203125 
Q 29.6875 8.203125 32.421875 10.34375 
Q 35.15625 12.5 35.9375 16.796875 
z
M 35.15625 30.078125 
Q 34.375 35.546875 31.640625 37.6875 
Q 28.90625 39.84375 24.609375 39.84375 
Q 20.703125 39.84375 17.578125 37.6875 
Q 14.453125 35.546875 12.890625 30.078125 
z
" id="SimHei-101"/>
     <path d="M 42.96875 14.0625 
Q 42.96875 7.8125 38.078125 4.484375 
Q 33.203125 1.171875 25.78125 1.171875 
Q 16.40625 1.171875 11.328125 4.875 
Q 6.25 8.59375 6.25 15.625 
L 14.0625 15.625 
Q 14.0625 10.9375 17.375 9.375 
Q 20.703125 7.8125 25.390625 7.8125 
Q 30.078125 7.8125 32.421875 9.5625 
Q 34.765625 11.328125 34.765625 14.0625 
Q 34.765625 16.015625 32.8125 17.96875 
Q 30.859375 19.921875 23.046875 21.09375 
Q 14.0625 22.265625 10.734375 25.578125 
Q 7.421875 28.90625 7.421875 34.375 
Q 7.421875 39.0625 11.90625 42.765625 
Q 16.40625 46.484375 25 46.484375 
Q 32.8125 46.484375 37.296875 42.96875 
Q 41.796875 39.453125 41.796875 33.59375 
L 33.984375 33.59375 
Q 33.984375 37.109375 31.4375 38.46875 
Q 28.90625 39.84375 25 39.84375 
Q 19.921875 39.84375 17.765625 38.078125 
Q 15.625 36.328125 15.625 33.984375 
Q 15.625 31.25 17.578125 29.6875 
Q 19.53125 28.125 25.78125 27.34375 
Q 35.9375 25.78125 39.453125 22.453125 
Q 42.96875 19.140625 42.96875 14.0625 
z
" id="SimHei-115"/>
    </defs>
    <g transform="translate(251.673982 322.193364)scale(0.1 -0.1)">
     <use xlink:href="#SimHei-65"/>
     <use x="50" xlink:href="#SimHei-45"/>
     <use x="100" xlink:href="#SimHei-49"/>
     <use x="150" xlink:href="#SimHei-32"/>
     <use x="200" xlink:href="#SimHei-80"/>
     <use x="250" xlink:href="#SimHei-105"/>
     <use x="300" xlink:href="#SimHei-99"/>
     <use x="350" xlink:href="#SimHei-116"/>
     <use x="400" xlink:href="#SimHei-117"/>
     <use x="450" xlink:href="#SimHei-114"/>
     <use x="500" xlink:href="#SimHei-101"/>
     <use x="550" xlink:href="#SimHei-115"/>
    </g>
   </g>
   <g id="text_14">
    <!-- 6.2% -->
    <defs>
     <path d="M 3.515625 19.53125 
Q 4.296875 30.859375 6.046875 34.765625 
Q 7.8125 38.671875 11.328125 44.53125 
L 27.34375 69.53125 
L 36.328125 69.53125 
L 19.921875 43.75 
Q 30.46875 46.484375 36.71875 42.96875 
Q 42.96875 39.453125 45.109375 34.953125 
Q 47.265625 30.46875 47.453125 25.1875 
Q 47.65625 19.921875 45.890625 14.84375 
Q 44.140625 9.765625 39.640625 5.65625 
Q 35.15625 1.5625 27.140625 1.171875 
Q 19.140625 0.78125 13.46875 4.09375 
Q 7.8125 7.421875 5.65625 13.46875 
Q 3.515625 19.53125 4.296875 30.859375 
z
M 12.5 16.015625 
Q 19.53125 8.59375 25.390625 8.203125 
Q 31.25 7.8125 35.15625 12.109375 
Q 39.0625 16.40625 39.0625 24.609375 
Q 39.0625 32.8125 34.171875 35.9375 
Q 29.296875 39.0625 23.234375 38.28125 
Q 17.1875 37.5 14.453125 32.421875 
Q 11.71875 27.34375 12.109375 21.671875 
Q 12.5 16.015625 19.53125 8.59375 
z
" id="SimHei-54"/>
     <path d="M 4.6875 3.90625 
Q 5.078125 9.765625 10.15625 14.453125 
Q 15.234375 19.140625 23.046875 29.09375 
Q 30.859375 39.0625 33.203125 44.53125 
Q 35.546875 50 34.953125 53.90625 
Q 34.375 57.8125 31.25 60.34375 
Q 28.125 62.890625 24.015625 62.5 
Q 19.921875 62.109375 16.203125 59.375 
Q 12.5 56.640625 10.546875 51.171875 
L 3.125 52.34375 
Q 6.25 61.328125 11.125 65.421875 
Q 16.015625 69.53125 22.65625 69.921875 
Q 26.5625 70.3125 29.6875 69.71875 
Q 32.8125 69.140625 36.125 66.984375 
Q 39.453125 64.84375 41.59375 60.546875 
Q 43.75 56.25 43.15625 50.1875 
Q 42.578125 44.140625 37.109375 35.734375 
Q 31.640625 27.34375 16.015625 9.375 
L 44.140625 9.375 
L 44.140625 2.34375 
L 4.6875 2.34375 
z
" id="SimHei-50"/>
    </defs>
    <g transform="translate(225.160901 245.676529)scale(0.1 -0.1)">
     <use xlink:href="#SimHei-54"/>
     <use x="50" xlink:href="#SimHei-46"/>
     <use x="100" xlink:href="#SimHei-50"/>
     <use x="150" xlink:href="#SimHei-37"/>
    </g>
   </g>
   <g id="text_15">
    <!-- AIC -->
    <g transform="translate(184.9058 323.804129)scale(0.1 -0.1)">
     <use xlink:href="#SimHei-65"/>
     <use x="50" xlink:href="#SimHei-73"/>
     <use x="100" xlink:href="#SimHei-67"/>
    </g>
   </g>
   <g id="text_16">
    <!-- 5.4% -->
    <defs>
     <path d="M 8.59375 20.703125 
Q 11.328125 10.15625 17.96875 8.984375 
Q 24.609375 7.8125 28.703125 10.34375 
Q 32.8125 12.890625 34.5625 16.984375 
Q 36.328125 21.09375 36.125 26.171875 
Q 35.9375 31.25 33.390625 34.765625 
Q 30.859375 38.28125 26.953125 39.453125 
Q 23.046875 40.625 18.15625 39.453125 
Q 13.28125 38.28125 10.15625 33.984375 
L 3.515625 34.765625 
Q 4.296875 37.109375 10.9375 68.359375 
L 41.796875 68.359375 
L 41.796875 61.328125 
L 16.796875 61.328125 
Q 14.84375 50.78125 12.890625 44.53125 
Q 18.75 47.265625 23.828125 47.0625 
Q 28.90625 46.875 33.59375 44.71875 
Q 38.28125 42.578125 40.421875 38.859375 
Q 42.578125 35.15625 43.546875 31.4375 
Q 44.53125 27.734375 44.328125 23.4375 
Q 44.140625 19.140625 42.578125 14.640625 
Q 41.015625 10.15625 37.890625 7.21875 
Q 34.765625 4.296875 30.265625 2.53125 
Q 25.78125 0.78125 19.921875 1.171875 
Q 14.0625 1.5625 8.78125 5.46875 
Q 3.515625 9.375 1.5625 18.75 
z
" id="SimHei-53"/>
    </defs>
    <g transform="translate(201.629909 246.408695)scale(0.1 -0.1)">
     <use xlink:href="#SimHei-53"/>
     <use x="50" xlink:href="#SimHei-46"/>
     <use x="100" xlink:href="#SimHei-52"/>
     <use x="150" xlink:href="#SimHei-37"/>
    </g>
   </g>
   <g id="text_17">
    <!-- トムス・エンタテインメント -->
    <defs>
     <path d="M 39.453125 73.046875 
L 48.046875 73.046875 
L 48.046875 44.53125 
L 50.78125 48.4375 
Q 65.625 42.578125 78.125 32.8125 
L 79.6875 31.640625 
L 73.046875 24.21875 
Q 61.328125 33.984375 48.046875 40.234375 
L 48.046875 -1.171875 
L 39.453125 -1.171875 
z
" id="SimHei-12488"/>
     <path d="M 45.703125 71.484375 
L 54.296875 67.96875 
Q 46.484375 45.703125 33.59375 20.703125 
L 32.8125 19.53125 
Q 44.53125 19.53125 64.0625 21.875 
L 67.96875 22.65625 
Q 63.28125 31.25 56.25 39.453125 
L 62.890625 44.921875 
Q 74.21875 31.25 85.15625 10.15625 
L 77.734375 5.859375 
L 72.65625 14.84375 
Q 48.046875 12.109375 15.234375 9.375 
L 12.5 19.140625 
L 22.65625 19.140625 
Q 36.328125 42.96875 45.3125 69.921875 
z
" id="SimHei-12512"/>
     <path d="M 87.5 -5.078125 
L 10.9375 -5.078125 
L 10.9375 75.390625 
L 87.5 75.390625 
z
M 84.375 72.65625 
L 13.671875 72.65625 
L 13.671875 -2.34375 
L 84.375 -2.34375 
z
" id="SimHei-12539"/>
     <path d="M 21.484375 61.328125 
L 75.78125 61.328125 
L 75.78125 53.125 
L 53.125 53.125 
L 53.125 21.09375 
L 83.203125 21.09375 
L 83.203125 12.890625 
L 15.234375 12.890625 
L 15.234375 21.09375 
L 44.921875 21.09375 
L 44.921875 53.125 
L 21.484375 53.125 
z
" id="SimHei-12456"/>
     <path d="M 25.78125 67.578125 
L 72.65625 67.578125 
L 72.65625 58.984375 
L 25.78125 58.984375 
z
M 16.796875 45.3125 
L 82.421875 45.3125 
L 82.421875 37.109375 
L 55.46875 37.109375 
Q 55.078125 13.671875 37.5 3.90625 
L 27.734375 -1.171875 
L 21.875 6.640625 
Q 35.15625 10.15625 42.578125 20.3125 
Q 46.484375 27.34375 46.875 37.109375 
L 16.796875 37.109375 
z
" id="SimHei-12486"/>
    </defs>
    <g transform="translate(25.236428 309.260907)scale(0.1 -0.1)">
     <use xlink:href="#SimHei-12488"/>
     <use x="100" xlink:href="#SimHei-12512"/>
     <use x="200" xlink:href="#SimHei-12473"/>
     <use x="300" xlink:href="#SimHei-12539"/>
     <use x="400" xlink:href="#SimHei-12456"/>
     <use x="500" xlink:href="#SimHei-12531"/>
     <use x="600" xlink:href="#SimHei-12479"/>
     <use x="700" xlink:href="#SimHei-12486"/>
     <use x="800" xlink:href="#SimHei-12452"/>
     <use x="900" xlink:href="#SimHei-12531"/>
     <use x="1000" xlink:href="#SimHei-12513"/>
     <use x="1100" xlink:href="#SimHei-12531"/>
     <use x="1200" xlink:href="#SimHei-12488"/>
    </g>
   </g>
   <g id="text_18">
    <!-- 5.1% -->
    <g transform="translate(181.325649 239.798139)scale(0.1 -0.1)">
     <use xlink:href="#SimHei-53"/>
     <use x="50" xlink:href="#SimHei-46"/>
     <use x="100" xlink:href="#SimHei-49"/>
     <use x="150" xlink:href="#SimHei-37"/>
    </g>
   </g>
   <g id="text_19">
    <!-- ぴえろ -->
    <defs>
     <path d="M 87.890625 82.8125 
Q 96.875 81.25 97.65625 74.609375 
L 97.65625 70.703125 
Q 94.921875 62.5 88.28125 62.890625 
L 86.328125 62.890625 
Q 77.34375 66.015625 78.125 73.4375 
Q 77.734375 79.6875 87.109375 82.421875 
z
M 87.5 78.90625 
Q 81.640625 77.34375 81.640625 72.265625 
Q 82.421875 67.96875 86.71875 66.796875 
L 89.453125 66.796875 
Q 95.3125 69.53125 94.140625 74.21875 
Q 92.96875 78.125 87.5 78.90625 
z
M 41.015625 73.046875 
L 46.875 68.359375 
L 35.546875 54.296875 
Q 26.171875 42.1875 25.390625 24.609375 
Q 26.171875 10.9375 37.109375 7.8125 
L 42.96875 7.421875 
Q 67.1875 10.546875 63.28125 67.578125 
L 62.890625 69.921875 
L 71.09375 70.703125 
Q 72.265625 52.734375 87.109375 30.078125 
L 81.640625 24.21875 
L 81.25 24.21875 
Q 75.390625 33.59375 69.53125 48.046875 
Q 71.09375 33.984375 65.234375 18.359375 
Q 56.25 -1.171875 38.671875 -0.390625 
L 37.109375 -0.390625 
Q 23.4375 1.171875 18.359375 18.359375 
Q 14.453125 38.671875 32.421875 62.109375 
Q 32.421875 62.890625 29.6875 61.71875 
Q 23.4375 59.765625 14.84375 58.59375 
L 13.28125 66.796875 
Q 25.390625 66.015625 39.84375 72.65625 
z
" id="SimHei-12404"/>
     <path d="M 35.15625 76.5625 
Q 45.703125 73.828125 67.1875 74.21875 
L 67.1875 66.796875 
Q 56.25 66.40625 41.796875 67.578125 
L 33.984375 68.75 
z
M 65.625 60.546875 
L 72.65625 51.5625 
Q 64.0625 45.703125 49.21875 32.8125 
L 47.65625 30.46875 
Q 54.6875 33.203125 57.8125 28.90625 
Q 59.765625 26.171875 59.765625 9.375 
Q 58.59375 3.90625 78.125 6.640625 
Q 82.03125 7.03125 87.109375 8.59375 
L 87.109375 -0.78125 
Q 82.8125 -2.34375 58.984375 -1.171875 
Q 53.125 -1.5625 51.171875 6.640625 
L 51.5625 21.484375 
Q 50.390625 23.4375 48.046875 23.046875 
Q 35.9375 23.046875 19.140625 0.390625 
L 13.28125 6.25 
Q 32.421875 28.90625 58.984375 49.609375 
Q 41.796875 45.3125 23.4375 43.75 
L 22.265625 43.75 
L 22.265625 52.734375 
Q 42.578125 52.734375 65.625 60.546875 
z
" id="SimHei-12360"/>
     <path d="M 65.625 75 
L 71.484375 69.53125 
L 71.484375 69.140625 
Q 58.984375 59.765625 46.484375 46.484375 
L 42.96875 42.578125 
Q 62.890625 49.21875 76.5625 37.109375 
Q 83.203125 29.296875 81.640625 20.703125 
Q 77.34375 -1.171875 45.3125 -1.171875 
L 38.671875 -1.171875 
L 34.765625 7.03125 
Q 48.046875 4.296875 62.890625 9.375 
Q 73.4375 14.453125 73.046875 24.609375 
L 73.046875 25.390625 
Q 69.921875 37.109375 54.6875 37.109375 
Q 32.8125 34.375 22.265625 16.40625 
L 16.015625 23.046875 
Q 29.296875 41.40625 55.859375 65.234375 
Q 47.265625 63.671875 31.640625 63.28125 
L 29.6875 63.28125 
L 29.6875 71.09375 
Q 44.140625 70.3125 65.625 75 
z
" id="SimHei-12429"/>
    </defs>
    <g transform="translate(90.186204 283.847688)scale(0.1 -0.1)">
     <use xlink:href="#SimHei-12404"/>
     <use x="100" xlink:href="#SimHei-12360"/>
     <use x="200" xlink:href="#SimHei-12429"/>
    </g>
   </g>
   <g id="text_20">
    <!-- 4.6% -->
    <g transform="translate(165.393729 228.157898)scale(0.1 -0.1)">
     <use xlink:href="#SimHei-52"/>
     <use x="50" xlink:href="#SimHei-46"/>
     <use x="100" xlink:href="#SimHei-54"/>
     <use x="150" xlink:href="#SimHei-37"/>
    </g>
   </g>
   <g id="text_21">
    <!-- BONES -->
    <defs>
     <path d="M 46.09375 21.875 
Q 46.09375 10.546875 39.84375 6.25 
Q 33.59375 1.953125 23.828125 1.953125 
L 4.296875 1.953125 
L 4.296875 68.75 
L 24.609375 68.75 
Q 34.375 68.75 39.25 63.671875 
Q 44.140625 58.59375 44.140625 51.5625 
Q 44.140625 44.53125 40.8125 41.203125 
Q 37.5 37.890625 33.984375 36.71875 
Q 38.671875 35.546875 42.375 31.828125 
Q 46.09375 28.125 46.09375 21.875 
z
M 35.15625 51.5625 
Q 35.15625 56.640625 32.21875 58.984375 
Q 29.296875 61.328125 25 61.328125 
L 13.28125 61.328125 
L 13.28125 40.625 
L 24.609375 40.625 
Q 28.90625 40.625 32.03125 43.15625 
Q 35.15625 45.703125 35.15625 51.5625 
z
M 36.71875 21.875 
Q 36.71875 28.125 32.609375 30.65625 
Q 28.515625 33.203125 23.4375 33.203125 
L 13.28125 33.203125 
L 13.28125 9.375 
L 22.265625 9.375 
Q 29.296875 9.375 33 12.109375 
Q 36.71875 14.84375 36.71875 21.875 
z
" id="SimHei-66"/>
     <path d="M 44.53125 1.953125 
L 34.765625 1.953125 
L 13.28125 50.390625 
L 12.890625 50.390625 
L 12.890625 1.953125 
L 3.90625 1.953125 
L 3.90625 68.75 
L 13.671875 68.75 
L 35.15625 20.3125 
L 35.546875 20.3125 
L 35.546875 68.75 
L 44.53125 68.75 
z
" id="SimHei-78"/>
    </defs>
    <g transform="translate(71.015457 251.72619)scale(0.1 -0.1)">
     <use xlink:href="#SimHei-66"/>
     <use x="50" xlink:href="#SimHei-79"/>
     <use x="100" xlink:href="#SimHei-78"/>
     <use x="150" xlink:href="#SimHei-69"/>
     <use x="200" xlink:href="#SimHei-83"/>
    </g>
   </g>
   <g id="text_22">
    <!-- 4.3% -->
    <defs>
     <path d="M 3.90625 19.140625 
L 10.9375 20.3125 
Q 12.5 15.234375 16.015625 11.90625 
Q 19.53125 8.59375 24.796875 8.78125 
Q 30.078125 8.984375 33.203125 13.078125 
Q 36.328125 17.1875 35.9375 22.453125 
Q 35.546875 27.734375 31.828125 30.65625 
Q 28.125 33.59375 19.921875 34.765625 
L 19.921875 39.84375 
Q 28.125 40.625 31.828125 44.140625 
Q 35.546875 47.65625 35.15625 53.3125 
Q 34.765625 58.984375 30.078125 61.515625 
Q 25.390625 64.0625 20.109375 62.109375 
Q 14.84375 60.15625 11.71875 51.171875 
L 4.6875 52.34375 
Q 7.03125 59.375 11.125 64.0625 
Q 15.234375 68.75 22.265625 69.53125 
Q 29.296875 70.3125 34.5625 67.765625 
Q 39.84375 65.234375 41.984375 59.953125 
Q 44.140625 54.6875 42.578125 48.4375 
Q 41.015625 42.1875 33.59375 37.5 
Q 39.0625 35.15625 41.984375 30.46875 
Q 44.921875 25.78125 43.9375 18.15625 
Q 42.96875 10.546875 37.109375 5.859375 
Q 31.25 1.171875 23.828125 1.359375 
Q 16.40625 1.5625 10.9375 6.046875 
Q 5.46875 10.546875 3.90625 19.140625 
z
" id="SimHei-51"/>
    </defs>
    <g transform="translate(154.407026 213.645995)scale(0.1 -0.1)">
     <use xlink:href="#SimHei-52"/>
     <use x="50" xlink:href="#SimHei-46"/>
     <use x="100" xlink:href="#SimHei-51"/>
     <use x="150" xlink:href="#SimHei-37"/>
    </g>
   </g>
   <g id="text_23">
    <!-- シンエイ動画 -->
    <defs>
     <path d="M 48.828125 -2.34375 
Q 35.15625 -3.90625 23.625 -5.46875 
Q 12.109375 -7.03125 5.46875 -8.984375 
L 3.515625 -0.78125 
Q 6.25 -0.78125 11.71875 -0.390625 
Q 17.1875 0 24.609375 0.78125 
L 24.609375 8.984375 
Q 11.71875 8.984375 5.46875 8.59375 
L 5.46875 15.234375 
Q 11.71875 14.84375 24.609375 14.84375 
L 24.609375 21.09375 
L 7.421875 21.09375 
Q 7.8125 27.34375 7.8125 36.328125 
Q 7.8125 45.703125 7.421875 50.390625 
L 24.609375 50.390625 
L 24.609375 57.421875 
L 12.5 57.421875 
Q 9.765625 57.421875 3.515625 57.03125 
L 3.515625 63.671875 
Q 9.765625 63.28125 12.890625 63.28125 
L 24.609375 63.28125 
L 24.609375 70.703125 
Q 19.53125 70.3125 15.03125 69.921875 
Q 10.546875 69.53125 6.640625 69.140625 
Q 5.859375 73.4375 4.296875 76.5625 
Q 10.9375 76.171875 17.765625 76.5625 
Q 24.609375 76.953125 29.875 77.53125 
Q 35.15625 78.125 40.234375 78.90625 
Q 45.3125 79.6875 49.21875 81.25 
Q 50.78125 77.34375 53.515625 73.4375 
Q 50.390625 73.4375 43.9375 72.84375 
Q 37.5 72.265625 31.640625 71.484375 
L 31.640625 63.28125 
L 43.359375 63.28125 
Q 46.484375 63.28125 51.953125 63.671875 
L 51.953125 57.03125 
Q 46.875 57.421875 43.359375 57.421875 
L 31.640625 57.421875 
L 31.640625 50.390625 
L 48.828125 50.390625 
Q 48.4375 44.921875 48.4375 35.9375 
Q 48.4375 27.34375 48.828125 21.09375 
L 31.640625 21.09375 
L 31.640625 14.84375 
Q 40.234375 14.84375 48.828125 15.234375 
L 48.828125 8.59375 
Q 43.75 8.984375 31.640625 8.984375 
L 31.640625 1.953125 
Q 41.015625 2.734375 50 3.90625 
Q 49.21875 1.171875 48.828125 -2.34375 
z
M 94.921875 45.3125 
Q 93.75 24.21875 92.96875 3.125 
Q 92.1875 -2.734375 88.671875 -4.484375 
Q 85.15625 -6.25 75 -7.03125 
Q 75 -2.34375 72.265625 1.953125 
Q 78.515625 1.5625 81.640625 1.75 
Q 84.765625 1.953125 85.546875 5.859375 
Q 87.109375 29.6875 87.890625 53.90625 
L 73.828125 53.90625 
Q 73.046875 41.015625 71.875 32.421875 
Q 70.703125 23.828125 68.9375 16.203125 
Q 67.1875 8.59375 64.84375 2.734375 
Q 62.5 -3.125 57.421875 -10.15625 
Q 54.296875 -7.421875 49.21875 -4.6875 
Q 54.6875 0 58.203125 7.8125 
Q 61.71875 15.625 63.078125 23.046875 
Q 64.453125 30.46875 65.234375 38.671875 
Q 66.015625 46.875 66.40625 53.90625 
Q 60.15625 53.90625 55.46875 53.515625 
L 55.46875 60.15625 
Q 62.5 59.765625 66.40625 59.765625 
Q 66.796875 64.453125 66.796875 68.75 
Q 66.796875 73.4375 66.40625 81.25 
Q 71.875 80.46875 76.5625 80.078125 
Q 74.609375 75.78125 74.40625 70.109375 
Q 74.21875 64.453125 73.828125 59.765625 
L 95.703125 59.765625 
Q 95.3125 54.296875 94.921875 45.3125 
z
M 41.40625 26.953125 
L 41.40625 32.8125 
L 31.640625 32.8125 
L 31.640625 26.953125 
z
M 41.40625 38.671875 
L 41.40625 44.53125 
L 31.640625 44.53125 
L 31.640625 38.671875 
z
M 24.609375 26.953125 
L 24.609375 32.8125 
L 14.84375 32.8125 
L 14.84375 26.953125 
z
M 24.609375 38.671875 
L 24.609375 44.53125 
L 14.84375 44.53125 
L 14.84375 38.671875 
z
" id="SimHei-21205"/>
     <path d="M 73.046875 59.375 
Q 72.65625 53.515625 72.65625 45.3125 
L 72.65625 28.90625 
Q 72.65625 23.4375 73.046875 12.5 
L 27.34375 12.5 
Q 27.734375 18.75 27.734375 25.390625 
L 27.734375 44.53125 
Q 27.734375 53.125 27.34375 59.375 
L 73.046875 59.375 
z
M 16.40625 3.125 
L 83.59375 3.125 
L 83.59375 42.578125 
Q 83.59375 46.09375 83.203125 51.953125 
L 91.796875 51.953125 
Q 91.40625 46.484375 91.40625 42.578125 
L 91.40625 1.953125 
Q 91.40625 -1.953125 91.796875 -9.375 
L 83.59375 -9.375 
L 83.59375 -2.734375 
L 8.59375 -2.734375 
Q 8.984375 1.5625 8.984375 7.8125 
L 8.984375 41.796875 
Q 8.984375 46.875 8.59375 51.5625 
L 16.40625 51.5625 
z
M 74.609375 75.390625 
Q 83.203125 75.390625 91.40625 75.78125 
L 91.40625 68.75 
Q 83.203125 69.140625 74.609375 69.140625 
L 28.90625 69.140625 
Q 19.140625 69.140625 9.765625 68.75 
L 9.765625 75.78125 
Q 19.140625 75.390625 28.90625 75.390625 
z
M 46.875 18.75 
L 46.875 33.203125 
L 34.765625 33.203125 
L 34.765625 18.75 
z
M 46.875 39.453125 
L 46.875 53.515625 
L 34.765625 53.515625 
L 34.765625 39.453125 
z
M 65.625 18.75 
L 65.625 33.203125 
L 53.90625 33.203125 
L 53.90625 18.75 
z
M 65.625 39.453125 
L 65.625 53.515625 
L 53.90625 53.515625 
L 53.90625 39.453125 
z
" id="SimHei-30011"/>
    </defs>
    <g transform="translate(21.950895 216.319899)scale(0.1 -0.1)">
     <use xlink:href="#SimHei-12471"/>
     <use x="100" xlink:href="#SimHei-12531"/>
     <use x="200" xlink:href="#SimHei-12456"/>
     <use x="300" xlink:href="#SimHei-12452"/>
     <use x="400" xlink:href="#SimHei-21205"/>
     <use x="500" xlink:href="#SimHei-30011"/>
    </g>
   </g>
   <g id="text_24">
    <!-- 4.2% -->
    <g transform="translate(148.014043 197.321403)scale(0.1 -0.1)">
     <use xlink:href="#SimHei-52"/>
     <use x="50" xlink:href="#SimHei-46"/>
     <use x="100" xlink:href="#SimHei-50"/>
     <use x="150" xlink:href="#SimHei-37"/>
    </g>
   </g>
   <g id="text_25">
    <!-- XEBEC -->
    <defs>
     <path d="M 46.875 1.953125 
L 37.5 1.953125 
L 24.21875 29.296875 
L 10.9375 1.953125 
L 1.5625 1.953125 
L 19.921875 37.109375 
L 3.515625 68.75 
L 12.890625 68.75 
L 24.21875 44.53125 
L 35.546875 68.75 
L 44.921875 68.75 
L 28.515625 37.109375 
z
" id="SimHei-88"/>
    </defs>
    <g transform="translate(52.946426 177.874294)scale(0.1 -0.1)">
     <use xlink:href="#SimHei-88"/>
     <use x="50" xlink:href="#SimHei-69"/>
     <use x="100" xlink:href="#SimHei-66"/>
     <use x="150" xlink:href="#SimHei-69"/>
     <use x="200" xlink:href="#SimHei-67"/>
    </g>
   </g>
   <g id="text_26">
    <!-- 4.2% -->
    <g transform="translate(146.19383 180.076952)scale(0.1 -0.1)">
     <use xlink:href="#SimHei-52"/>
     <use x="50" xlink:href="#SimHei-46"/>
     <use x="100" xlink:href="#SimHei-50"/>
     <use x="150" xlink:href="#SimHei-37"/>
    </g>
   </g>
   <g id="text_27">
    <!-- GONZO -->
    <defs>
     <path d="M 45.3125 1.953125 
L 3.515625 1.953125 
L 3.515625 9.375 
L 35.15625 61.328125 
L 5.859375 61.328125 
L 5.859375 68.75 
L 44.140625 68.75 
L 44.140625 61.328125 
L 12.5 9.375 
L 45.3125 9.375 
z
" id="SimHei-90"/>
    </defs>
    <g transform="translate(58.713672 141.44387)scale(0.1 -0.1)">
     <use xlink:href="#SimHei-71"/>
     <use x="50" xlink:href="#SimHei-79"/>
     <use x="100" xlink:href="#SimHei-78"/>
     <use x="150" xlink:href="#SimHei-90"/>
     <use x="200" xlink:href="#SimHei-79"/>
    </g>
   </g>
   <g id="text_28">
    <!-- 4.0% -->
    <defs>
     <path d="M 3.125 29.296875 
Q 3.90625 50 6.4375 56.046875 
Q 8.984375 62.109375 13.671875 66.015625 
Q 18.359375 69.921875 25.1875 69.921875 
Q 32.03125 69.921875 37.109375 64.25 
Q 42.1875 58.59375 43.75 50 
Q 45.3125 41.40625 44.71875 30.265625 
Q 44.140625 19.140625 40.8125 12.109375 
Q 37.5 5.078125 30.859375 2.34375 
Q 24.21875 -0.390625 17.578125 2.921875 
Q 10.9375 6.25 8.203125 11.71875 
Q 5.46875 17.1875 4.296875 23.234375 
Q 3.125 29.296875 3.90625 50 
z
M 12.890625 52.734375 
Q 10.546875 31.25 12.5 22.84375 
Q 14.453125 14.453125 18.9375 10.9375 
Q 23.4375 7.421875 28.125 9.5625 
Q 32.8125 11.71875 34.953125 18.15625 
Q 37.109375 24.609375 37.109375 32.21875 
Q 37.109375 39.84375 36.515625 46.09375 
Q 35.9375 52.34375 33 57.421875 
Q 30.078125 62.5 25.1875 62.6875 
Q 20.3125 62.890625 16.59375 57.8125 
Q 12.890625 52.734375 10.546875 31.25 
z
" id="SimHei-48"/>
    </defs>
    <g transform="translate(148.815305 163.517668)scale(0.1 -0.1)">
     <use xlink:href="#SimHei-52"/>
     <use x="50" xlink:href="#SimHei-46"/>
     <use x="100" xlink:href="#SimHei-48"/>
     <use x="150" xlink:href="#SimHei-37"/>
    </g>
   </g>
   <g id="text_29">
    <!-- SHAFT -->
    <g transform="translate(72.063239 110.249366)scale(0.1 -0.1)">
     <use xlink:href="#SimHei-83"/>
     <use x="50" xlink:href="#SimHei-72"/>
     <use x="100" xlink:href="#SimHei-65"/>
     <use x="150" xlink:href="#SimHei-70"/>
     <use x="200" xlink:href="#SimHei-84"/>
    </g>
   </g>
   <g id="text_30">
    <!-- 3.6% -->
    <g transform="translate(154.88329 149.338348)scale(0.1 -0.1)">
     <use xlink:href="#SimHei-51"/>
     <use x="50" xlink:href="#SimHei-46"/>
     <use x="100" xlink:href="#SimHei-54"/>
     <use x="150" xlink:href="#SimHei-37"/>
    </g>
   </g>
   <g id="text_31">
    <!-- SILVER LINK. -->
    <defs>
     <path d="M 45.3125 1.953125 
L 4.6875 1.953125 
L 4.6875 68.75 
L 13.671875 68.75 
L 13.671875 9.375 
L 45.3125 9.375 
z
" id="SimHei-76"/>
     <path d="M 47.65625 68.75 
L 28.125 1.171875 
L 20.3125 1.171875 
L 0.78125 68.75 
L 10.15625 68.75 
L 23.828125 17.578125 
L 24.609375 17.578125 
L 38.28125 68.75 
z
" id="SimHei-86"/>
     <path d="M 46.875 1.953125 
L 37.5 1.953125 
L 23.4375 30.859375 
L 13.28125 30.859375 
L 13.28125 1.953125 
L 4.296875 1.953125 
L 4.296875 68.75 
L 23.828125 68.75 
Q 33.203125 68.75 39.0625 64.25 
Q 44.921875 59.765625 44.921875 49.609375 
Q 44.921875 41.796875 41.015625 37.5 
Q 37.109375 33.203125 32.03125 32.03125 
z
M 35.9375 49.609375 
Q 35.9375 55.078125 32.609375 58.203125 
Q 29.296875 61.328125 21.875 61.328125 
L 13.28125 61.328125 
L 13.28125 38.28125 
L 24.21875 38.28125 
Q 28.90625 38.28125 32.421875 40.8125 
Q 35.9375 43.359375 35.9375 49.609375 
z
" id="SimHei-82"/>
     <path d="M 47.65625 1.953125 
L 37.5 1.953125 
L 19.53125 35.15625 
L 13.28125 26.953125 
L 13.28125 1.953125 
L 4.296875 1.953125 
L 4.296875 68.75 
L 13.28125 68.75 
L 13.28125 39.84375 
L 35.546875 68.75 
L 46.09375 68.75 
L 25.390625 42.578125 
z
" id="SimHei-75"/>
    </defs>
    <g transform="translate(55.336109 85.239412)scale(0.1 -0.1)">
     <use xlink:href="#SimHei-83"/>
     <use x="50" xlink:href="#SimHei-73"/>
     <use x="100" xlink:href="#SimHei-76"/>
     <use x="150" xlink:href="#SimHei-86"/>
     <use x="200" xlink:href="#SimHei-69"/>
     <use x="250" xlink:href="#SimHei-82"/>
     <use x="300" xlink:href="#SimHei-32"/>
     <use x="350" xlink:href="#SimHei-76"/>
     <use x="400" xlink:href="#SimHei-73"/>
     <use x="450" xlink:href="#SimHei-78"/>
     <use x="500" xlink:href="#SimHei-75"/>
     <use x="550" xlink:href="#SimHei-46"/>
    </g>
   </g>
   <g id="text_32">
    <!-- 3.3% -->
    <g transform="translate(163.189141 137.970187)scale(0.1 -0.1)">
     <use xlink:href="#SimHei-51"/>
     <use x="50" xlink:href="#SimHei-46"/>
     <use x="100" xlink:href="#SimHei-51"/>
     <use x="150" xlink:href="#SimHei-37"/>
    </g>
   </g>
   <g id="text_33">
    <!-- 京都アニメーション -->
    <defs>
     <path d="M 79.6875 53.90625 
Q 79.296875 47.65625 79.296875 38.671875 
Q 79.296875 30.078125 79.6875 25.390625 
L 55.078125 25.390625 
L 55.078125 1.5625 
Q 55.078125 -5.078125 51.5625 -7.03125 
Q 48.046875 -8.984375 38.28125 -10.15625 
Q 37.109375 -5.46875 34.375 -1.5625 
Q 42.96875 -1.953125 45.109375 -1.171875 
Q 47.265625 -0.390625 47.265625 4.296875 
L 47.265625 25.390625 
L 21.484375 25.390625 
Q 21.875 32.03125 21.875 40.234375 
Q 21.875 48.4375 21.484375 53.90625 
L 79.6875 53.90625 
z
M 49.21875 82.421875 
Q 53.125 76.171875 56.640625 68.75 
L 78.125 68.75 
Q 87.109375 68.75 93.75 69.140625 
L 93.75 61.71875 
Q 87.109375 62.109375 78.125 62.109375 
L 22.265625 62.109375 
Q 14.84375 62.109375 6.640625 61.71875 
L 6.640625 69.140625 
Q 14.453125 68.75 22.265625 68.75 
L 47.265625 68.75 
Q 46.09375 72.265625 41.796875 79.296875 
Q 46.484375 80.859375 49.21875 82.421875 
z
M 71.484375 32.03125 
L 71.484375 47.265625 
L 29.6875 47.265625 
L 29.6875 32.03125 
z
M 36.328125 16.796875 
Q 29.296875 9.765625 13.28125 -5.078125 
Q 10.15625 -1.5625 7.03125 1.171875 
Q 23.4375 13.28125 30.078125 23.046875 
Q 32.8125 19.53125 36.328125 16.796875 
z
M 68.75 21.484375 
Q 76.953125 15.234375 83 10.34375 
Q 89.0625 5.46875 92.1875 2.34375 
Q 89.0625 -0.78125 85.9375 -4.296875 
Q 80.46875 1.953125 63.671875 15.234375 
Q 66.015625 17.96875 68.75 21.484375 
z
" id="SimHei-20140"/>
     <path d="M 53.515625 33.984375 
Q 53.125 24.21875 53.125 14.0625 
Q 53.125 3.90625 53.515625 -7.421875 
L 46.484375 -7.421875 
L 46.484375 -1.953125 
L 23.828125 -1.953125 
L 23.828125 -7.8125 
L 16.796875 -7.8125 
Q 17.1875 0 17.1875 7.421875 
L 17.1875 23.4375 
Q 12.890625 20.3125 9.375 18.359375 
Q 7.03125 22.265625 3.90625 24.21875 
Q 11.71875 28.515625 18.15625 33.203125 
Q 24.609375 37.890625 30.46875 44.140625 
Q 15.625 44.140625 5.859375 43.75 
L 5.859375 50.390625 
Q 15.234375 50 25.78125 50 
L 25.78125 61.71875 
Q 16.40625 61.71875 10.546875 61.328125 
L 10.546875 67.578125 
Q 16.40625 67.1875 25.78125 67.1875 
Q 25.78125 76.171875 25.390625 79.6875 
L 33.59375 79.6875 
Q 33.203125 77.34375 33.203125 67.1875 
Q 38.28125 67.1875 42.96875 67.578125 
L 42.96875 61.328125 
Q 37.890625 61.71875 33.203125 61.71875 
L 33.203125 50 
L 35.546875 50 
Q 44.921875 62.890625 50.78125 76.171875 
Q 53.125 74.609375 58.203125 71.484375 
Q 54.6875 67.578125 50.96875 61.328125 
Q 47.265625 55.078125 43.359375 50 
Q 50.390625 50 59.375 50.390625 
L 59.375 43.75 
Q 50.390625 44.140625 39.0625 44.140625 
Q 33.984375 38.671875 28.90625 33.984375 
z
M 82.421875 40.234375 
Q 89.84375 32.8125 92.765625 26.5625 
Q 95.703125 20.3125 94.921875 14.640625 
Q 94.140625 8.984375 90.421875 6.640625 
Q 86.71875 4.296875 77.734375 1.953125 
Q 76.953125 5.46875 74.21875 10.9375 
Q 81.640625 10.9375 84.765625 12.5 
Q 87.890625 14.0625 87.5 18.9375 
Q 87.109375 23.828125 82.609375 29.6875 
Q 78.125 35.546875 74.609375 39.453125 
Q 77.734375 46.875 83.203125 68.359375 
L 69.140625 68.359375 
L 69.140625 -9.765625 
L 61.71875 -9.765625 
Q 62.109375 -1.171875 62.109375 7.8125 
L 62.109375 56.25 
Q 62.109375 65.625 61.71875 74.609375 
L 92.96875 74.609375 
Q 86.328125 53.515625 82.421875 40.234375 
z
M 46.484375 18.75 
L 46.484375 28.515625 
L 23.828125 28.515625 
L 23.828125 18.75 
z
M 46.484375 3.90625 
L 46.484375 12.890625 
L 23.828125 12.890625 
L 23.828125 3.90625 
z
" id="SimHei-37117"/>
    </defs>
    <g transform="translate(47.339315 66.164521)scale(0.1 -0.1)">
     <use xlink:href="#SimHei-20140"/>
     <use x="100" xlink:href="#SimHei-37117"/>
     <use x="200" xlink:href="#SimHei-12450"/>
     <use x="300" xlink:href="#SimHei-12491"/>
     <use x="400" xlink:href="#SimHei-12513"/>
     <use x="500" xlink:href="#SimHei-12540"/>
     <use x="600" xlink:href="#SimHei-12471"/>
     <use x="700" xlink:href="#SimHei-12519"/>
     <use x="800" xlink:href="#SimHei-12531"/>
    </g>
   </g>
   <g id="text_34">
    <!-- 3.3% -->
    <g transform="translate(173.190598 129.042325)scale(0.1 -0.1)">
     <use xlink:href="#SimHei-51"/>
     <use x="50" xlink:href="#SimHei-46"/>
     <use x="100" xlink:href="#SimHei-51"/>
     <use x="150" xlink:href="#SimHei-37"/>
    </g>
   </g>
   <g id="text_35">
    <!-- 动画制作分布(前36%作品) -->
    <defs>
     <path d="M 64.453125 80.46875 
Q 69.140625 79.296875 73.4375 79.296875 
Q 72.65625 75.390625 72.453125 70.5 
Q 72.265625 65.625 72.265625 58.59375 
L 94.140625 58.59375 
Q 93.75 53.515625 93.359375 47.265625 
L 91.40625 2.734375 
Q 90.234375 -5.078125 84.953125 -6.828125 
Q 79.6875 -8.59375 73.046875 -9.375 
Q 71.875 -4.6875 69.140625 -0.78125 
Q 77.734375 -1.171875 80.859375 0.1875 
Q 83.984375 1.5625 83.984375 5.46875 
L 86.328125 51.953125 
L 72.265625 51.953125 
Q 71.484375 34.765625 69.71875 25.78125 
Q 67.96875 16.796875 64.25 9.171875 
Q 60.546875 1.5625 49.21875 -10.546875 
Q 45.3125 -6.640625 42.1875 -5.46875 
Q 49.609375 0.390625 54.296875 6.828125 
Q 58.984375 13.28125 60.9375 20.109375 
Q 62.890625 26.953125 63.671875 34.375 
Q 64.453125 41.796875 64.84375 51.953125 
L 58.203125 51.953125 
Q 53.90625 51.953125 48.046875 51.5625 
L 48.046875 58.984375 
Q 53.90625 58.59375 58.984375 58.59375 
L 64.84375 58.59375 
L 64.84375 69.53125 
Q 64.84375 75 64.453125 80.46875 
z
M 4.296875 47.265625 
Q 10.15625 46.875 18.359375 46.875 
L 33.203125 46.875 
Q 40.234375 46.875 49.21875 47.265625 
L 49.21875 40.234375 
Q 40.234375 40.625 33.59375 40.625 
L 29.296875 40.625 
Q 26.953125 34.375 24.015625 27.34375 
Q 21.09375 20.3125 17.1875 13.28125 
Q 32.421875 14.84375 40.234375 16.40625 
Q 38.28125 21.09375 33.984375 28.125 
Q 38.28125 30.46875 40.234375 32.03125 
Q 44.140625 25 46.875 20.109375 
Q 49.609375 15.234375 52.734375 8.203125 
Q 49.609375 6.25 45.703125 4.296875 
Q 44.140625 7.8125 42.96875 10.15625 
Q 30.46875 8.203125 22.84375 7.03125 
Q 15.234375 5.859375 9.765625 3.90625 
Q 8.203125 7.8125 5.859375 11.328125 
Q 10.9375 14.453125 15.03125 23.828125 
Q 19.140625 33.203125 21.09375 40.625 
L 18.359375 40.625 
Q 10.15625 40.625 4.296875 40.234375 
z
M 31.25 69.140625 
Q 37.890625 69.140625 46.09375 69.53125 
L 46.09375 62.109375 
Q 37.890625 62.5 31.25 62.5 
L 21.875 62.5 
Q 15.625 62.5 9.765625 62.109375 
L 9.765625 69.53125 
Q 15.234375 69.140625 21.484375 69.140625 
z
" id="SimHei-21160"/>
     <path d="M 20.703125 72.265625 
Q 18.359375 68.359375 16.796875 64.84375 
L 28.125 64.84375 
Q 28.125 74.609375 27.734375 80.078125 
L 36.71875 80.078125 
Q 36.328125 75 36.328125 64.84375 
L 42.1875 64.84375 
Q 50 64.84375 56.25 65.234375 
L 56.25 58.203125 
Q 50.78125 58.59375 42.578125 58.59375 
L 36.328125 58.59375 
L 36.328125 47.265625 
L 46.09375 47.265625 
Q 51.953125 47.265625 58.59375 47.65625 
L 58.59375 41.015625 
L 36.328125 41.015625 
L 36.328125 30.46875 
L 57.421875 30.46875 
Q 57.03125 25.78125 56.828125 17.578125 
Q 56.640625 9.375 56.4375 6.4375 
Q 56.25 3.515625 53.125 2.140625 
Q 50 0.78125 44.140625 -0.390625 
Q 43.359375 3.90625 41.40625 8.59375 
Q 46.484375 8.59375 47.65625 9.171875 
Q 48.828125 9.765625 48.828125 15.234375 
L 48.828125 24.21875 
L 36.328125 24.21875 
L 36.328125 2.734375 
Q 36.328125 -3.90625 36.71875 -8.59375 
L 27.734375 -8.59375 
Q 28.125 -1.171875 28.125 2.734375 
L 28.125 24.21875 
L 16.015625 24.21875 
L 16.015625 -0.390625 
L 7.8125 -0.390625 
Q 8.203125 4.6875 8.203125 10.15625 
L 8.203125 18.75 
Q 8.203125 26.171875 7.8125 30.46875 
L 28.125 30.46875 
L 28.125 41.015625 
L 15.625 41.015625 
Q 8.59375 41.015625 3.515625 40.625 
L 3.515625 47.65625 
Q 8.59375 47.265625 15.625 47.265625 
L 28.125 47.265625 
L 28.125 58.59375 
L 14.453125 58.59375 
Q 12.5 53.90625 10.546875 50.78125 
Q 7.03125 53.125 3.515625 54.6875 
Q 6.25 58.59375 8.203125 63.671875 
Q 10.15625 68.75 11.71875 75 
Q 15.625 73.4375 20.703125 72.265625 
z
M 91.796875 79.296875 
Q 91.40625 75.390625 91.40625 67.96875 
L 91.40625 0.390625 
Q 91.40625 -5.078125 87.296875 -6.4375 
Q 83.203125 -7.8125 75.390625 -8.984375 
Q 74.21875 -3.90625 72.265625 0 
Q 78.90625 0 81.25 0.390625 
Q 83.59375 0.78125 83.59375 5.46875 
L 83.59375 67.96875 
Q 83.59375 74.609375 83.203125 79.296875 
L 91.796875 79.296875 
z
M 73.046875 67.578125 
Q 72.65625 62.109375 72.65625 57.8125 
L 72.65625 25.390625 
Q 72.65625 19.921875 73.046875 12.109375 
L 64.453125 12.109375 
Q 65.234375 18.75 65.234375 25.390625 
L 65.234375 57.8125 
Q 65.234375 61.71875 64.453125 67.578125 
L 73.046875 67.578125 
z
" id="SimHei-21046"/>
     <path d="M 63.671875 78.90625 
Q 59.765625 75.78125 55.078125 64.0625 
L 80.859375 64.0625 
Q 89.453125 64.0625 94.53125 64.453125 
L 94.53125 57.421875 
Q 89.453125 57.8125 80.859375 57.8125 
L 62.890625 57.8125 
L 62.890625 42.578125 
L 78.90625 42.578125 
Q 85.546875 42.578125 89.84375 42.96875 
L 89.84375 35.546875 
Q 84.765625 35.9375 78.90625 35.9375 
L 62.890625 35.9375 
L 62.890625 18.359375 
L 79.6875 18.359375 
Q 87.5 18.359375 92.578125 18.75 
L 92.578125 11.328125 
Q 87.5 11.71875 80.078125 11.71875 
L 62.890625 11.71875 
L 62.890625 4.296875 
Q 62.890625 -6.640625 63.28125 -10.546875 
L 55.078125 -10.546875 
Q 55.46875 -6.25 55.46875 1.171875 
L 55.46875 57.8125 
L 51.5625 57.8125 
Q 45.703125 47.65625 40.234375 40.234375 
Q 35.9375 44.140625 32.8125 45.3125 
Q 38.28125 50.78125 44.140625 60.9375 
Q 50 71.09375 53.515625 82.8125 
Q 59.375 80.078125 63.671875 78.90625 
z
M 36.328125 77.34375 
Q 32.8125 74.609375 27.34375 60.546875 
L 27.34375 10.546875 
Q 27.34375 -1.953125 27.734375 -9.375 
L 18.75 -9.375 
Q 19.140625 -2.34375 19.140625 10.15625 
L 19.140625 46.875 
Q 13.671875 37.890625 8.59375 31.640625 
Q 5.46875 36.328125 3.125 38.28125 
Q 8.203125 43.75 15.421875 56.4375 
Q 22.65625 69.140625 26.171875 82.421875 
Q 30.46875 79.6875 36.328125 77.34375 
z
" id="SimHei-20316"/>
     <path d="M 15.625 -10.15625 
Q 12.890625 -5.859375 8.984375 -3.515625 
Q 15.234375 -1.171875 20.3125 2.140625 
Q 25.390625 5.46875 29.296875 10.34375 
Q 33.203125 15.234375 35.15625 21.09375 
Q 37.109375 26.953125 37.890625 35.546875 
Q 28.90625 35.546875 23.4375 35.15625 
L 23.4375 43.359375 
Q 29.6875 42.96875 39.453125 42.96875 
L 78.515625 42.96875 
Q 77.734375 37.109375 77.34375 32.8125 
L 74.21875 3.90625 
Q 73.4375 -3.125 67.96875 -5.46875 
Q 62.5 -7.8125 55.859375 -8.203125 
Q 55.46875 -4.296875 51.953125 0.78125 
Q 60.15625 0.390625 63.078125 1.359375 
Q 66.015625 2.34375 66.796875 8.203125 
L 69.53125 35.546875 
L 46.09375 35.546875 
Q 44.921875 25.390625 42.765625 18.546875 
Q 40.625 11.71875 36.71875 6.640625 
Q 32.8125 1.5625 27.34375 -2.734375 
Q 21.875 -7.03125 15.625 -10.15625 
z
M 61.71875 80.859375 
Q 64.453125 72.65625 72.84375 62.109375 
Q 81.25 51.5625 96.484375 43.75 
Q 93.359375 41.015625 90.234375 35.546875 
Q 83.203125 40.625 77.921875 45.109375 
Q 72.65625 49.609375 69.140625 53.515625 
Q 65.625 57.421875 61.328125 64.640625 
Q 57.03125 71.875 54.296875 78.125 
Q 58.59375 79.296875 61.71875 80.859375 
z
M 42.1875 75.390625 
Q 38.671875 69.140625 36.328125 64.453125 
Q 33.984375 59.765625 31.640625 56.046875 
Q 29.296875 52.34375 24.609375 46.09375 
Q 19.921875 39.84375 13.28125 33.203125 
Q 9.765625 36.71875 6.25 38.671875 
Q 14.0625 45.703125 18.546875 51.5625 
Q 23.046875 57.421875 27.140625 64.25 
Q 31.25 71.09375 34.375 79.296875 
Q 37.5 76.953125 42.1875 75.390625 
z
" id="SimHei-20998"/>
     <path d="M 37.109375 66.015625 
Q 41.40625 74.609375 43.359375 82.8125 
Q 48.828125 80.859375 53.125 79.296875 
Q 51.171875 77.734375 46.09375 66.015625 
L 75 66.015625 
Q 86.71875 66.015625 94.140625 66.40625 
L 94.140625 59.375 
L 42.578125 59.375 
Q 36.328125 48.4375 30.859375 41.796875 
L 51.171875 41.796875 
Q 51.171875 50.390625 50.78125 55.859375 
L 58.984375 55.859375 
Q 58.59375 50.390625 58.59375 41.796875 
L 85.9375 41.796875 
Q 85.546875 34.765625 85.546875 27.734375 
L 85.546875 11.71875 
Q 85.546875 4.296875 81.4375 2.34375 
Q 77.34375 0.390625 69.53125 -0.390625 
Q 68.75 5.078125 66.015625 8.59375 
Q 75 8.59375 76.75 9.765625 
Q 78.515625 10.9375 78.125 16.015625 
L 78.125 35.15625 
L 58.59375 35.15625 
L 58.59375 8.59375 
Q 58.59375 0.390625 58.984375 -9.375 
L 50.78125 -9.375 
Q 51.171875 0.390625 51.171875 8.59375 
L 51.171875 35.15625 
L 32.8125 35.15625 
L 32.8125 0 
L 25 0 
Q 25.390625 8.203125 25.390625 16.015625 
L 25.390625 34.765625 
Q 20.3125 28.90625 10.15625 19.921875 
Q 7.421875 23.046875 3.125 25.78125 
Q 11.71875 31.640625 19.71875 40.03125 
Q 27.734375 48.4375 33.59375 59.375 
L 24.21875 59.375 
Q 14.453125 59.375 6.25 58.984375 
L 6.25 66.40625 
Q 14.453125 66.015625 24.21875 66.015625 
z
" id="SimHei-24067"/>
     <path d="M 46.484375 -3.125 
L 42.1875 -7.421875 
Q 32.421875 1.953125 27.53125 12.109375 
Q 22.65625 22.265625 22.65625 35.15625 
Q 22.65625 48.046875 27.53125 58.203125 
Q 32.421875 68.359375 42.1875 78.125 
L 46.484375 73.828125 
Q 37.5 65.234375 33 56.046875 
Q 28.515625 46.875 28.515625 35.15625 
Q 28.515625 23.4375 33 14.25 
Q 37.5 5.078125 46.484375 -3.125 
z
" id="SimHei-40"/>
     <path d="M 32.421875 -1.5625 
Q 37.5 -1.5625 39.640625 -1.359375 
Q 41.796875 -1.171875 41.796875 1.5625 
L 41.796875 13.671875 
L 20.703125 13.671875 
L 20.703125 -10.15625 
L 12.5 -10.15625 
Q 13.28125 -3.125 13.28125 5.46875 
L 13.28125 36.71875 
Q 13.28125 44.53125 12.890625 51.5625 
L 49.609375 51.5625 
Q 49.21875 44.921875 49.21875 37.109375 
L 49.21875 -2.34375 
Q 49.21875 -6.25 46.09375 -7.421875 
Q 42.96875 -8.59375 35.546875 -9.765625 
Q 34.375 -5.46875 32.421875 -1.5625 
z
M 77.34375 79.296875 
Q 75.390625 77.734375 73.234375 74.21875 
Q 71.09375 70.703125 68.359375 66.015625 
L 84.375 66.015625 
Q 89.84375 66.015625 96.484375 66.40625 
L 96.484375 58.984375 
Q 90.234375 59.765625 82.8125 59.765625 
L 21.09375 59.765625 
Q 10.9375 59.765625 3.90625 58.984375 
L 3.90625 66.40625 
Q 12.109375 66.015625 21.09375 66.015625 
L 60.546875 66.015625 
Q 67.1875 78.515625 67.96875 82.8125 
Q 72.265625 80.46875 77.34375 79.296875 
z
M 68.359375 -1.171875 
Q 75.390625 -1.5625 77.140625 -1.171875 
Q 78.90625 -0.78125 78.90625 2.34375 
L 78.90625 42.96875 
Q 78.90625 47.65625 78.515625 53.125 
L 86.71875 53.125 
Q 86.328125 48.046875 86.328125 42.96875 
L 86.328125 -0.390625 
Q 86.328125 -5.46875 83.78125 -7.03125 
Q 81.25 -8.59375 71.875 -9.375 
Q 71.09375 -4.296875 68.359375 -1.171875 
z
M 58.984375 8.984375 
Q 59.375 14.84375 59.375 19.140625 
L 59.375 37.109375 
Q 59.375 43.359375 58.984375 48.046875 
L 67.1875 48.046875 
Q 66.796875 43.359375 66.796875 37.109375 
L 66.796875 19.53125 
Q 66.796875 13.671875 67.1875 8.984375 
z
M 41.796875 35.15625 
L 41.796875 45.703125 
L 20.703125 45.703125 
L 20.703125 35.15625 
z
M 41.796875 19.53125 
L 41.796875 29.296875 
L 20.703125 29.296875 
L 20.703125 19.53125 
z
M 34.765625 67.1875 
Q 33.203125 71.484375 27.34375 78.90625 
Q 31.640625 80.859375 34.375 82.8125 
Q 39.84375 75.78125 42.578125 71.09375 
Q 39.0625 69.53125 34.765625 67.1875 
z
" id="SimHei-21069"/>
     <path d="M 76.5625 76.171875 
Q 76.171875 69.140625 76.171875 60.15625 
Q 76.171875 51.5625 76.5625 44.921875 
L 23.046875 44.921875 
Q 23.828125 51.5625 23.828125 60.546875 
Q 23.828125 69.53125 23.046875 76.171875 
L 76.5625 76.171875 
z
M 91.40625 35.9375 
Q 91.015625 28.90625 91.015625 14.453125 
Q 91.015625 0.390625 91.40625 -5.46875 
L 83.984375 -5.46875 
L 83.984375 0 
L 61.71875 0 
L 61.71875 -6.640625 
L 54.296875 -6.640625 
Q 54.6875 0 54.6875 14.453125 
Q 54.6875 28.90625 54.296875 35.9375 
L 91.40625 35.9375 
z
M 37.5 -6.25 
L 37.5 0 
L 16.40625 0 
L 16.40625 -6.640625 
L 8.984375 -6.640625 
Q 9.375 0 9.375 14.453125 
Q 9.375 29.296875 8.984375 35.9375 
L 44.921875 35.9375 
Q 44.140625 29.296875 44.140625 17.1875 
Q 44.140625 5.46875 44.921875 -6.25 
z
M 69.140625 51.5625 
L 69.140625 69.53125 
L 30.859375 69.53125 
L 30.859375 51.5625 
z
M 83.984375 7.03125 
L 83.984375 28.90625 
L 61.71875 28.90625 
L 61.71875 7.03125 
z
M 37.5 7.03125 
L 37.5 28.90625 
L 16.40625 28.90625 
L 16.40625 7.03125 
z
" id="SimHei-21697"/>
     <path d="M 26.171875 35.15625 
Q 26.171875 22.265625 21.28125 12.109375 
Q 16.40625 1.953125 6.640625 -7.421875 
L 2.34375 -3.125 
Q 11.328125 5.078125 15.8125 14.25 
Q 20.3125 23.4375 20.3125 35.15625 
Q 20.3125 46.875 15.8125 56.046875 
Q 11.328125 65.234375 2.34375 73.828125 
L 6.640625 78.125 
Q 16.40625 68.359375 21.28125 58.203125 
Q 26.171875 48.046875 26.171875 35.15625 
z
" id="SimHei-41"/>
    </defs>
    <g transform="translate(152.4 13.2)scale(0.12 -0.12)">
     <use xlink:href="#SimHei-21160"/>
     <use x="100" xlink:href="#SimHei-30011"/>
     <use x="200" xlink:href="#SimHei-21046"/>
     <use x="300" xlink:href="#SimHei-20316"/>
     <use x="400" xlink:href="#SimHei-20998"/>
     <use x="500" xlink:href="#SimHei-24067"/>
     <use x="600" xlink:href="#SimHei-40"/>
     <use x="650" xlink:href="#SimHei-21069"/>
     <use x="750" xlink:href="#SimHei-51"/>
     <use x="800" xlink:href="#SimHei-54"/>
     <use x="850" xlink:href="#SimHei-37"/>
     <use x="900" xlink:href="#SimHei-20316"/>
     <use x="1000" xlink:href="#SimHei-21697"/>
     <use x="1100" xlink:href="#SimHei-41"/>
    </g>
   </g>
  </g>
 </g>
</svg>
