<?xml version="1.0" encoding="utf-8" standalone="no"?>
<!DOCTYPE svg PUBLIC "-//W3C//DTD SVG 1.1//EN"
  "http://www.w3.org/Graphics/SVG/1.1/DTD/svg11.dtd">
<!-- Created with matplotlib (https://matplotlib.org/) -->
<svg height="288pt" version="1.1" viewBox="0 0 432 288" width="432pt" xmlns="http://www.w3.org/2000/svg" xmlns:xlink="http://www.w3.org/1999/xlink">
 <defs>
  <style type="text/css">
*{stroke-linecap:butt;stroke-linejoin:round;}
  </style>
 </defs>
 <g id="figure_1">
  <g id="patch_1">
   <path d="M 0 288 
L 432 288 
L 432 0 
L 0 0 
z
" style="fill:#ffffff;"/>
  </g>
  <g id="axes_1">
   <g id="patch_2">
    <path d="M 54 252 
L 388.8 252 
L 388.8 34.56 
L 54 34.56 
z
" style="fill:#ffffff;"/>
   </g>
   <g id="patch_3">
    <path clip-path="url(#p75d18a91a2)" d="M 54 220.937143 
L 54 174.342857 
L 388.8 174.342857 
L 388.8 220.937143 
z
" style="fill:#ffff00;opacity:0.2;"/>
   </g>
   <g id="matplotlib.axis_1">
    <g id="xtick_1">
     <g id="line2d_1">
      <defs>
       <path d="M 0 0 
L 0 3.5 
" id="mbb46d89c42" style="stroke:#000000;stroke-width:0.8;"/>
      </defs>
      <g>
       <use style="stroke:#000000;stroke-width:0.8;" x="54" xlink:href="#mbb46d89c42" y="252"/>
      </g>
     </g>
     <g id="text_1">
      <!-- 50 -->
      <defs>
       <path d="M 8.59375 20.703125 
Q 11.328125 10.15625 17.96875 8.984375 
Q 24.609375 7.8125 28.703125 10.34375 
Q 32.8125 12.890625 34.5625 16.984375 
Q 36.328125 21.09375 36.125 26.171875 
Q 35.9375 31.25 33.390625 34.765625 
Q 30.859375 38.28125 26.953125 39.453125 
Q 23.046875 40.625 18.15625 39.453125 
Q 13.28125 38.28125 10.15625 33.984375 
L 3.515625 34.765625 
Q 4.296875 37.109375 10.9375 68.359375 
L 41.796875 68.359375 
L 41.796875 61.328125 
L 16.796875 61.328125 
Q 14.84375 50.78125 12.890625 44.53125 
Q 18.75 47.265625 23.828125 47.0625 
Q 28.90625 46.875 33.59375 44.71875 
Q 38.28125 42.578125 40.421875 38.859375 
Q 42.578125 35.15625 43.546875 31.4375 
Q 44.53125 27.734375 44.328125 23.4375 
Q 44.140625 19.140625 42.578125 14.640625 
Q 41.015625 10.15625 37.890625 7.21875 
Q 34.765625 4.296875 30.265625 2.53125 
Q 25.78125 0.78125 19.921875 1.171875 
Q 14.0625 1.5625 8.78125 5.46875 
Q 3.515625 9.375 1.5625 18.75 
z
" id="SimHei-53"/>
       <path d="M 3.125 29.296875 
Q 3.90625 50 6.4375 56.046875 
Q 8.984375 62.109375 13.671875 66.015625 
Q 18.359375 69.921875 25.1875 69.921875 
Q 32.03125 69.921875 37.109375 64.25 
Q 42.1875 58.59375 43.75 50 
Q 45.3125 41.40625 44.71875 30.265625 
Q 44.140625 19.140625 40.8125 12.109375 
Q 37.5 5.078125 30.859375 2.34375 
Q 24.21875 -0.390625 17.578125 2.921875 
Q 10.9375 6.25 8.203125 11.71875 
Q 5.46875 17.1875 4.296875 23.234375 
Q 3.125 29.296875 3.90625 50 
z
M 12.890625 52.734375 
Q 10.546875 31.25 12.5 22.84375 
Q 14.453125 14.453125 18.9375 10.9375 
Q 23.4375 7.421875 28.125 9.5625 
Q 32.8125 11.71875 34.953125 18.15625 
Q 37.109375 24.609375 37.109375 32.21875 
Q 37.109375 39.84375 36.515625 46.09375 
Q 35.9375 52.34375 33 57.421875 
Q 30.078125 62.5 25.1875 62.6875 
Q 20.3125 62.890625 16.59375 57.8125 
Q 12.890625 52.734375 10.546875 31.25 
z
" id="SimHei-48"/>
      </defs>
      <g transform="translate(49 265.875)scale(0.1 -0.1)">
       <use xlink:href="#SimHei-53"/>
       <use x="50" xlink:href="#SimHei-48"/>
      </g>
     </g>
    </g>
    <g id="xtick_2">
     <g id="line2d_2">
      <g>
       <use style="stroke:#000000;stroke-width:0.8;" x="122.326531" xlink:href="#mbb46d89c42" y="252"/>
      </g>
     </g>
     <g id="text_2">
      <!-- 60 -->
      <defs>
       <path d="M 3.515625 19.53125 
Q 4.296875 30.859375 6.046875 34.765625 
Q 7.8125 38.671875 11.328125 44.53125 
L 27.34375 69.53125 
L 36.328125 69.53125 
L 19.921875 43.75 
Q 30.46875 46.484375 36.71875 42.96875 
Q 42.96875 39.453125 45.109375 34.953125 
Q 47.265625 30.46875 47.453125 25.1875 
Q 47.65625 19.921875 45.890625 14.84375 
Q 44.140625 9.765625 39.640625 5.65625 
Q 35.15625 1.5625 27.140625 1.171875 
Q 19.140625 0.78125 13.46875 4.09375 
Q 7.8125 7.421875 5.65625 13.46875 
Q 3.515625 19.53125 4.296875 30.859375 
z
M 12.5 16.015625 
Q 19.53125 8.59375 25.390625 8.203125 
Q 31.25 7.8125 35.15625 12.109375 
Q 39.0625 16.40625 39.0625 24.609375 
Q 39.0625 32.8125 34.171875 35.9375 
Q 29.296875 39.0625 23.234375 38.28125 
Q 17.1875 37.5 14.453125 32.421875 
Q 11.71875 27.34375 12.109375 21.671875 
Q 12.5 16.015625 19.53125 8.59375 
z
" id="SimHei-54"/>
      </defs>
      <g transform="translate(117.326531 265.875)scale(0.1 -0.1)">
       <use xlink:href="#SimHei-54"/>
       <use x="50" xlink:href="#SimHei-48"/>
      </g>
     </g>
    </g>
    <g id="xtick_3">
     <g id="line2d_3">
      <g>
       <use style="stroke:#000000;stroke-width:0.8;" x="190.653061" xlink:href="#mbb46d89c42" y="252"/>
      </g>
     </g>
     <g id="text_3">
      <!-- 70 -->
      <defs>
       <path d="M 13.28125 2.34375 
Q 20.3125 32.03125 37.890625 61.328125 
L 4.296875 61.328125 
L 4.296875 68.359375 
L 46.09375 68.359375 
L 46.09375 61.71875 
Q 27.734375 32.03125 21.875 2.34375 
L 13.28125 2.34375 
z
" id="SimHei-55"/>
      </defs>
      <g transform="translate(185.653061 265.875)scale(0.1 -0.1)">
       <use xlink:href="#SimHei-55"/>
       <use x="50" xlink:href="#SimHei-48"/>
      </g>
     </g>
    </g>
    <g id="xtick_4">
     <g id="line2d_4">
      <g>
       <use style="stroke:#000000;stroke-width:0.8;" x="258.979592" xlink:href="#mbb46d89c42" y="252"/>
      </g>
     </g>
     <g id="text_4">
      <!-- 80 -->
      <defs>
       <path d="M 2.734375 16.796875 
Q 2.734375 26.171875 5.078125 30.65625 
Q 7.421875 35.15625 12.890625 37.890625 
Q 8.203125 40.625 6.640625 43.9375 
Q 5.078125 47.265625 4.875 51.5625 
Q 4.6875 55.859375 6.046875 58.984375 
Q 7.421875 62.109375 10.15625 64.84375 
Q 12.890625 67.578125 16.203125 68.546875 
Q 19.53125 69.53125 23.4375 69.53125 
Q 27.34375 69.53125 30.46875 68.75 
Q 33.59375 67.96875 37.109375 65.421875 
Q 40.625 62.890625 42.1875 58.203125 
Q 43.75 53.515625 41.984375 47.265625 
Q 40.234375 41.015625 32.8125 37.5 
Q 39.453125 35.546875 42.1875 31.4375 
Q 44.921875 27.34375 44.921875 21.484375 
Q 44.921875 15.625 43.15625 12.109375 
Q 41.40625 8.59375 39.25 6.25 
Q 37.109375 3.90625 33.390625 2.53125 
Q 29.6875 1.171875 24.015625 1.171875 
Q 18.359375 1.171875 14.25 2.53125 
Q 10.15625 3.90625 7.421875 6.640625 
Q 4.6875 9.375 3.703125 13.078125 
Q 2.734375 16.796875 2.734375 26.171875 
z
M 10.9375 26.5625 
Q 10.546875 17.1875 12.296875 13.671875 
Q 14.0625 10.15625 18.75 9.171875 
Q 23.4375 8.203125 28.515625 9.375 
Q 33.59375 10.546875 35.546875 14.84375 
Q 37.5 19.140625 36.90625 23.4375 
Q 36.328125 27.734375 32.03125 30.65625 
Q 27.734375 33.59375 22.65625 33.203125 
Q 17.578125 32.8125 14.25 29.6875 
Q 10.9375 26.5625 10.546875 17.1875 
z
M 12.109375 56.25 
Q 12.109375 48.4375 14.84375 44.921875 
Q 17.578125 41.40625 23.4375 41.40625 
Q 29.296875 41.40625 32.21875 44.921875 
Q 35.15625 48.4375 34.953125 53.3125 
Q 34.765625 58.203125 31.4375 60.546875 
Q 28.125 62.890625 22.453125 62.5 
Q 16.796875 62.109375 14.453125 59.171875 
Q 12.109375 56.25 12.109375 48.4375 
z
" id="SimHei-56"/>
      </defs>
      <g transform="translate(253.979592 265.875)scale(0.1 -0.1)">
       <use xlink:href="#SimHei-56"/>
       <use x="50" xlink:href="#SimHei-48"/>
      </g>
     </g>
    </g>
    <g id="xtick_5">
     <g id="line2d_5">
      <g>
       <use style="stroke:#000000;stroke-width:0.8;" x="327.306122" xlink:href="#mbb46d89c42" y="252"/>
      </g>
     </g>
     <g id="text_5">
      <!-- 90 -->
      <defs>
       <path d="M 12.5 1.171875 
Q 21.09375 15.625 26.5625 27.34375 
Q 16.796875 25.78125 10.34375 29.875 
Q 3.90625 33.984375 2.53125 41.015625 
Q 1.171875 48.046875 2.734375 53.703125 
Q 4.296875 59.375 7.609375 63.078125 
Q 10.9375 66.796875 15.625 68.359375 
Q 20.3125 69.921875 24.015625 69.921875 
Q 27.734375 69.921875 31.640625 68.359375 
Q 35.546875 66.796875 38.671875 63.671875 
Q 41.796875 60.546875 42.96875 57.21875 
Q 44.140625 53.90625 44.140625 48.625 
Q 44.140625 43.359375 40.234375 35.15625 
Q 36.328125 26.953125 21.09375 1.171875 
z
M 9.765625 50 
Q 10.9375 39.84375 14.640625 36.515625 
Q 18.359375 33.203125 22.65625 33.59375 
Q 26.953125 33.984375 29.484375 35.9375 
Q 32.03125 37.890625 34.375 42.578125 
Q 35.9375 48.4375 35.15625 52.53125 
Q 34.375 56.640625 31.046875 59.375 
Q 27.734375 62.109375 23.828125 62.109375 
Q 21.484375 62.5 17.765625 60.9375 
Q 14.0625 59.375 11.90625 54.6875 
Q 9.765625 50 10.9375 39.84375 
z
" id="SimHei-57"/>
      </defs>
      <g transform="translate(322.306122 265.875)scale(0.1 -0.1)">
       <use xlink:href="#SimHei-57"/>
       <use x="50" xlink:href="#SimHei-48"/>
      </g>
     </g>
    </g>
    <g id="text_6">
     <!-- 百分比排名 -->
     <defs>
      <path d="M 78.90625 75.78125 
Q 88.671875 75.78125 92.96875 76.171875 
L 92.96875 69.140625 
Q 87.5 69.53125 78.90625 69.53125 
L 53.125 69.53125 
Q 50 60.546875 48.046875 53.90625 
L 82.8125 53.90625 
Q 82.421875 46.484375 82.421875 38.671875 
L 82.421875 8.59375 
Q 82.421875 -0.78125 82.8125 -8.203125 
L 75 -8.203125 
L 75 -0.390625 
L 25.390625 -0.390625 
L 25.390625 -9.375 
L 17.578125 -9.375 
Q 17.96875 4.296875 17.96875 8.59375 
L 17.96875 37.5 
Q 17.96875 48.4375 17.578125 53.90625 
L 40.625 53.90625 
Q 43.359375 61.71875 44.921875 69.53125 
L 21.875 69.53125 
Q 15.234375 69.53125 6.640625 69.140625 
L 6.640625 76.171875 
Q 14.453125 75.78125 21.484375 75.78125 
z
M 75 6.25 
L 75 23.828125 
L 25.390625 23.828125 
L 25.390625 6.25 
z
M 75 30.46875 
L 75 47.65625 
L 25.390625 47.65625 
L 25.390625 30.46875 
z
" id="SimHei-30334"/>
      <path d="M 15.625 -10.15625 
Q 12.890625 -5.859375 8.984375 -3.515625 
Q 15.234375 -1.171875 20.3125 2.140625 
Q 25.390625 5.46875 29.296875 10.34375 
Q 33.203125 15.234375 35.15625 21.09375 
Q 37.109375 26.953125 37.890625 35.546875 
Q 28.90625 35.546875 23.4375 35.15625 
L 23.4375 43.359375 
Q 29.6875 42.96875 39.453125 42.96875 
L 78.515625 42.96875 
Q 77.734375 37.109375 77.34375 32.8125 
L 74.21875 3.90625 
Q 73.4375 -3.125 67.96875 -5.46875 
Q 62.5 -7.8125 55.859375 -8.203125 
Q 55.46875 -4.296875 51.953125 0.78125 
Q 60.15625 0.390625 63.078125 1.359375 
Q 66.015625 2.34375 66.796875 8.203125 
L 69.53125 35.546875 
L 46.09375 35.546875 
Q 44.921875 25.390625 42.765625 18.546875 
Q 40.625 11.71875 36.71875 6.640625 
Q 32.8125 1.5625 27.34375 -2.734375 
Q 21.875 -7.03125 15.625 -10.15625 
z
M 61.71875 80.859375 
Q 64.453125 72.65625 72.84375 62.109375 
Q 81.25 51.5625 96.484375 43.75 
Q 93.359375 41.015625 90.234375 35.546875 
Q 83.203125 40.625 77.921875 45.109375 
Q 72.65625 49.609375 69.140625 53.515625 
Q 65.625 57.421875 61.328125 64.640625 
Q 57.03125 71.875 54.296875 78.125 
Q 58.59375 79.296875 61.71875 80.859375 
z
M 42.1875 75.390625 
Q 38.671875 69.140625 36.328125 64.453125 
Q 33.984375 59.765625 31.640625 56.046875 
Q 29.296875 52.34375 24.609375 46.09375 
Q 19.921875 39.84375 13.28125 33.203125 
Q 9.765625 36.71875 6.25 38.671875 
Q 14.0625 45.703125 18.546875 51.5625 
Q 23.046875 57.421875 27.140625 64.25 
Q 31.25 71.09375 34.375 79.296875 
Q 37.5 76.953125 42.1875 75.390625 
z
" id="SimHei-20998"/>
      <path d="M 58.984375 79.6875 
Q 58.59375 71.484375 58.59375 64.0625 
L 58.59375 47.65625 
Q 76.953125 56.25 85.546875 65.234375 
Q 88.671875 60.9375 92.1875 57.421875 
Q 87.5 54.6875 78.703125 49.796875 
Q 69.921875 44.921875 58.59375 39.84375 
L 58.59375 7.03125 
Q 58.59375 1.5625 63.28125 1.5625 
L 78.125 1.5625 
Q 80.859375 1.5625 82.21875 3.90625 
Q 83.59375 6.25 85.15625 14.0625 
Q 88.28125 12.109375 94.140625 10.546875 
Q 91.40625 0 88.28125 -2.734375 
Q 85.15625 -5.46875 81.640625 -5.46875 
L 60.9375 -5.46875 
Q 50.78125 -5.46875 50.78125 4.296875 
L 50.78125 62.5 
Q 50.78125 71.09375 50.390625 79.6875 
L 58.984375 79.6875 
z
M 19.921875 77.734375 
Q 19.53125 71.484375 19.53125 62.5 
L 19.53125 49.21875 
L 28.90625 49.21875 
Q 36.328125 49.21875 44.921875 49.609375 
L 44.921875 41.40625 
Q 36.328125 41.796875 28.90625 41.796875 
L 19.53125 41.796875 
L 19.53125 7.421875 
Q 25.78125 10.15625 30.65625 12.6875 
Q 35.546875 15.234375 44.53125 19.921875 
Q 45.3125 14.84375 46.09375 11.71875 
Q 37.109375 7.421875 27.53125 2.734375 
Q 17.96875 -1.953125 14.453125 -5.078125 
Q 11.71875 -1.5625 8.984375 3.125 
Q 10.9375 4.6875 11.71875 9.375 
L 11.71875 61.71875 
Q 11.71875 71.09375 11.328125 77.734375 
L 19.921875 77.734375 
z
" id="SimHei-27604"/>
      <path d="M 3.515625 28.515625 
Q 10.546875 29.6875 17.96875 32.421875 
L 17.96875 53.515625 
L 14.84375 53.515625 
Q 10.15625 53.515625 5.46875 53.125 
L 5.46875 60.15625 
Q 9.375 59.765625 14.84375 59.765625 
L 17.96875 59.765625 
L 17.96875 70.3125 
Q 17.96875 75.78125 17.578125 80.859375 
L 26.171875 80.859375 
Q 25.390625 76.5625 25.390625 70.3125 
L 25.390625 59.765625 
Q 32.421875 59.765625 35.546875 60.15625 
L 35.546875 53.125 
Q 29.296875 53.515625 25.390625 53.515625 
L 25.390625 34.765625 
Q 30.46875 36.328125 35.546875 39.0625 
Q 35.546875 34.375 35.9375 32.03125 
Q 32.421875 30.859375 25.390625 28.125 
L 25.390625 -1.5625 
Q 25 -6.640625 22.0625 -7.8125 
Q 19.140625 -8.984375 10.9375 -10.15625 
Q 9.375 -3.515625 7.03125 -1.171875 
Q 13.671875 -1.953125 15.625 -1.75 
Q 17.578125 -1.5625 17.96875 1.171875 
L 17.96875 25.78125 
Q 13.28125 24.21875 7.03125 20.3125 
Q 5.859375 23.828125 3.515625 28.515625 
z
M 78.90625 80.078125 
Q 78.515625 75 78.515625 67.1875 
L 78.515625 62.5 
Q 89.0625 62.5 95.3125 63.28125 
L 95.3125 55.859375 
Q 89.453125 56.25 86.328125 56.25 
L 78.515625 56.25 
L 78.515625 41.015625 
Q 87.890625 41.015625 92.96875 41.40625 
L 92.96875 33.984375 
Q 87.890625 34.375 78.515625 34.375 
L 78.515625 16.796875 
Q 89.84375 16.796875 96.09375 17.1875 
L 96.09375 9.765625 
Q 91.40625 10.15625 78.515625 10.15625 
L 78.515625 4.296875 
Q 78.515625 1.171875 78.90625 -9.375 
L 71.09375 -9.375 
L 71.09375 67.1875 
Q 71.09375 75.78125 70.703125 80.078125 
L 78.90625 80.078125 
z
M 53.515625 67.96875 
Q 53.515625 76.953125 53.125 80.46875 
L 61.328125 80.46875 
Q 60.9375 75 60.9375 66.40625 
L 60.9375 -9.375 
L 53.125 -9.375 
Q 53.515625 -0.78125 53.515625 4.296875 
L 53.515625 10.15625 
Q 41.015625 10.15625 34.765625 9.765625 
L 34.765625 17.1875 
Q 39.84375 16.796875 53.515625 16.796875 
L 53.515625 34.375 
Q 43.359375 34.375 39.453125 33.59375 
L 39.453125 41.40625 
Q 42.96875 41.015625 53.515625 41.015625 
L 53.515625 56.25 
Q 42.1875 56.25 38.28125 55.859375 
L 38.28125 63.28125 
Q 42.578125 62.5 53.515625 62.5 
z
" id="SimHei-25490"/>
      <path d="M 45.3125 78.125 
Q 43.359375 76.171875 41.984375 74.21875 
Q 40.625 72.265625 38.671875 69.53125 
L 83.59375 69.53125 
Q 78.90625 62.5 70.5 51.75 
Q 62.109375 41.015625 46.484375 31.25 
L 85.9375 31.25 
Q 85.546875 25.390625 85.546875 19.140625 
L 85.546875 3.125 
Q 85.546875 -3.515625 85.9375 -9.765625 
L 77.734375 -9.765625 
L 77.734375 -1.171875 
L 35.15625 -1.171875 
L 35.15625 -10.15625 
L 27.34375 -10.15625 
Q 27.734375 -4.6875 27.734375 2.34375 
L 27.734375 21.875 
Q 14.84375 16.40625 9.765625 14.84375 
Q 8.203125 18.75 4.6875 22.265625 
Q 14.84375 24.21875 27.140625 29.296875 
Q 39.453125 34.375 46.09375 39.453125 
Q 37.5 47.265625 30.859375 51.5625 
Q 33.59375 53.90625 36.328125 57.421875 
Q 48.828125 47.265625 52.734375 44.140625 
Q 62.5 51.5625 70.3125 63.28125 
L 34.765625 63.28125 
Q 23.046875 49.21875 16.40625 44.140625 
Q 14.0625 46.484375 9.375 49.21875 
Q 18.359375 55.078125 24.796875 62.6875 
Q 31.25 70.3125 36.71875 82.03125 
Q 41.796875 79.296875 45.3125 78.125 
z
M 77.734375 5.078125 
L 77.734375 25 
L 35.15625 25 
L 35.15625 5.078125 
z
" id="SimHei-21517"/>
     </defs>
     <g transform="translate(196.4 279.09375)scale(0.1 -0.1)">
      <use xlink:href="#SimHei-30334"/>
      <use x="100" xlink:href="#SimHei-20998"/>
      <use x="200" xlink:href="#SimHei-27604"/>
      <use x="300" xlink:href="#SimHei-25490"/>
      <use x="400" xlink:href="#SimHei-21517"/>
     </g>
    </g>
   </g>
   <g id="matplotlib.axis_2">
    <g id="ytick_1">
     <g id="line2d_6">
      <defs>
       <path d="M 0 0 
L -3.5 0 
" id="mf5d4e57b76" style="stroke:#000000;stroke-width:0.8;"/>
      </defs>
      <g>
       <use style="stroke:#000000;stroke-width:0.8;" x="54" xlink:href="#mf5d4e57b76" y="252"/>
      </g>
     </g>
     <g id="text_7">
      <!-- 0 -->
      <g transform="translate(42 255.4375)scale(0.1 -0.1)">
       <use xlink:href="#SimHei-48"/>
      </g>
     </g>
    </g>
    <g id="ytick_2">
     <g id="line2d_7">
      <g>
       <use style="stroke:#000000;stroke-width:0.8;" x="54" xlink:href="#mf5d4e57b76" y="220.937143"/>
      </g>
     </g>
     <g id="text_8">
      <!-- 1 -->
      <defs>
       <path d="M 21.875 56.25 
Q 16.796875 51.171875 8.984375 46.484375 
L 8.984375 53.90625 
Q 18.75 60.546875 25 69.53125 
L 29.6875 69.53125 
L 29.6875 2.34375 
L 21.875 2.34375 
z
" id="SimHei-49"/>
      </defs>
      <g transform="translate(42 224.374643)scale(0.1 -0.1)">
       <use xlink:href="#SimHei-49"/>
      </g>
     </g>
    </g>
    <g id="ytick_3">
     <g id="line2d_8">
      <g>
       <use style="stroke:#000000;stroke-width:0.8;" x="54" xlink:href="#mf5d4e57b76" y="189.874286"/>
      </g>
     </g>
     <g id="text_9">
      <!-- 2 -->
      <defs>
       <path d="M 4.6875 3.90625 
Q 5.078125 9.765625 10.15625 14.453125 
Q 15.234375 19.140625 23.046875 29.09375 
Q 30.859375 39.0625 33.203125 44.53125 
Q 35.546875 50 34.953125 53.90625 
Q 34.375 57.8125 31.25 60.34375 
Q 28.125 62.890625 24.015625 62.5 
Q 19.921875 62.109375 16.203125 59.375 
Q 12.5 56.640625 10.546875 51.171875 
L 3.125 52.34375 
Q 6.25 61.328125 11.125 65.421875 
Q 16.015625 69.53125 22.65625 69.921875 
Q 26.5625 70.3125 29.6875 69.71875 
Q 32.8125 69.140625 36.125 66.984375 
Q 39.453125 64.84375 41.59375 60.546875 
Q 43.75 56.25 43.15625 50.1875 
Q 42.578125 44.140625 37.109375 35.734375 
Q 31.640625 27.34375 16.015625 9.375 
L 44.140625 9.375 
L 44.140625 2.34375 
L 4.6875 2.34375 
z
" id="SimHei-50"/>
      </defs>
      <g transform="translate(42 193.311786)scale(0.1 -0.1)">
       <use xlink:href="#SimHei-50"/>
      </g>
     </g>
    </g>
    <g id="ytick_4">
     <g id="line2d_9">
      <g>
       <use style="stroke:#000000;stroke-width:0.8;" x="54" xlink:href="#mf5d4e57b76" y="158.811429"/>
      </g>
     </g>
     <g id="text_10">
      <!-- 3 -->
      <defs>
       <path d="M 3.90625 19.140625 
L 10.9375 20.3125 
Q 12.5 15.234375 16.015625 11.90625 
Q 19.53125 8.59375 24.796875 8.78125 
Q 30.078125 8.984375 33.203125 13.078125 
Q 36.328125 17.1875 35.9375 22.453125 
Q 35.546875 27.734375 31.828125 30.65625 
Q 28.125 33.59375 19.921875 34.765625 
L 19.921875 39.84375 
Q 28.125 40.625 31.828125 44.140625 
Q 35.546875 47.65625 35.15625 53.3125 
Q 34.765625 58.984375 30.078125 61.515625 
Q 25.390625 64.0625 20.109375 62.109375 
Q 14.84375 60.15625 11.71875 51.171875 
L 4.6875 52.34375 
Q 7.03125 59.375 11.125 64.0625 
Q 15.234375 68.75 22.265625 69.53125 
Q 29.296875 70.3125 34.5625 67.765625 
Q 39.84375 65.234375 41.984375 59.953125 
Q 44.140625 54.6875 42.578125 48.4375 
Q 41.015625 42.1875 33.59375 37.5 
Q 39.0625 35.15625 41.984375 30.46875 
Q 44.921875 25.78125 43.9375 18.15625 
Q 42.96875 10.546875 37.109375 5.859375 
Q 31.25 1.171875 23.828125 1.359375 
Q 16.40625 1.5625 10.9375 6.046875 
Q 5.46875 10.546875 3.90625 19.140625 
z
" id="SimHei-51"/>
      </defs>
      <g transform="translate(42 162.248929)scale(0.1 -0.1)">
       <use xlink:href="#SimHei-51"/>
      </g>
     </g>
    </g>
    <g id="ytick_5">
     <g id="line2d_10">
      <g>
       <use style="stroke:#000000;stroke-width:0.8;" x="54" xlink:href="#mf5d4e57b76" y="127.748571"/>
      </g>
     </g>
     <g id="text_11">
      <!-- 4 -->
      <defs>
       <path d="M 31.25 17.1875 
L 1.171875 17.1875 
L 1.171875 23.828125 
L 32.8125 69.53125 
L 38.671875 69.53125 
L 38.671875 23.828125 
L 48.046875 23.828125 
L 48.046875 17.1875 
L 38.671875 17.1875 
L 38.671875 2.34375 
L 31.25 2.34375 
z
M 31.25 23.828125 
L 31.25 54.6875 
L 9.375 23.828125 
z
" id="SimHei-52"/>
      </defs>
      <g transform="translate(42 131.186071)scale(0.1 -0.1)">
       <use xlink:href="#SimHei-52"/>
      </g>
     </g>
    </g>
    <g id="ytick_6">
     <g id="line2d_11">
      <g>
       <use style="stroke:#000000;stroke-width:0.8;" x="54" xlink:href="#mf5d4e57b76" y="96.685714"/>
      </g>
     </g>
     <g id="text_12">
      <!-- 5 -->
      <g transform="translate(42 100.123214)scale(0.1 -0.1)">
       <use xlink:href="#SimHei-53"/>
      </g>
     </g>
    </g>
    <g id="ytick_7">
     <g id="line2d_12">
      <g>
       <use style="stroke:#000000;stroke-width:0.8;" x="54" xlink:href="#mf5d4e57b76" y="65.622857"/>
      </g>
     </g>
     <g id="text_13">
      <!-- 6 -->
      <g transform="translate(42 69.060357)scale(0.1 -0.1)">
       <use xlink:href="#SimHei-54"/>
      </g>
     </g>
    </g>
    <g id="ytick_8">
     <g id="line2d_13">
      <g>
       <use style="stroke:#000000;stroke-width:0.8;" x="54" xlink:href="#mf5d4e57b76" y="34.56"/>
      </g>
     </g>
     <g id="text_14">
      <!-- 7 -->
      <g transform="translate(42 37.9975)scale(0.1 -0.1)">
       <use xlink:href="#SimHei-55"/>
      </g>
     </g>
    </g>
   </g>
   <g id="line2d_14">
    <path clip-path="url(#p75d18a91a2)" d="M 54 164.896465 
L 60.832653 163.672966 
L 67.665306 162.333605 
L 74.497959 160.736416 
L 81.330612 159.290634 
L 88.163265 158.03793 
L 94.995918 156.118243 
L 101.828571 153.841963 
L 108.661224 152.366252 
L 115.493878 151.455228 
L 122.326531 149.511728 
L 129.159184 147.149593 
L 135.991837 144.98722 
L 142.82449 141.769163 
L 149.657143 138.388848 
L 156.489796 136.126845 
L 163.322449 133.496698 
L 170.155102 131.269696 
L 176.987755 128.028916 
L 183.820408 125.84138 
L 190.653061 122.007989 
L 197.485714 119.652176 
L 204.318367 116.548536 
L 211.15102 109.395669 
L 217.983673 107.111884 
L 224.816327 103.724026 
L 231.64898 100.261433 
L 238.481633 97.271771 
L 245.314286 93.141894 
L 252.146939 86.329205 
L 258.979592 80.063609 
L 265.812245 75.5248 
L 272.644898 65.752985 
L 279.477551 57.307435 
L 286.310204 46.794803 
L 293.142857 31.171245 
L 299.97551 24.172202 
L 306.808163 9.89364 
L 313.640816 3.361043 
L 314.728154 -1 
" style="fill:none;stroke:#1f77b4;stroke-linecap:square;stroke-width:1.5;"/>
   </g>
   <g id="line2d_15">
    <path clip-path="url(#p75d18a91a2)" d="M 54 193.221112 
L 60.832653 196.832414 
L 67.665306 196.832414 
L 74.497959 196.832414 
L 81.330612 196.832414 
L 88.163265 196.832414 
L 94.995918 196.832414 
L 101.828571 196.832414 
L 108.661224 196.832414 
L 115.493878 196.832414 
L 122.326531 187.327647 
L 129.159184 187.327647 
L 135.991837 187.327647 
L 142.82449 187.327647 
L 149.657143 187.327647 
L 156.489796 187.327647 
L 163.322449 187.327647 
L 170.155102 193.907297 
L 176.987755 193.907297 
L 183.820408 193.907297 
L 190.653061 193.907297 
L 197.485714 193.907297 
L 204.318367 177.579319 
L 211.15102 180.551925 
L 217.983673 180.551925 
L 224.816327 180.551925 
L 231.64898 180.551925 
L 238.481633 187.485975 
L 245.314286 187.485975 
L 252.146939 187.485975 
L 258.979592 191.946954 
L 265.812245 191.946954 
L 272.644898 191.946954 
L 279.477551 195.283692 
L 286.310204 195.283692 
L 293.142857 199.347626 
L 299.97551 199.347626 
L 306.808163 203.97136 
L 313.640816 206.405058 
L 320.473469 169.89421 
L 327.306122 177.679892 
L 334.138776 185.184505 
L 340.971429 190.730416 
L 347.804082 197.980862 
L 354.636735 200.752484 
L 361.469388 206.779807 
L 368.302041 208.805157 
L 375.134694 214.596852 
L 381.967347 222.72267 
L 388.8 151.81086 
L 395.306933 -1 
" style="fill:none;stroke:#ff7f0e;stroke-linecap:square;stroke-width:1.5;"/>
   </g>
   <g id="line2d_16">
    <path clip-path="url(#p75d18a91a2)" d="M 54 220.937143 
L 388.8 220.937143 
" style="fill:none;stroke:#000000;stroke-dasharray:1.85,0.8;stroke-dashoffset:0;stroke-width:0.5;"/>
   </g>
   <g id="line2d_17">
    <path clip-path="url(#p75d18a91a2)" d="M 54 174.342857 
L 388.8 174.342857 
" style="fill:none;stroke:#000000;stroke-dasharray:1.85,0.8;stroke-dashoffset:0;stroke-width:0.5;"/>
   </g>
   <g id="patch_4">
    <path d="M 54 252 
L 54 34.56 
" style="fill:none;stroke:#000000;stroke-linecap:square;stroke-linejoin:miter;stroke-width:0.8;"/>
   </g>
   <g id="patch_5">
    <path d="M 388.8 252 
L 388.8 34.56 
" style="fill:none;stroke:#000000;stroke-linecap:square;stroke-linejoin:miter;stroke-width:0.8;"/>
   </g>
   <g id="patch_6">
    <path d="M 54 252 
L 388.8 252 
" style="fill:none;stroke:#000000;stroke-linecap:square;stroke-linejoin:miter;stroke-width:0.8;"/>
   </g>
   <g id="patch_7">
    <path d="M 54 34.56 
L 388.8 34.56 
" style="fill:none;stroke:#000000;stroke-linecap:square;stroke-linejoin:miter;stroke-width:0.8;"/>
   </g>
   <g id="text_15">
    <!-- 相对人气指数 -->
    <defs>
     <path d="M 92.1875 75.390625 
Q 91.796875 66.015625 91.796875 55.859375 
L 91.796875 11.71875 
Q 91.796875 1.171875 92.1875 -8.984375 
L 84.375 -8.984375 
L 84.375 -1.5625 
L 55.078125 -1.5625 
L 55.078125 -9.765625 
L 47.265625 -9.765625 
Q 47.65625 1.953125 47.65625 10.546875 
L 47.65625 56.25 
Q 47.65625 66.40625 47.265625 75.390625 
L 92.1875 75.390625 
z
M 21.875 59.765625 
Q 21.875 75.78125 21.484375 81.25 
L 30.078125 81.25 
Q 29.6875 75.390625 29.6875 59.765625 
Q 39.0625 59.765625 44.140625 60.15625 
L 44.140625 52.734375 
Q 39.453125 53.125 29.6875 53.125 
L 29.6875 38.28125 
Q 31.640625 40.234375 33.984375 42.96875 
Q 41.015625 35.546875 46.09375 28.515625 
Q 43.75 26.953125 40.234375 23.4375 
Q 35.9375 30.859375 29.6875 37.109375 
L 29.6875 7.421875 
Q 29.6875 0.78125 30.078125 -9.765625 
L 21.484375 -9.765625 
Q 21.875 0.78125 21.875 7.03125 
L 21.875 33.59375 
Q 16.796875 19.140625 10.15625 10.546875 
Q 7.421875 14.84375 4.6875 17.1875 
Q 7.421875 19.53125 12.5 29.484375 
Q 17.578125 39.453125 20.3125 53.125 
Q 11.71875 53.125 6.25 52.734375 
L 6.25 60.15625 
Q 13.28125 59.765625 21.875 59.765625 
z
M 84.375 5.078125 
L 84.375 23.046875 
L 55.078125 23.046875 
L 55.078125 5.078125 
z
M 84.375 51.5625 
L 84.375 68.75 
L 55.078125 68.75 
L 55.078125 51.5625 
z
M 84.375 29.6875 
L 84.375 45.3125 
L 55.078125 45.3125 
L 55.078125 29.6875 
z
" id="SimHei-30456"/>
     <path d="M 8.203125 66.40625 
Q 14.0625 66.015625 21.875 66.015625 
L 44.140625 66.015625 
Q 40.234375 41.015625 34.375 27.34375 
Q 44.140625 13.671875 48.828125 6.25 
Q 46.09375 4.296875 42.578125 1.171875 
Q 34.375 15.234375 30.46875 20.3125 
Q 25.78125 12.109375 21.09375 6.640625 
Q 16.40625 1.171875 9.375 -5.46875 
Q 6.640625 -1.953125 3.125 -0.390625 
Q 9.765625 4.296875 15.234375 10.546875 
Q 20.703125 16.796875 25.78125 26.5625 
Q 16.40625 37.890625 8.59375 45.3125 
Q 10.9375 47.265625 14.0625 50.390625 
Q 25.390625 37.890625 29.296875 33.59375 
Q 34.375 47.65625 35.9375 59.765625 
L 21.875 59.765625 
Q 14.0625 59.765625 8.203125 59.375 
z
M 45.703125 57.8125 
Q 55.078125 57.421875 58.59375 57.421875 
L 75.390625 57.421875 
L 75.390625 69.140625 
Q 75.390625 74.21875 74.609375 80.078125 
L 83.59375 80.078125 
Q 83.203125 75.390625 83.203125 68.359375 
L 83.203125 57.421875 
Q 87.109375 57.421875 96.09375 57.8125 
L 96.09375 50.78125 
Q 87.109375 51.171875 83.203125 51.171875 
L 83.203125 1.953125 
Q 83.59375 -5.46875 78.3125 -7.421875 
Q 73.046875 -9.375 66.40625 -10.15625 
Q 65.234375 -5.46875 62.890625 -1.5625 
Q 71.484375 -1.5625 73.625 -0.578125 
Q 75.78125 0.390625 75.390625 5.078125 
L 75.390625 51.171875 
L 58.984375 51.171875 
Q 55.46875 51.171875 45.703125 50.390625 
z
M 53.90625 42.578125 
Q 60.546875 30.859375 65.234375 20.703125 
Q 60.15625 18.75 57.8125 16.796875 
Q 54.296875 27.34375 47.65625 38.671875 
Q 50.390625 39.84375 53.90625 42.578125 
z
" id="SimHei-23545"/>
     <path d="M 5.46875 -2.34375 
Q 20.703125 5.078125 29.296875 16.015625 
Q 37.890625 26.953125 41.203125 38.46875 
Q 44.53125 50 44.921875 59.953125 
Q 45.3125 69.921875 44.53125 80.859375 
Q 48.828125 80.46875 54.296875 80.078125 
Q 53.125 73.828125 53.125 67.1875 
Q 53.125 60.546875 53.90625 51.953125 
Q 54.6875 43.359375 65.03125 25.96875 
Q 75.390625 8.59375 95.3125 0 
Q 90.625 -4.6875 89.0625 -7.8125 
Q 61.71875 5.46875 50 40.234375 
Q 42.1875 9.375 12.109375 -8.984375 
Q 9.765625 -5.859375 5.46875 -2.34375 
z
" id="SimHei-20154"/>
     <path d="M 96.09375 7.8125 
Q 90.625 -8.203125 85.15625 -9.171875 
Q 79.6875 -10.15625 75.78125 -3.90625 
Q 71.875 2.34375 70.3125 10.34375 
Q 68.75 18.359375 69.53125 33.59375 
L 26.5625 33.59375 
Q 20.3125 33.59375 13.28125 33.203125 
L 13.28125 40.234375 
Q 20.3125 39.84375 26.5625 39.84375 
L 77.734375 39.84375 
Q 76.953125 27.734375 77.140625 21.09375 
Q 77.34375 14.453125 79.09375 9.171875 
Q 80.859375 3.90625 83 1.171875 
Q 85.15625 -1.5625 88.671875 13.671875 
Q 92.96875 8.59375 96.09375 7.8125 
z
M 35.9375 78.90625 
Q 33.59375 75.390625 30.859375 71.09375 
L 73.828125 71.09375 
Q 80.859375 71.09375 87.109375 71.484375 
L 87.109375 64.453125 
Q 80.859375 64.84375 73.828125 64.84375 
L 27.734375 64.84375 
Q 25.78125 60.9375 21.671875 54.875 
Q 17.578125 48.828125 13.671875 44.53125 
Q 10.546875 47.65625 5.859375 48.828125 
Q 10.9375 53.125 17.578125 63.46875 
Q 24.21875 73.828125 26.953125 82.421875 
Q 31.25 80.46875 35.9375 78.90625 
z
M 67.1875 55.859375 
Q 73.4375 55.859375 79.6875 56.25 
L 79.6875 49.21875 
Q 73.4375 49.609375 67.1875 49.609375 
L 38.28125 49.609375 
Q 32.03125 49.609375 25.78125 49.21875 
L 25.78125 55.859375 
Q 32.03125 55.46875 38.28125 55.859375 
z
" id="SimHei-27668"/>
     <path d="M 87.890625 34.765625 
Q 87.5 30.078125 87.5 21.09375 
L 87.5 4.6875 
Q 87.5 -3.515625 87.890625 -8.203125 
L 80.078125 -8.203125 
L 80.078125 -1.953125 
L 51.5625 -1.953125 
L 51.5625 -9.765625 
L 43.75 -9.765625 
Q 44.140625 -4.6875 44.140625 4.6875 
L 44.140625 21.09375 
Q 44.140625 30.078125 43.75 34.765625 
L 87.890625 34.765625 
z
M 7.8125 0.390625 
Q 16.796875 -0.390625 18.359375 0.578125 
Q 19.921875 1.5625 19.921875 4.296875 
L 19.921875 26.171875 
Q 16.40625 25 14.453125 24.015625 
Q 12.5 23.046875 7.421875 19.921875 
Q 6.25 23.828125 3.515625 28.125 
Q 9.765625 29.6875 12.890625 30.859375 
Q 16.015625 32.03125 19.921875 33.203125 
L 19.921875 51.5625 
L 17.1875 51.5625 
Q 12.109375 51.5625 7.03125 51.171875 
L 7.03125 58.203125 
Q 11.71875 57.8125 17.1875 57.8125 
L 19.921875 57.8125 
L 19.921875 69.53125 
Q 19.921875 75 19.53125 80.078125 
L 27.734375 80.078125 
Q 27.34375 75.78125 27.34375 69.53125 
L 27.34375 57.8125 
Q 32.421875 57.8125 37.890625 58.203125 
L 37.890625 51.171875 
Q 32.03125 51.5625 27.34375 51.5625 
L 27.34375 36.328125 
Q 28.90625 36.71875 31.640625 37.890625 
L 37.109375 40.234375 
Q 36.71875 35.9375 37.109375 32.8125 
Q 34.765625 32.03125 32.21875 31.046875 
Q 29.6875 30.078125 27.34375 28.90625 
L 27.34375 1.5625 
Q 26.953125 -3.125 24.609375 -5.265625 
Q 22.265625 -7.421875 10.546875 -8.203125 
Q 9.765625 -3.90625 7.8125 0.390625 
z
M 51.953125 78.515625 
Q 51.5625 73.046875 51.5625 64.453125 
Q 64.453125 66.796875 70.5 68.9375 
Q 76.5625 71.09375 81.640625 73.828125 
Q 83.203125 69.921875 87.109375 66.40625 
Q 85.15625 66.015625 81.828125 65.234375 
Q 78.515625 64.453125 73.828125 63.28125 
Q 69.140625 62.109375 63.078125 60.734375 
Q 57.03125 59.375 51.5625 58.203125 
L 51.5625 49.609375 
Q 51.171875 45.703125 57.8125 45.703125 
L 76.953125 45.703125 
Q 82.8125 45.703125 84.171875 48.234375 
Q 85.546875 50.78125 86.71875 56.25 
Q 89.84375 53.125 94.53125 51.5625 
Q 91.015625 42.578125 89.0625 41.203125 
Q 87.109375 39.84375 82.421875 39.453125 
L 52.34375 39.453125 
Q 47.65625 39.453125 45.890625 41.984375 
Q 44.140625 44.53125 44.140625 46.484375 
L 44.140625 64.453125 
Q 44.140625 74.609375 43.75 78.515625 
z
M 80.078125 4.296875 
L 80.078125 13.671875 
L 51.5625 13.671875 
L 51.5625 4.296875 
z
M 80.078125 19.53125 
L 80.078125 28.515625 
L 51.5625 28.515625 
L 51.5625 19.53125 
z
" id="SimHei-25351"/>
     <path d="M 70.703125 76.953125 
Q 69.921875 75 68.75 71.671875 
Q 67.578125 68.359375 65.234375 59.765625 
L 83.203125 59.765625 
Q 87.109375 59.765625 92.578125 60.15625 
L 92.578125 53.125 
Q 88.28125 53.515625 85.9375 53.515625 
Q 85.9375 47.265625 83.78125 33.78125 
Q 81.640625 20.3125 76.171875 10.546875 
Q 80.078125 5.859375 84.953125 2.140625 
Q 89.84375 -1.5625 94.140625 -3.125 
Q 89.453125 -6.640625 87.890625 -9.765625 
Q 83.203125 -7.03125 79.296875 -3.515625 
Q 75.390625 0 71.484375 5.078125 
Q 67.1875 0.390625 62.296875 -2.921875 
Q 57.421875 -6.25 50 -10.15625 
Q 48.046875 -6.640625 44.53125 -4.6875 
Q 50.390625 -2.34375 57.03125 1.953125 
Q 63.671875 6.25 67.1875 10.546875 
Q 64.453125 16.015625 61.90625 22.265625 
Q 59.375 28.515625 57.421875 38.671875 
Q 56.25 35.546875 53.515625 30.46875 
Q 50.78125 32.03125 46.875 33.59375 
Q 53.125 44.53125 57.03125 57.421875 
Q 60.9375 70.3125 62.109375 79.6875 
Q 66.796875 77.734375 70.703125 76.953125 
z
M 32.8125 35.15625 
Q 31.25 33.59375 29.296875 30.078125 
L 50.78125 30.078125 
Q 48.4375 20.3125 42.578125 10.546875 
Q 48.828125 8.203125 52.34375 6.25 
Q 50.390625 3.515625 48.828125 0.390625 
Q 45.3125 2.734375 38.28125 5.078125 
Q 30.46875 -3.515625 11.328125 -10.15625 
Q 9.375 -5.859375 6.25 -4.296875 
Q 24.609375 0 31.25 7.421875 
Q 20.3125 10.15625 13.28125 12.109375 
Q 15.625 15.625 19.53125 23.828125 
Q 15.625 23.828125 6.640625 23.4375 
L 6.640625 30.46875 
Q 14.0625 30.078125 21.875 30.078125 
Q 23.4375 33.59375 24.21875 37.890625 
Q 28.515625 36.328125 32.8125 35.15625 
z
M 27.734375 61.71875 
Q 27.734375 71.09375 27.34375 79.6875 
L 35.15625 79.6875 
Q 34.765625 71.484375 34.765625 61.71875 
Q 48.046875 61.71875 53.515625 62.109375 
L 53.515625 55.078125 
Q 48.046875 55.46875 34.765625 55.46875 
Q 34.765625 44.140625 35.15625 37.890625 
L 27.34375 37.890625 
Q 27.734375 43.359375 27.734375 51.5625 
Q 25.78125 48.4375 20.3125 43.546875 
Q 14.84375 38.671875 10.15625 35.9375 
Q 8.203125 39.453125 4.296875 41.015625 
Q 7.8125 42.1875 13.671875 46.484375 
Q 19.53125 50.78125 22.65625 55.46875 
Q 14.84375 55.46875 7.8125 55.078125 
L 7.8125 62.109375 
Q 14.453125 61.71875 27.734375 61.71875 
z
M 62.109375 49.609375 
Q 65.625 26.5625 71.875 17.578125 
Q 75.78125 26.5625 77.140625 35.734375 
Q 78.515625 44.921875 78.90625 53.515625 
L 63.671875 53.515625 
L 62.109375 49.609375 
z
M 22.65625 15.625 
Q 27.34375 14.453125 35.546875 12.5 
Q 38.671875 16.40625 41.40625 23.828125 
L 26.953125 23.828125 
Q 25 19.921875 22.65625 15.625 
z
M 51.953125 75.390625 
Q 50 72.265625 48.828125 69.53125 
Q 47.65625 66.796875 45.703125 62.890625 
Q 42.578125 64.453125 39.453125 65.234375 
Q 42.578125 70.3125 45.3125 78.125 
Q 49.21875 76.171875 51.953125 75.390625 
z
M 40.234375 52.734375 
Q 45.3125 47.65625 50 42.578125 
Q 47.65625 40.625 44.921875 37.890625 
Q 39.453125 44.53125 35.9375 48.4375 
Q 38.28125 50.390625 40.234375 52.734375 
z
M 14.453125 78.125 
Q 19.921875 72.65625 23.4375 67.1875 
L 17.578125 63.671875 
Q 14.84375 69.140625 9.375 73.828125 
Q 12.890625 76.171875 14.453125 78.125 
z
" id="SimHei-25968"/>
    </defs>
    <g transform="translate(185.4 28.56)scale(0.12 -0.12)">
     <use xlink:href="#SimHei-30456"/>
     <use x="100" xlink:href="#SimHei-23545"/>
     <use x="200" xlink:href="#SimHei-20154"/>
     <use x="300" xlink:href="#SimHei-27668"/>
     <use x="400" xlink:href="#SimHei-25351"/>
     <use x="500" xlink:href="#SimHei-25968"/>
    </g>
   </g>
   <g id="legend_1">
    <g id="patch_8">
     <path d="M 309.8 69.06 
L 381.8 69.06 
Q 383.8 69.06 383.8 67.06 
L 383.8 41.56 
Q 383.8 39.56 381.8 39.56 
L 309.8 39.56 
Q 307.8 39.56 307.8 41.56 
L 307.8 67.06 
Q 307.8 69.06 309.8 69.06 
z
" style="fill:#ffffff;opacity:0.8;stroke:#cccccc;stroke-linejoin:miter;"/>
    </g>
    <g id="line2d_18">
     <path d="M 311.8 47.06 
L 331.8 47.06 
" style="fill:none;stroke:#1f77b4;stroke-linecap:square;stroke-width:1.5;"/>
    </g>
    <g id="line2d_19"/>
    <g id="text_16">
     <!-- bangumi -->
     <defs>
      <path d="M 44.140625 23.828125 
Q 44.140625 12.5 38.671875 6.828125 
Q 33.203125 1.171875 25.390625 1.171875 
Q 21.09375 1.171875 17.96875 2.734375 
Q 14.84375 4.296875 12.5 7.8125 
L 12.5 1.953125 
L 4.6875 1.953125 
L 4.6875 68.75 
L 12.5 68.75 
L 12.5 39.84375 
Q 14.84375 43.359375 17.96875 45.109375 
Q 21.09375 46.875 25.390625 46.875 
Q 33.203125 46.875 38.671875 41.015625 
Q 44.140625 35.15625 44.140625 23.828125 
z
M 35.546875 23.828125 
Q 35.546875 31.25 32.609375 35.546875 
Q 29.6875 39.84375 23.828125 39.84375 
Q 19.140625 39.84375 15.8125 35.546875 
Q 12.5 31.25 12.5 23.828125 
Q 12.5 16.40625 15.8125 12.296875 
Q 19.140625 8.203125 23.828125 8.203125 
Q 29.6875 8.203125 32.609375 12.296875 
Q 35.546875 16.40625 35.546875 23.828125 
z
" id="SimHei-98"/>
      <path d="M 44.921875 1.953125 
L 35.546875 1.953125 
Q 34.765625 2.734375 34.375 4.09375 
Q 33.984375 5.46875 33.984375 7.421875 
Q 31.25 4.296875 27.34375 2.734375 
Q 23.4375 1.171875 19.140625 1.171875 
Q 12.890625 1.171875 8.59375 4.296875 
Q 4.296875 7.421875 4.296875 13.28125 
Q 4.296875 19.140625 8.203125 22.65625 
Q 12.109375 26.171875 20.3125 27.34375 
Q 25.78125 28.125 29.875 29.296875 
Q 33.984375 30.46875 33.984375 32.421875 
Q 33.984375 34.765625 32.21875 37.109375 
Q 30.46875 39.453125 24.609375 39.453125 
Q 19.921875 39.453125 17.765625 37.6875 
Q 15.625 35.9375 14.84375 32.8125 
L 6.25 32.8125 
Q 7.03125 39.0625 11.90625 42.765625 
Q 16.796875 46.484375 24.609375 46.484375 
Q 33.203125 46.484375 37.5 42.578125 
Q 41.796875 38.671875 41.796875 31.640625 
L 41.796875 10.15625 
Q 41.796875 7.8125 42.578125 5.859375 
Q 43.359375 3.90625 44.921875 1.953125 
z
M 33.984375 16.40625 
L 33.984375 24.21875 
Q 31.640625 23.4375 29.484375 22.84375 
Q 27.34375 22.265625 22.265625 21.484375 
Q 16.40625 20.703125 14.640625 18.75 
Q 12.890625 16.796875 12.890625 14.0625 
Q 12.890625 11.71875 14.640625 9.953125 
Q 16.40625 8.203125 19.921875 8.203125 
Q 23.4375 8.203125 27.53125 10.15625 
Q 31.640625 12.109375 33.984375 16.40625 
z
" id="SimHei-97"/>
      <path d="M 43.75 1.953125 
L 35.9375 1.953125 
L 35.9375 30.078125 
Q 35.9375 34.765625 33.59375 37.5 
Q 31.25 40.234375 27.34375 40.234375 
Q 22.265625 40.234375 17.765625 34.953125 
Q 13.28125 29.6875 13.28125 21.875 
L 13.28125 1.953125 
L 5.46875 1.953125 
L 5.46875 45.703125 
L 13.28125 45.703125 
L 13.28125 37.5 
Q 16.40625 41.796875 20.109375 44.140625 
Q 23.828125 46.484375 29.6875 46.484375 
Q 36.71875 46.484375 40.234375 42.578125 
Q 43.75 38.671875 43.75 32.8125 
z
" id="SimHei-110"/>
      <path d="M 46.484375 39.0625 
Q 43.75 39.84375 41.203125 40.03125 
Q 38.671875 40.234375 35.9375 39.453125 
Q 37.109375 38.28125 37.890625 36.515625 
Q 38.671875 34.765625 38.671875 31.25 
Q 38.671875 24.609375 34.171875 20.3125 
Q 29.6875 16.015625 23.046875 16.015625 
Q 21.484375 16.015625 18.9375 16.59375 
Q 16.40625 17.1875 14.84375 17.96875 
Q 13.671875 17.1875 13.28125 16.40625 
Q 12.890625 15.625 12.890625 14.453125 
Q 12.890625 12.5 15.625 11.515625 
Q 18.359375 10.546875 25.390625 10.546875 
Q 36.71875 10.546875 40.8125 7.421875 
Q 44.921875 4.296875 44.921875 -0.390625 
Q 44.921875 -6.640625 38.859375 -9.5625 
Q 32.8125 -12.5 24.609375 -12.5 
Q 14.0625 -12.5 8.984375 -9.765625 
Q 3.90625 -7.03125 3.90625 -2.34375 
Q 3.90625 0 5.859375 2.34375 
Q 7.8125 4.6875 10.9375 6.25 
Q 8.59375 7.421875 7.21875 9.171875 
Q 5.859375 10.9375 5.859375 13.671875 
Q 5.859375 16.015625 7.609375 17.765625 
Q 9.375 19.53125 11.71875 20.703125 
Q 9.765625 22.65625 8.59375 25.390625 
Q 7.421875 28.125 7.421875 31.25 
Q 7.421875 37.890625 11.90625 42.1875 
Q 16.40625 46.484375 23.046875 46.484375 
Q 26.5625 46.484375 29.09375 45.5 
Q 31.640625 44.53125 33.59375 42.578125 
Q 36.71875 44.921875 39.84375 45.890625 
Q 42.96875 46.875 46.484375 46.484375 
z
M 30.859375 31.25 
Q 30.859375 35.15625 28.90625 37.5 
Q 26.953125 39.84375 23.046875 39.84375 
Q 19.140625 39.84375 17.1875 37.5 
Q 15.234375 35.15625 15.234375 31.25 
Q 15.234375 27.34375 17.1875 25 
Q 19.140625 22.65625 23.046875 22.65625 
Q 26.953125 22.65625 28.90625 25 
Q 30.859375 27.34375 30.859375 31.25 
z
M 37.5 -1.171875 
Q 37.5 0.390625 35.734375 1.953125 
Q 33.984375 3.515625 26.953125 3.515625 
Q 25.390625 3.515625 22.65625 3.703125 
Q 19.921875 3.90625 16.40625 4.296875 
Q 13.28125 3.125 12.109375 1.5625 
Q 10.9375 0 10.9375 -1.5625 
Q 10.9375 -3.90625 14.0625 -5.46875 
Q 17.1875 -7.03125 25 -7.03125 
Q 31.640625 -7.03125 34.5625 -5.265625 
Q 37.5 -3.515625 37.5 -1.171875 
z
" id="SimHei-103"/>
      <path d="M 43.75 1.953125 
L 35.9375 1.953125 
L 35.9375 10.15625 
Q 32.8125 5.859375 29.09375 3.515625 
Q 25.390625 1.171875 19.53125 1.171875 
Q 12.5 1.171875 8.984375 5.078125 
Q 5.46875 8.984375 5.46875 14.84375 
L 5.46875 45.703125 
L 13.28125 45.703125 
L 13.28125 17.578125 
Q 13.28125 12.890625 15.625 10.15625 
Q 17.96875 7.421875 21.875 7.421875 
Q 26.953125 7.421875 31.4375 12.6875 
Q 35.9375 17.96875 35.9375 25.78125 
L 35.9375 45.703125 
L 43.75 45.703125 
z
" id="SimHei-117"/>
      <path d="M 47.65625 1.953125 
L 39.84375 1.953125 
L 39.84375 33.59375 
Q 39.84375 35.9375 39.0625 37.5 
Q 38.28125 39.0625 35.9375 39.0625 
Q 33.203125 39.0625 30.859375 36.125 
Q 28.515625 33.203125 28.515625 28.515625 
L 28.515625 1.953125 
L 20.703125 1.953125 
L 20.703125 33.59375 
Q 20.703125 35.9375 19.921875 37.5 
Q 19.140625 39.0625 16.796875 39.0625 
Q 14.0625 39.0625 11.71875 36.125 
Q 9.375 33.203125 9.375 28.515625 
L 9.375 1.953125 
L 1.5625 1.953125 
L 1.5625 45.703125 
L 9.375 45.703125 
L 9.375 39.84375 
Q 11.328125 42.96875 14.0625 44.71875 
Q 16.796875 46.484375 19.921875 46.484375 
Q 23.046875 46.484375 25.1875 44.71875 
Q 27.34375 42.96875 28.125 39.84375 
Q 30.078125 42.96875 32.609375 44.71875 
Q 35.15625 46.484375 38.28125 46.484375 
Q 42.96875 46.484375 45.3125 43.9375 
Q 47.65625 41.40625 47.65625 36.71875 
z
" id="SimHei-109"/>
      <path d="M 28.125 58.203125 
L 20.3125 58.203125 
L 20.3125 68.359375 
L 28.125 68.359375 
z
M 28.125 1.953125 
L 20.3125 1.953125 
L 20.3125 45.703125 
L 28.125 45.703125 
z
" id="SimHei-105"/>
     </defs>
     <g transform="translate(339.8 50.56)scale(0.1 -0.1)">
      <use xlink:href="#SimHei-98"/>
      <use x="50" xlink:href="#SimHei-97"/>
      <use x="100" xlink:href="#SimHei-110"/>
      <use x="150" xlink:href="#SimHei-103"/>
      <use x="200" xlink:href="#SimHei-117"/>
      <use x="250" xlink:href="#SimHei-109"/>
      <use x="300" xlink:href="#SimHei-105"/>
     </g>
    </g>
    <g id="line2d_20">
     <path d="M 311.8 60.31 
L 331.8 60.31 
" style="fill:none;stroke:#ff7f0e;stroke-linecap:square;stroke-width:1.5;"/>
    </g>
    <g id="line2d_21"/>
    <g id="text_17">
     <!-- bilibili -->
     <defs>
      <path d="M 28.515625 1.953125 
L 20.703125 1.953125 
L 20.703125 68.75 
L 28.515625 68.75 
z
" id="SimHei-108"/>
     </defs>
     <g transform="translate(339.8 63.81)scale(0.1 -0.1)">
      <use xlink:href="#SimHei-98"/>
      <use x="50" xlink:href="#SimHei-105"/>
      <use x="100" xlink:href="#SimHei-108"/>
      <use x="150" xlink:href="#SimHei-105"/>
      <use x="200" xlink:href="#SimHei-98"/>
      <use x="250" xlink:href="#SimHei-105"/>
      <use x="300" xlink:href="#SimHei-108"/>
      <use x="350" xlink:href="#SimHei-105"/>
     </g>
    </g>
   </g>
  </g>
 </g>
 <defs>
  <clipPath id="p75d18a91a2">
   <rect height="217.44" width="334.8" x="54" y="34.56"/>
  </clipPath>
 </defs>
</svg>
